<?xml version="1.0" encoding="utf-8"?>
<!-- Generator: Adobe Illustrator 19.2.1, SVG Export Plug-In . SVG Version: 6.00 Build 0)  -->
<svg version="1.1" id="Layer_1" xmlns="http://www.w3.org/2000/svg" xmlns:xlink="http://www.w3.org/1999/xlink" x="0px" y="0px"
	 viewBox="0 0 221 194.4" style="enable-background:new 0 0 221 194.4;" xml:space="preserve">
<style type="text/css">
	.st0{fill:#5E9E3F;stroke:#00FFFF;stroke-miterlimit:10;}
	.st1{fill:#963722;stroke:#00FFFF;stroke-miterlimit:10;}
	.st2{fill:#7D7D7D;stroke:#00FFFF;stroke-miterlimit:10;}
	.st3{fill:#FFFFFF;stroke:#00FFFF;stroke-miterlimit:10;}
	.st4{fill:#64A74A;stroke:#00FFFF;stroke-miterlimit:10;}
	.st5{fill:#559136;stroke:#00FFFF;stroke-miterlimit:10;}
	.st6{fill:#6B2618;}
	.st7{fill:#9E483C;}
	.st8{fill:#87382A;}
	.st9{fill:#AA544B;}
	.st10{fill:#E8721B;}
	.st11{fill:#F7971E;}
	.st12{fill:#DB6412;}
	.st13{fill:#E88418;}
	.st14{fill:#FFA543;}
	.st15{fill:#963323;}
	.st16{fill:#E68025;}
	.st17{fill:#F79A4D;}
	.st18{fill:#772A1D;}
	.st19{fill:#A3392B;}
	.st20{fill:#64A74A;}
	.st21{fill:#00FFFF;}
	.st22{fill:#ED8A40;}
	.st23{fill:#FFB680;}
	.st24{fill:#FFFFFF;}
	.st25{fill:#4385F5;}
	.st26{fill:#7E3422;}
	.st27{fill:#D73D33;}
	.st28{fill:#FF4A1A;}
	.st29{fill:#E03210;}
	.st30{fill:#FF8676;}
	.st31{fill:#EA7807;}
	.st32{fill:#FF6A4D;}
	.st33{fill:#B25238;}
	.st34{fill:#C65E46;}
	.st35{fill:#B7B7B7;}
	.st36{fill:#706D6D;}
	.st37{fill:#565656;}
	.st38{fill:#D8701A;}
	.st39{fill:#D16811;}
	.st40{fill:#BC5304;}
</style>
<g>
	<g>
		<path class="st0" d="M143.8,49.7l3.2,67.2c3,0.4,6,0.8,8.9,1.3l4.5-67.2l2.5,68.5c5.6,1.1,10.9,2.4,15.7,3.8l5.1-75.8l2.1,78.2
			c10.5,3.8,18.5,8.4,22.9,13.4L184,18.4l-11.5,35.4L160,23.6L151.7,49l-9.1-15.4l-17.4,81.4c5.2,0.2,10.3,0.6,15.2,1.1L143.8,49.7z
			"/>
		<path class="st1" d="M178.6,123.2c2.5,0.7,5,1.5,7.2,2.3l-2.1-78.2L178.6,123.2z"/>
		<path class="st1" d="M155.9,118.2c2.4,0.4,4.7,0.8,7,1.3L160.4,51L155.9,118.2z"/>
		<path class="st1" d="M140.5,116.2c2.2,0.2,4.3,0.5,6.5,0.7l-3.2-67.2L140.5,116.2z"/>
		<path class="st2" d="M90.3,72.8l-0.6-1.4l-3.1-1.1l-2.7,7l-3.7-9.7l-4.8,2.9l-2.7,5.3l-2.8-6.4l-5.2-2.8v16.6l-5.2-17.5l-10.1,12
			l-13.1,48.1c18.1-6.6,44-10.8,72.8-11L90.3,72.8z"/>
		<polygon class="st3" points="83.9,77.3 86.6,70.3 89.7,71.4 82.8,56.3 75.4,70.5 80.2,67.6 		"/>
		<polygon class="st3" points="64.7,83.2 64.7,66.6 69.9,69.4 58.7,43.8 49.4,77.7 59.5,65.8 		"/>
		<path class="st4" d="M208.8,139c-4.4-5.1-12.4-9.7-22.9-13.4c-2.3-0.8-4.7-1.6-7.2-2.3c-4.8-1.4-10.1-2.7-15.7-3.8
			c-2.3-0.4-4.6-0.9-7-1.3c-2.9-0.5-5.9-0.9-8.9-1.3c-2.1-0.3-4.3-0.5-6.5-0.7c-4.9-0.5-10-0.9-15.2-1.1c-4.5-0.2-9.2-0.3-13.9-0.3
			c-0.8,0-1.5,0-2.3,0c-28.9,0.2-54.8,4.4-72.8,11c-16.3,6-26.2,13.9-26.2,22.5c0,18.6,45.4,33.6,101.4,33.6s101.4-15,101.4-33.6
			C212.8,145.1,211.4,142,208.8,139z"/>
	</g>
	<ellipse class="st5" cx="178.9" cy="149.8" rx="27.6" ry="12.8"/>
	<ellipse class="st5" cx="46.4" cy="146.8" rx="28.9" ry="11.4"/>
</g>
<g>
	<g>
		<g>
			<rect x="158.5" y="136.6" class="st6" width="21.4" height="6.3"/>
			<rect x="179.8" y="136.6" class="st6" width="20.8" height="6.3"/>
			<polygon class="st6" points="163.9,137.3 162.7,134.9 163.9,134 166.5,137.3 			"/>
			<polygon class="st6" points="196.4,137.3 197.6,134.9 196.4,134 193.8,137.3 			"/>
			<path class="st7" d="M159.1,147.2c0,0,1-4.3,4.9-6.7c1.4-0.9,6.4-3.1,6.4-3.1l1.9,0.7c0,0-5.4,2.7-7.2,3.6
				C162.7,142.9,159.1,147.2,159.1,147.2z"/>
			<path class="st8" d="M199.4,147.2c0,0-2.4-4.9-5-6.7c-1.3-1-6.1-3.1-6.1-3.1l-1.9,0.7c0,0,4.9,2.8,6.5,3.9
				C194.7,143.2,199.4,147.2,199.4,147.2z"/>
			<g>
				
					<rect x="160.4" y="140.1" transform="matrix(0.6301 -0.7765 0.7765 0.6301 -47.8029 186.8713)" class="st7" width="23.6" height="7"/>
				
					<ellipse transform="matrix(0.6301 -0.7765 0.7765 0.6301 -58.0637 184.3922)" class="st9" cx="164.5" cy="153.1" rx="3" ry="3.5"/>
			</g>
			<g>
				
					<rect x="182" y="131.8" transform="matrix(0.7765 -0.6301 0.6301 0.7765 -49.0209 149.0028)" class="st8" width="7" height="23.6"/>
				
					<ellipse transform="matrix(0.7765 -0.6301 0.6301 0.7765 -53.2976 156.0044)" class="st7" cx="193.3" cy="153.1" rx="3.5" ry="3"/>
			</g>
		</g>
		<g>
			<path class="st8" d="M178.9,153.5v-21h-3.5v23.6h0.1C175.7,154.7,177.1,153.5,178.9,153.5z"/>
			<path class="st7" d="M175.4,156.1c0,0.2-0.1,0.3-0.1,0.5c0,1.7,1.6,3,3.5,3v-3.5v-2.6C177.1,153.5,175.7,154.7,175.4,156.1z"/>
			<path class="st6" d="M182.3,156.1L182.3,156.1l0.1-23.6h-3.5v21C180.6,153.5,182.1,154.7,182.3,156.1z"/>
			<path class="st8" d="M182.3,156.1c-0.3-1.4-1.7-2.6-3.4-2.6v2.6v3.5c1.9,0,3.5-1.4,3.5-3C182.4,156.4,182.4,156.3,182.3,156.1z"
				/>
		</g>
		<g>
			<path class="st10" d="M178.2,138.5c-1.8-0.2-6.2-0.8-7.4-4.1c-2.1-5.7,3.2-8.9,2.7-11.5c-0.8-3.7-1-7.7-1-7.7s2.3,1.5,4,3.2
				c0.6-3.8,1.8-9,2.4-9.9V98.1c-0.8,1.6-3,8.3-3.9,13.8c-2.4-2.5-5.8-4.7-5.8-4.7s0.2,5.8,1.4,11.2c0.8,3.7-6.9,8.5-3.9,16.8
				c1.8,4.9,8.1,5.6,10.8,6c0.5,0.1,0.9,0.1,1.3,0.1v-2.6C178.6,138.5,178.4,138.5,178.2,138.5z"/>
			<path class="st11" d="M172.5,115.2c0,0,0.2,4,1,7.7c0.6,2.6-4.7,5.8-2.7,11.5c1.2,3.3,5.6,3.9,7.4,4.1c0.2,0,0.4,0,0.6,0.1v-30
				c-0.5,1-1.8,6.1-2.4,9.9C174.9,116.7,172.5,115.2,172.5,115.2z"/>
		</g>
		<g>
			<path class="st12" d="M179.5,138.5c1.8-0.2,6.2-0.8,7.4-4.1c2.1-5.7-3.2-8.9-2.7-11.5c0.8-3.7,1-7.7,1-7.7s-2.3,1.5-4,3.2
				c-0.6-3.8-1.8-9-2.4-9.9V98.1c0.8,1.6,3,8.3,3.9,13.8c2.4-2.5,5.8-4.7,5.8-4.7s-0.2,5.8-1.4,11.2c-0.8,3.7,6.9,8.5,3.9,16.8
				c-1.8,4.9-8.1,5.6-10.8,6c-0.5,0.1-0.9,0.1-1.3,0.1v-2.6C179.1,138.5,179.3,138.5,179.5,138.5z"/>
			<path class="st13" d="M185.2,115.2c0,0-0.2,4-1,7.7c-0.6,2.6,4.7,5.8,2.7,11.5c-1.2,3.3-5.6,3.9-7.4,4.1c-0.2,0-0.4,0-0.6,0.1
				v-30c0.5,1,1.8,6.1,2.4,9.9C182.8,116.7,185.2,115.2,185.2,115.2z"/>
		</g>
	</g>
	<path class="st11" d="M182.7,120.5c0,0-2,1.7-1.3,5.7c1.3-1.5,1.4-2,1.3-2.9C182.5,121.8,182.7,120.5,182.7,120.5z"/>
	<path class="st14" d="M175,125.1c0,0,2,1.7,1.3,5.7c-1.3-1.5-1.4-2-1.3-2.9C175.1,126.3,175,125.1,175,125.1z"/>
</g>
<g>
	<g>
		<g>
			<path class="st6" d="M48.6,132.8c-1.4,0.4-4.1,1.1-4.3,1.5c0,0,0.2,0.1,0.5,0.2c0.5,0.1,4.6-0.2,6.1-0.7c1-0.3,3.2-1.2,4.6-1.8
				c-0.2-0.1-0.4-0.3-0.6-0.4c-0.5-0.2-1-0.4-1.4-0.5C52.1,131.6,50.4,132.4,48.6,132.8z"/>
			<path class="st6" d="M54.4,140.1c-0.5,0.2-0.6,0.4-0.6,0.4c0,0.1,0.7,0.5,2.6,0.3c0.8-0.1,1.6-0.2,2.3-0.4
				c0.2-0.6,0.2-1.3,0.2-1.9C57.4,139,55.3,139.8,54.4,140.1z"/>
			<path class="st6" d="M46.7,140.9c2.8-1.1,9.3-3.3,12.1-4.1c-0.2-0.8-0.5-1.6-0.9-2.3c-1,0.4-2.1,0.8-2.7,1
				c-1.2,0.4-8.2,2.4-12.3,3c-4,0.5-8.6,1.8-8.6,1.8l-0.1-0.4c0,0,4.7-1.3,8.7-1.8c4.1-0.5,11.1-2.5,12.3-2.9
				c0.6-0.2,1.6-0.6,2.6-0.9c-0.5-0.7-1.1-1.4-1.9-1.9c-1.3,0.5-3.8,1.6-4.9,1.9c-1.5,0.5-5.7,0.9-6.3,0.7c-0.2,0-0.3-0.1-0.5-0.2
				c-0.2-0.1-0.3-0.2-0.3-0.4c0-0.5,1.2-1,4.7-1.9c1.5-0.4,3-1,4.1-1.5c-1.4-0.2-2.8-0.1-4.1,0.4l0,0l-5.2,1.6
				c-0.2,0.3-0.4,0.5-0.6,0.8c-0.4,0.7-0.9,1.3-1.2,1.6c-0.9,0.8-2.2,1.4-4.1,1.9c-1.7,0.5-6.9,1.5-7,1.5l-0.1-0.4
				c0.1,0,5.2-1,6.9-1.5c1.8-0.5,3.1-1.1,3.9-1.9c0.3-0.3,0.7-0.9,1.2-1.6c0.1-0.1,0.2-0.2,0.2-0.4l-16.2,5.2l5.3,14.4l21.7-6.9l0,0
				c0.9-0.3,1.7-0.7,2.4-1.2c-0.9,0.3-1.8,0.5-2.6,0.5c-1.6,0-4.3,1-6,1.7c-0.4,0.1-0.7,0.3-1,0.4c-1.6,0.6-13.7,4.5-13.8,4.5
				l-0.1-0.4c0.1,0,12.2-3.9,13.8-4.5c0.3-0.1,0.6-0.2,1-0.4c1.8-0.7,4.4-1.6,6.1-1.7c1,0,2.3-0.4,3.4-0.8c0.5-0.5,0.9-1.1,1.3-1.7
				c-1.4,0.3-2.9,0.4-4.5,0.5c-0.8,0-1.6,0.1-2.5,0.2c-2.1,0.2-5,1.5-6.7,2.3c-0.5,0.2-0.8,0.4-1,0.5c-1.1,0.4-7.2,2.5-7.4,2.6
				l-0.1-0.4c0.1,0,6.3-2.1,7.4-2.6c0.2-0.1,0.6-0.3,1-0.5c1.7-0.8,4.6-2.2,6.8-2.4c0.9-0.1,1.7-0.1,2.5-0.2
				c1.7-0.1,3.3-0.2,4.8-0.6c0.1-0.2,0.2-0.5,0.3-0.7c-0.7,0.1-1.4,0.2-2.1,0.3c-1.3,0.1-2.2,0.1-2.7-0.2c-0.2-0.1-0.3-0.2-0.4-0.4
				c0-0.2,0-0.6,0.8-0.9c0.7-0.3,3.1-1.1,4.8-1.6c0-0.3,0-0.6-0.1-0.9c-2.8,0.9-9.3,3-12,4.1c-3.6,1.5-10.7,1.8-11.1,1.8l0-0.4
				C35.9,142.7,43.2,142.4,46.7,140.9z"/>
			<path class="st15" d="M46.7,140.9c-3.5,1.4-10.8,1.7-10.9,1.7l0,0.4c0.3,0,7.5-0.3,11.1-1.8c2.8-1.1,9.2-3.2,12-4.1
				c0-0.1,0-0.3-0.1-0.4C56,137.7,49.5,139.8,46.7,140.9z"/>
			<path class="st15" d="M51,142.3c-2.2,0.2-5.1,1.6-6.8,2.4c-0.4,0.2-0.8,0.4-1,0.5c-1.1,0.4-7.3,2.6-7.4,2.6l0.1,0.4
				c0.3-0.1,6.3-2.1,7.4-2.6c0.2-0.1,0.6-0.3,1-0.5c1.7-0.8,4.5-2.2,6.7-2.3c0.9-0.1,1.7-0.1,2.5-0.2c1.6-0.1,3.1-0.2,4.5-0.5
				c0-0.1,0.1-0.2,0.1-0.3c0-0.1,0.1-0.2,0.1-0.3c-1.5,0.4-3,0.5-4.8,0.6C52.8,142.2,51.9,142.3,51,142.3z"/>
			<path class="st15" d="M54.2,139.7c-0.8,0.3-0.9,0.7-0.8,0.9c0,0.2,0.2,0.3,0.4,0.4c0.5,0.2,1.4,0.3,2.7,0.2
				c0.7-0.1,1.5-0.2,2.1-0.3c0.1-0.2,0.1-0.3,0.1-0.5c-0.7,0.1-1.5,0.3-2.3,0.4c-1.9,0.2-2.6-0.1-2.6-0.3c0,0,0.1-0.2,0.6-0.4
				c0.9-0.4,3.1-1.1,4.6-1.6c0-0.2,0-0.3,0-0.4C57.3,138.6,54.9,139.4,54.2,139.7z"/>
			<path class="st15" d="M42.8,138c-4.1,0.5-8.7,1.8-8.7,1.8l0.1,0.4c0,0,4.6-1.3,8.6-1.8c4.2-0.5,11.2-2.6,12.3-3
				c0.6-0.2,1.7-0.6,2.7-1c-0.1-0.1-0.2-0.2-0.2-0.4c-1,0.4-2,0.8-2.6,0.9C53.9,135.5,47,137.5,42.8,138z"/>
			<path class="st15" d="M48.5,132.4c-3.5,0.9-4.7,1.3-4.7,1.9c0,0.2,0.1,0.3,0.3,0.4c0.1,0.1,0.3,0.1,0.5,0.2
				c0.6,0.1,4.8-0.3,6.3-0.7c1.1-0.3,3.6-1.4,4.9-1.9c-0.1-0.1-0.3-0.2-0.4-0.3c-1.4,0.6-3.6,1.5-4.6,1.8c-1.5,0.5-5.6,0.8-6.1,0.7
				c-0.3-0.1-0.4-0.1-0.5-0.2c0.3-0.4,2.9-1.1,4.3-1.5c1.8-0.5,3.5-1.2,4.7-1.8c-0.2-0.1-0.5-0.1-0.7-0.1
				C51.5,131.4,50,132,48.5,132.4z"/>
			<path class="st15" d="M41.2,135.1c-0.8,0.8-2.1,1.4-3.9,1.9c-1.7,0.5-6.9,1.5-6.9,1.5l0.1,0.4c0.1,0,5.2-1,7-1.5
				c1.9-0.5,3.2-1.1,4.1-1.9c0.4-0.3,0.8-1,1.2-1.6c0.2-0.3,0.4-0.5,0.6-0.8l-0.7,0.2c-0.1,0.1-0.2,0.2-0.2,0.4
				C42,134.2,41.6,134.8,41.2,135.1z"/>
			<path class="st15" d="M53.3,144.7c-1.7,0-4.4,1-6.1,1.7c-0.4,0.1-0.7,0.3-1,0.4c-1.6,0.6-13.7,4.5-13.8,4.5l0.1,0.4
				c0.1,0,12.2-3.9,13.8-4.5c0.3-0.1,0.6-0.2,1-0.4c1.7-0.6,4.4-1.6,6-1.7c0.7,0,1.7-0.2,2.6-0.5c0.3-0.2,0.6-0.5,0.9-0.7
				C55.6,144.3,54.3,144.6,53.3,144.7z"/>
		</g>
		<g>
			<circle class="st15" cx="29.5" cy="145.4" r="7.7"/>
		</g>
		<g>
			<circle class="st16" cx="29.5" cy="145.4" r="6.4"/>
		</g>
		<g>
			<circle class="st17" cx="29.5" cy="145.4" r="3"/>
		</g>
		<g>
			<path class="st17" d="M29.5,150.2c-2.6,0-4.8-2.2-4.8-4.8s2.2-4.8,4.8-4.8s4.8,2.2,4.8,4.8S32.2,150.2,29.5,150.2z M29.5,140.9
				c-2.5,0-4.5,2-4.5,4.5c0,2.5,2,4.5,4.5,4.5s4.5-2,4.5-4.5C34.1,142.9,32,140.9,29.5,140.9z"/>
		</g>
		<g>
			<path class="st17" d="M29.5,149.4c-2.2,0-3.9-1.8-3.9-3.9c0-2.2,1.8-3.9,3.9-3.9c2.2,0,3.9,1.8,3.9,3.9
				C33.5,147.6,31.7,149.4,29.5,149.4z M29.5,141.8c-2,0-3.7,1.6-3.7,3.7c0,2,1.6,3.7,3.7,3.7c2,0,3.7-1.6,3.7-3.7
				C33.2,143.4,31.6,141.8,29.5,141.8z"/>
		</g>
		<g>
			<path class="st17" d="M29.5,151c-3.1,0-5.6-2.5-5.6-5.6c0-3.1,2.5-5.6,5.6-5.6s5.6,2.5,5.6,5.6C35.2,148.5,32.6,151,29.5,151z
				 M29.5,140.1c-2.9,0-5.3,2.4-5.3,5.3c0,2.9,2.4,5.3,5.3,5.3c2.9,0,5.3-2.4,5.3-5.3C34.9,142.5,32.5,140.1,29.5,140.1z"/>
		</g>
	</g>
	<g>
		<g>
			<path class="st18" d="M57.5,119.9c-1.4,0.4-4.1,1-4.4,1.4c0,0,0.2,0.1,0.5,0.2c0.5,0.1,4.6-0.2,6.1-0.6c1-0.3,3.3-1.2,4.6-1.7
				c-0.2-0.1-0.4-0.3-0.6-0.4c-0.5-0.2-1-0.4-1.4-0.6C61,118.8,59.3,119.5,57.5,119.9z"/>
			<path class="st18" d="M63.1,127.3c-0.5,0.2-0.6,0.4-0.6,0.4c0,0.1,0.7,0.5,2.6,0.3c0.8-0.1,1.6-0.2,2.3-0.3
				c0.2-0.6,0.3-1.3,0.3-1.9C66.2,126.3,64,127,63.1,127.3z"/>
			<path class="st18" d="M55.4,128c2.8-1.1,9.4-3.1,12.2-3.9c-0.2-0.8-0.5-1.6-0.9-2.3c-1,0.4-2.1,0.8-2.7,0.9
				c-1.2,0.4-8.2,2.3-12.4,2.7c-4,0.4-8.6,1.6-8.7,1.6l-0.1-0.4c0,0,4.7-1.2,8.7-1.7c4.1-0.4,11.1-2.3,12.3-2.7
				c0.6-0.2,1.6-0.5,2.6-0.9c-0.5-0.7-1.1-1.4-1.8-1.9c-1.3,0.5-3.8,1.5-4.9,1.8c-1.5,0.4-5.7,0.8-6.3,0.6c-0.2,0-0.3-0.1-0.5-0.2
				c-0.2-0.1-0.3-0.2-0.3-0.4c0-0.5,1.2-0.9,4.7-1.8c1.5-0.4,3-1,4.1-1.4c-1.4-0.3-2.8-0.1-4.1,0.4l0,0l-5.2,1.6
				c-0.2,0.3-0.4,0.5-0.6,0.8c-0.5,0.7-0.9,1.3-1.3,1.6c-0.9,0.8-2.3,1.4-4.1,1.9c-1.8,0.4-6.9,1.4-7,1.4l-0.1-0.4
				c0.1,0,5.2-0.9,6.9-1.4c1.8-0.5,3.1-1,4-1.8c0.3-0.3,0.8-0.9,1.2-1.5c0.1-0.1,0.2-0.2,0.3-0.4l-16.3,4.9l5.1,14.5l21.8-6.5l0,0
				c0.9-0.2,1.7-0.6,2.4-1.2c-0.9,0.2-1.8,0.4-2.6,0.4c-1.6,0-4.3,0.9-6,1.5c-0.4,0.1-0.7,0.2-1,0.3c-1.6,0.5-13.8,4.2-13.9,4.3
				L41,138c0.1,0,12.3-3.7,13.9-4.3c0.3-0.1,0.6-0.2,1-0.3c1.8-0.6,4.5-1.6,6.2-1.6c1,0,2.3-0.4,3.4-0.7c0.5-0.5,1-1.1,1.3-1.7
				c-1.4,0.3-2.9,0.3-4.5,0.4c-0.8,0-1.6,0.1-2.5,0.1c-2.1,0.1-5,1.4-6.7,2.2c-0.5,0.2-0.8,0.4-1.1,0.5c-1.1,0.4-7.2,2.4-7.5,2.4
				l-0.1-0.4c0.1,0,6.4-2,7.4-2.4c0.2-0.1,0.6-0.3,1-0.5c1.7-0.8,4.7-2.1,6.9-2.3c0.9-0.1,1.7-0.1,2.5-0.1c1.7-0.1,3.3-0.1,4.8-0.5
				c0.1-0.2,0.2-0.5,0.3-0.7c-0.7,0.1-1.4,0.2-2.1,0.3c-1.3,0.1-2.2,0-2.7-0.2c-0.2-0.1-0.3-0.2-0.4-0.4c0-0.2,0-0.6,0.8-0.9
				c0.7-0.3,3.1-1.1,4.8-1.6c0-0.3,0-0.6-0.1-0.9c-2.8,0.8-9.3,2.8-12.1,3.9c-3.6,1.4-10.8,1.6-11.1,1.6l0-0.4
				C44.6,129.6,51.9,129.4,55.4,128z"/>
			<path class="st19" d="M55.4,128c-3.5,1.4-10.9,1.5-10.9,1.5l0,0.4c0.3,0,7.5-0.2,11.1-1.6c2.8-1.1,9.3-3.1,12.1-3.9
				c0-0.1,0-0.3-0.1-0.4C64.8,124.9,58.2,126.9,55.4,128z"/>
			<path class="st19" d="M59.8,129.5c-2.2,0.1-5.1,1.5-6.9,2.3c-0.5,0.2-0.8,0.4-1,0.5c-1.1,0.4-7.4,2.4-7.4,2.4l0.1,0.4
				c0.3-0.1,6.4-2,7.5-2.4c0.2-0.1,0.6-0.3,1.1-0.5c1.7-0.8,4.6-2.1,6.7-2.2c0.9-0.1,1.7-0.1,2.5-0.1c1.6-0.1,3.1-0.1,4.5-0.4
				c0-0.1,0.1-0.2,0.2-0.3c0-0.1,0.1-0.2,0.1-0.3c-1.5,0.4-3,0.4-4.8,0.5C61.5,129.4,60.6,129.4,59.8,129.5z"/>
			<path class="st19" d="M63,126.9c-0.8,0.3-0.9,0.7-0.8,0.9c0,0.2,0.2,0.3,0.4,0.4c0.5,0.3,1.4,0.3,2.7,0.2
				c0.7-0.1,1.5-0.2,2.1-0.3c0.1-0.2,0.1-0.3,0.2-0.5c-0.7,0.1-1.5,0.2-2.3,0.3c-1.9,0.2-2.6-0.2-2.6-0.3c0,0,0.1-0.2,0.6-0.4
				c0.9-0.4,3.1-1,4.7-1.5c0-0.2,0-0.3,0-0.4C66.1,125.9,63.7,126.7,63,126.9z"/>
			<path class="st19" d="M51.6,125c-4.1,0.4-8.7,1.6-8.7,1.7l0.1,0.4c0,0,4.6-1.2,8.7-1.6c4.2-0.4,11.2-2.4,12.4-2.7
				c0.6-0.2,1.7-0.6,2.7-0.9c-0.1-0.1-0.1-0.3-0.2-0.4c-1,0.4-2,0.7-2.6,0.9C62.8,122.7,55.8,124.6,51.6,125z"/>
			<path class="st19" d="M57.4,119.5c-3.5,0.9-4.7,1.3-4.7,1.8c0,0.2,0.1,0.3,0.3,0.4c0.1,0.1,0.3,0.1,0.5,0.2
				c0.6,0.2,4.8-0.2,6.3-0.6c1.1-0.3,3.6-1.3,4.9-1.8c-0.1-0.1-0.3-0.2-0.4-0.3c-1.4,0.5-3.6,1.4-4.6,1.7c-1.5,0.4-5.6,0.7-6.1,0.6
				c-0.3-0.1-0.4-0.1-0.5-0.2c0.3-0.4,2.9-1,4.4-1.4c1.8-0.4,3.6-1.2,4.7-1.7c-0.2-0.1-0.5-0.1-0.7-0.2
				C60.4,118.6,58.9,119.2,57.4,119.5z"/>
			<path class="st19" d="M50.1,122.1c-0.9,0.7-2.2,1.3-4,1.8c-1.7,0.4-6.9,1.3-6.9,1.4l0.1,0.4c0.1,0,5.2-0.9,7-1.4
				c1.9-0.5,3.2-1.1,4.1-1.9c0.4-0.3,0.8-1,1.3-1.6c0.2-0.3,0.4-0.5,0.6-0.8l-0.7,0.2c-0.1,0.1-0.2,0.2-0.3,0.4
				C50.8,121.2,50.4,121.8,50.1,122.1z"/>
			<path class="st19" d="M62,131.9c-1.7,0-4.4,0.9-6.2,1.6c-0.4,0.1-0.7,0.2-1,0.3c-1.6,0.5-13.8,4.2-13.9,4.3l0.1,0.4
				c0.1,0,12.3-3.7,13.9-4.3c0.3-0.1,0.6-0.2,1-0.3c1.8-0.6,4.4-1.5,6-1.5c0.7,0,1.7-0.2,2.6-0.4c0.3-0.2,0.6-0.4,0.9-0.7
				C64.3,131.5,63,131.9,62,131.9z"/>
		</g>
		<g>
			<circle class="st19" cx="38.1" cy="132.2" r="7.7"/>
		</g>
		<g>
			<circle class="st16" cx="38.1" cy="132.2" r="6.4"/>
		</g>
		<g>
			<circle class="st17" cx="38.1" cy="132.2" r="3"/>
		</g>
		<g>
			<path class="st17" d="M38.1,137c-2.6,0-4.8-2.2-4.8-4.8c0-2.6,2.2-4.8,4.8-4.8s4.8,2.2,4.8,4.8C42.9,134.9,40.7,137,38.1,137z
				 M38.1,127.7c-2.5,0-4.5,2-4.5,4.5c0,2.5,2,4.5,4.5,4.5s4.5-2,4.5-4.5C42.6,129.7,40.5,127.7,38.1,127.7z"/>
		</g>
		<g>
			<path class="st17" d="M38.1,136.2c-2.2,0-3.9-1.8-3.9-3.9c0-2.2,1.8-3.9,3.9-3.9c2.2,0,3.9,1.8,3.9,3.9
				C42,134.4,40.2,136.2,38.1,136.2z M38.1,128.6c-2,0-3.7,1.6-3.7,3.7c0,2,1.6,3.7,3.7,3.7c2,0,3.7-1.6,3.7-3.7
				C41.7,130.2,40.1,128.6,38.1,128.6z"/>
		</g>
		<g>
			<path class="st17" d="M38.1,137.8c-3.1,0-5.6-2.5-5.6-5.6c0-3.1,2.5-5.6,5.6-5.6c3.1,0,5.6,2.5,5.6,5.6
				C43.7,135.3,41.2,137.8,38.1,137.8z M38.1,126.9c-2.9,0-5.3,2.4-5.3,5.3c0,2.9,2.4,5.3,5.3,5.3c2.9,0,5.3-2.4,5.3-5.3
				C43.4,129.3,41,126.9,38.1,126.9z"/>
		</g>
	</g>
	<g>
		<g>
			<path class="st6" d="M65.9,132.8c-1.4,0.4-4.1,1.1-4.3,1.5c0,0,0.2,0.1,0.5,0.2c0.5,0.1,4.6-0.3,6.1-0.7c1-0.3,3.2-1.2,4.6-1.8
				c-0.2-0.1-0.4-0.2-0.6-0.4c-0.5-0.2-1-0.4-1.4-0.5C69.4,131.6,67.7,132.3,65.9,132.8z"/>
			<path class="st6" d="M71.7,140.1c-0.5,0.2-0.6,0.4-0.6,0.4c0,0.1,0.7,0.5,2.6,0.3c0.8-0.1,1.6-0.2,2.3-0.4
				c0.2-0.6,0.2-1.3,0.2-1.9C74.7,139,72.6,139.7,71.7,140.1z"/>
			<path class="st6" d="M64,140.9c2.8-1.1,9.3-3.3,12.1-4.2c-0.2-0.8-0.5-1.6-0.9-2.3c-1,0.4-2.1,0.8-2.7,1c-1.2,0.4-8.2,2.5-12.3,3
				c-4,0.5-8.6,1.8-8.6,1.8l-0.1-0.4c0,0,4.7-1.3,8.7-1.8c4.1-0.5,11.1-2.6,12.2-3c0.6-0.2,1.6-0.6,2.6-1c-0.5-0.7-1.1-1.4-1.9-1.9
				c-1.3,0.5-3.8,1.6-4.9,1.9c-1.5,0.5-5.7,0.9-6.3,0.7c-0.2,0-0.3-0.1-0.5-0.2c-0.2-0.1-0.3-0.2-0.3-0.4c0-0.5,1.2-1,4.7-1.9
				c1.5-0.4,3-1,4.1-1.5c-1.4-0.2-2.8-0.1-4.1,0.4l0,0l-5.2,1.7c-0.2,0.3-0.4,0.5-0.6,0.8c-0.4,0.7-0.9,1.3-1.2,1.6
				c-0.9,0.8-2.2,1.4-4.1,2c-1.7,0.5-6.9,1.5-6.9,1.5l-0.1-0.4c0.1,0,5.2-1,6.9-1.5c1.8-0.5,3.1-1.1,3.9-1.9
				c0.3-0.3,0.7-0.9,1.2-1.6c0.1-0.1,0.2-0.2,0.2-0.4l-16.2,5.2l5.3,14.4l21.7-7l0,0c0.9-0.3,1.7-0.7,2.4-1.2
				c-0.9,0.3-1.8,0.5-2.6,0.5c-1.6,0-4.3,1-6,1.7c-0.4,0.1-0.7,0.3-1,0.4c-1.6,0.6-13.7,4.5-13.8,4.5l-0.1-0.4
				c0.1,0,12.2-4,13.8-4.5c0.3-0.1,0.6-0.2,1-0.4c1.8-0.7,4.4-1.7,6.1-1.7c1,0,2.3-0.4,3.4-0.8c0.5-0.5,0.9-1.1,1.3-1.7
				c-1.4,0.3-2.9,0.4-4.5,0.5c-0.8,0-1.6,0.1-2.5,0.2c-2.1,0.2-5,1.5-6.7,2.4c-0.5,0.2-0.8,0.4-1,0.5c-1.1,0.4-7.2,2.5-7.4,2.6
				l-0.1-0.4c0.1,0,6.3-2.1,7.4-2.6c0.2-0.1,0.6-0.3,1-0.5c1.7-0.8,4.6-2.2,6.8-2.4c0.9-0.1,1.7-0.1,2.5-0.2
				c1.7-0.1,3.3-0.2,4.8-0.6c0.1-0.2,0.2-0.5,0.3-0.7c-0.7,0.1-1.4,0.2-2.1,0.3c-1.3,0.1-2.2,0.1-2.7-0.2c-0.2-0.1-0.3-0.2-0.4-0.4
				c-0.1-0.2,0-0.6,0.8-0.9c0.7-0.3,3.1-1.1,4.8-1.6c0-0.3-0.1-0.6-0.1-0.9c-2.8,0.9-9.3,3-12,4.1c-3.6,1.5-10.7,1.8-11,1.8l0-0.4
				C53.2,142.7,60.5,142.4,64,140.9z"/>
			<path class="st15" d="M64,140.9c-3.5,1.4-10.8,1.8-10.9,1.8l0,0.4c0.3,0,7.5-0.3,11-1.8c2.8-1.1,9.2-3.2,12-4.1
				c0-0.1,0-0.3-0.1-0.4C73.3,137.6,66.8,139.8,64,140.9z"/>
			<path class="st15" d="M68.4,142.3c-2.2,0.2-5.1,1.6-6.8,2.4c-0.4,0.2-0.8,0.4-1,0.5c-1.1,0.4-7.3,2.6-7.4,2.6l0.1,0.4
				c0.3-0.1,6.3-2.1,7.4-2.6c0.2-0.1,0.6-0.3,1-0.5c1.7-0.8,4.5-2.2,6.7-2.4c0.9-0.1,1.7-0.1,2.5-0.2c1.6-0.1,3.1-0.2,4.5-0.5
				c0-0.1,0.1-0.2,0.1-0.3c0-0.1,0.1-0.2,0.1-0.3c-1.5,0.4-3,0.5-4.8,0.6C70.1,142.2,69.2,142.3,68.4,142.3z"/>
			<path class="st15" d="M71.5,139.7c-0.8,0.3-0.9,0.7-0.8,0.9c0,0.2,0.2,0.3,0.4,0.4c0.5,0.2,1.4,0.3,2.7,0.2
				c0.7-0.1,1.5-0.2,2.1-0.3c0.1-0.2,0.1-0.3,0.1-0.5c-0.7,0.1-1.5,0.3-2.3,0.4c-1.9,0.2-2.6-0.1-2.6-0.3c0,0,0.1-0.2,0.6-0.4
				c0.9-0.4,3-1.1,4.6-1.6c0-0.1,0-0.3,0-0.4C74.6,138.6,72.3,139.4,71.5,139.7z"/>
			<path class="st15" d="M60.1,138c-4.1,0.5-8.7,1.8-8.7,1.8l0.1,0.4c0,0,4.6-1.3,8.6-1.8c4.2-0.5,11.1-2.6,12.3-3
				c0.6-0.2,1.7-0.6,2.7-1c-0.1-0.1-0.2-0.2-0.2-0.4c-1,0.4-2,0.8-2.6,1C71.2,135.5,64.3,137.5,60.1,138z"/>
			<path class="st15" d="M65.8,132.4c-3.4,0.9-4.7,1.3-4.7,1.9c0,0.2,0.1,0.3,0.3,0.4c0.1,0.1,0.3,0.1,0.5,0.2
				c0.6,0.1,4.8-0.3,6.3-0.7c1.1-0.3,3.6-1.4,4.9-1.9c-0.1-0.1-0.3-0.2-0.4-0.3c-1.4,0.6-3.6,1.5-4.6,1.8c-1.5,0.5-5.6,0.9-6.1,0.7
				c-0.3-0.1-0.4-0.1-0.5-0.2c0.3-0.4,2.9-1.1,4.3-1.5c1.8-0.5,3.5-1.2,4.7-1.8c-0.2-0.1-0.5-0.1-0.7-0.1
				C68.8,131.4,67.3,132,65.8,132.4z"/>
			<path class="st15" d="M58.5,135.1c-0.8,0.8-2.1,1.4-3.9,1.9c-1.7,0.5-6.9,1.5-6.9,1.5l0.1,0.4c0.1,0,5.2-1,6.9-1.5
				c1.9-0.5,3.2-1.2,4.1-2c0.4-0.3,0.8-1,1.2-1.6c0.2-0.3,0.4-0.5,0.6-0.8l-0.7,0.2c-0.1,0.1-0.2,0.2-0.2,0.4
				C59.3,134.2,58.9,134.8,58.5,135.1z"/>
			<path class="st15" d="M70.6,144.6c-1.7,0-4.4,1-6.1,1.7c-0.4,0.1-0.7,0.3-1,0.4c-1.6,0.6-13.7,4.5-13.8,4.5l0.1,0.4
				c0.1,0,12.2-4,13.8-4.5c0.3-0.1,0.6-0.2,1-0.4c1.7-0.6,4.4-1.6,6-1.7c0.7,0,1.7-0.2,2.6-0.5c0.3-0.2,0.6-0.5,0.9-0.7
				C73,144.2,71.6,144.6,70.6,144.6z"/>
		</g>
		<g>
			<circle class="st15" cx="46.7" cy="145.4" r="7.7"/>
		</g>
		<g>
			<circle class="st16" cx="46.7" cy="145.4" r="6.4"/>
		</g>
		<g>
			<circle class="st17" cx="46.7" cy="145.4" r="3"/>
		</g>
		<g>
			<path class="st17" d="M46.7,150.2c-2.6,0-4.8-2.2-4.8-4.8s2.2-4.8,4.8-4.8s4.8,2.2,4.8,4.8S49.3,150.2,46.7,150.2z M46.7,140.9
				c-2.5,0-4.5,2-4.5,4.5c0,2.5,2,4.5,4.5,4.5s4.5-2,4.5-4.5C51.2,142.9,49.1,140.9,46.7,140.9z"/>
		</g>
		<g>
			<path class="st17" d="M46.7,149.4c-2.2,0-3.9-1.8-3.9-3.9c0-2.2,1.8-3.9,3.9-3.9c2.2,0,3.9,1.8,3.9,3.9
				C50.6,147.6,48.8,149.4,46.7,149.4z M46.7,141.8c-2,0-3.7,1.6-3.7,3.7c0,2,1.6,3.7,3.7,3.7s3.7-1.6,3.7-3.7
				C50.3,143.4,48.7,141.8,46.7,141.8z"/>
		</g>
		<g>
			<path class="st17" d="M46.7,151c-3.1,0-5.6-2.5-5.6-5.6c0-3.1,2.5-5.6,5.6-5.6s5.6,2.5,5.6,5.6C52.3,148.5,49.8,151,46.7,151z
				 M46.7,140.1c-2.9,0-5.3,2.4-5.3,5.3c0,2.9,2.4,5.3,5.3,5.3s5.3-2.4,5.3-5.3C52,142.5,49.6,140.1,46.7,140.1z"/>
		</g>
	</g>
</g>
<g>
	<circle class="st20" cx="115.1" cy="20.4" r="7.4"/>
	<circle class="st20" cx="23.7" cy="108.6" r="10.3"/>
</g>
<g>
	<g>
		<path class="st21" d="M85.1,21.7C85.1,21.7,85.1,21.7,85.1,21.7c-1.1,0-2.1-0.3-3.1-0.7c-0.3-0.1-0.4-0.4-0.2-0.7
			c0.1-0.3,0.4-0.4,0.7-0.2c0.9,0.4,1.8,0.6,2.7,0.6c0.3,0,0.5,0.2,0.5,0.5C85.6,21.4,85.4,21.7,85.1,21.7z M88.1,21.2
			c-0.2,0-0.4-0.1-0.5-0.3c-0.1-0.3,0-0.5,0.3-0.6c0.9-0.3,1.7-0.8,2.3-1.5c0.2-0.2,0.5-0.2,0.7,0c0.2,0.2,0.2,0.5,0,0.7
			c-0.8,0.8-1.7,1.3-2.7,1.7C88.2,21.1,88.1,21.2,88.1,21.2z M79.8,19.2c-0.1,0-0.3-0.1-0.4-0.2c-0.7-0.8-1.3-1.7-1.6-2.7
			c-0.1-0.3,0-0.5,0.3-0.6c0.3-0.1,0.5,0,0.6,0.3c0.3,0.9,0.8,1.7,1.4,2.4c0.2,0.2,0.2,0.5,0,0.7C80.1,19.2,80,19.2,79.8,19.2z
			 M92.3,17.1c-0.1,0-0.1,0-0.2,0c-0.3-0.1-0.4-0.4-0.3-0.7c0.4-0.9,0.6-1.8,0.6-2.7c0-0.3,0.2-0.5,0.5-0.5c0.3,0,0.5,0.2,0.5,0.5
			c0,1.1-0.2,2.1-0.6,3.1C92.6,17,92.5,17.1,92.3,17.1z M77.9,13.7C77.9,13.7,77.8,13.7,77.9,13.7c-0.3,0-0.5-0.3-0.5-0.5
			c0.1-1.1,0.3-2.1,0.8-3.1c0.1-0.2,0.4-0.3,0.7-0.2c0.2,0.1,0.4,0.4,0.2,0.7c-0.4,0.8-0.7,1.7-0.7,2.7
			C78.3,13.5,78.1,13.7,77.9,13.7z M92.5,12c-0.2,0-0.4-0.1-0.5-0.4c-0.3-0.9-0.7-1.7-1.3-2.5c-0.2-0.2-0.1-0.5,0.1-0.7
			c0.2-0.2,0.5-0.1,0.7,0.1c0.7,0.8,1.2,1.8,1.5,2.8c0.1,0.3-0.1,0.5-0.3,0.6C92.6,12,92.6,12,92.5,12z M80.4,8.5
			c-0.1,0-0.3-0.1-0.4-0.2c-0.2-0.2-0.2-0.5,0-0.7c0.8-0.7,1.7-1.2,2.8-1.6c0.3-0.1,0.5,0.1,0.6,0.3c0.1,0.3-0.1,0.5-0.3,0.6
			c-0.9,0.3-1.7,0.8-2.4,1.4C80.7,8.5,80.5,8.5,80.4,8.5z M88.8,7.5c-0.1,0-0.2,0-0.2-0.1c-0.8-0.4-1.7-0.7-2.7-0.8
			c-0.3,0-0.5-0.3-0.5-0.5c0-0.3,0.3-0.5,0.5-0.5c1.1,0.1,2.1,0.4,3.1,0.9c0.2,0.1,0.3,0.4,0.2,0.7C89.2,7.4,89,7.5,88.8,7.5z"/>
	</g>
	<g>
		<path class="st21" d="M199,92.2c-0.2,0-0.5-0.2-0.5-0.4c0-0.3,0.2-0.5,0.4-0.6c0.9-0.1,1.9-0.4,2.7-0.8c0.3-0.1,0.5,0,0.7,0.2
			c0.1,0.3,0,0.5-0.2,0.7C201.2,91.8,200.1,92.1,199,92.2C199.1,92.2,199.1,92.2,199,92.2z M196,92.2C196,92.2,196,92.2,196,92.2
			c-1.1-0.2-2.1-0.5-3.1-0.9c-0.3-0.1-0.4-0.4-0.2-0.7c0.1-0.3,0.4-0.4,0.7-0.2c0.9,0.4,1.8,0.7,2.7,0.8c0.3,0,0.5,0.3,0.4,0.6
			C196.5,92.1,196.3,92.2,196,92.2z M204.4,89.8c-0.1,0-0.3-0.1-0.4-0.2c-0.2-0.2-0.2-0.5,0.1-0.7c0.7-0.6,1.3-1.3,1.9-2.2
			c0.1-0.2,0.5-0.3,0.7-0.2c0.2,0.1,0.3,0.5,0.2,0.7c-0.6,0.9-1.3,1.7-2.1,2.4C204.7,89.8,204.5,89.8,204.4,89.8z M190.7,89.8
			c-0.1,0-0.2,0-0.3-0.1c-0.8-0.7-1.5-1.5-2-2.4c-0.1-0.2-0.1-0.5,0.2-0.7c0.2-0.1,0.5-0.1,0.7,0.2c0.5,0.8,1.1,1.5,1.9,2.2
			c0.2,0.2,0.2,0.5,0,0.7C190.9,89.7,190.8,89.8,190.7,89.8z M207.6,84.8c0,0-0.1,0-0.1,0c-0.3-0.1-0.4-0.4-0.3-0.6
			c0.3-0.9,0.4-1.9,0.4-2.8c0-0.3,0.2-0.5,0.5-0.5c0.3,0,0.5,0.2,0.5,0.5c0,1.1-0.1,2.1-0.4,3.1C208,84.7,207.8,84.8,207.6,84.8z
			 M187.5,84.8c-0.2,0-0.4-0.1-0.5-0.4c-0.3-1-0.4-2-0.4-3.1l1,0c0,1,0.1,1.9,0.4,2.8c0.1,0.3-0.1,0.5-0.3,0.6
			C187.6,84.8,187.5,84.8,187.5,84.8z M207.6,78.9c-0.2,0-0.4-0.1-0.5-0.4c-0.3-0.9-0.7-1.8-1.2-2.6c-0.1-0.2-0.1-0.5,0.2-0.7
			c0.2-0.1,0.5-0.1,0.7,0.2c0.6,0.9,1,1.8,1.3,2.9c0.1,0.3-0.1,0.5-0.3,0.6C207.7,78.9,207.7,78.9,207.6,78.9z M187.5,78.9
			c0,0-0.1,0-0.1,0c-0.3-0.1-0.4-0.4-0.3-0.6c0.3-1,0.7-2,1.3-2.8c0.2-0.2,0.5-0.3,0.7-0.1c0.2,0.1,0.3,0.5,0.1,0.7
			c-0.5,0.8-0.9,1.7-1.2,2.6C187.9,78.7,187.7,78.9,187.5,78.9z M204.4,73.9c-0.1,0-0.2,0-0.3-0.1c-0.7-0.6-1.5-1.1-2.4-1.5
			c-0.3-0.1-0.4-0.4-0.2-0.7c0.1-0.3,0.4-0.4,0.7-0.2c1,0.4,1.8,1,2.6,1.7c0.2,0.2,0.2,0.5,0,0.7C204.7,73.9,204.6,73.9,204.4,73.9z
			 M190.7,73.9c-0.1,0-0.3-0.1-0.4-0.2c-0.2-0.2-0.2-0.5,0.1-0.7c0.8-0.7,1.7-1.3,2.6-1.7c0.3-0.1,0.5,0,0.7,0.2
			c0.1,0.3,0,0.5-0.2,0.7c-0.9,0.4-1.7,0.9-2.4,1.5C190.9,73.9,190.8,73.9,190.7,73.9z M199.1,71.5C199,71.5,199,71.5,199.1,71.5
			c-1-0.1-2-0.1-2.9,0c-0.3,0-0.5-0.2-0.6-0.4c0-0.3,0.2-0.5,0.4-0.6c1-0.1,2.1-0.1,3.1,0c0.3,0,0.5,0.3,0.4,0.6
			C199.5,71.3,199.3,71.5,199.1,71.5z"/>
	</g>
	<g>
		<path class="st21" d="M85.2,43.1h-3c-0.3,0-0.5-0.2-0.5-0.5c0-0.3,0.2-0.5,0.5-0.5l2,0c0-0.3,0.2-0.5,0.5-0.5
			c0.3,0,0.5,0.2,0.5,0.5V43.1z M79.3,43.1h-3c-0.3,0-0.5-0.2-0.5-0.5c0-0.3,0.2-0.5,0.5-0.5h3c0.3,0,0.5,0.2,0.5,0.5
			C79.8,42.9,79.6,43.1,79.3,43.1z M73.3,43.1h-3c-0.3,0-0.5-0.2-0.5-0.5c0-0.3,0.2-0.5,0.5-0.5h3c0.3,0,0.5,0.2,0.5,0.5
			C73.8,42.9,73.6,43.1,73.3,43.1z M84.7,39.6c-0.3,0-0.5-0.2-0.5-0.5v-3c0-0.3,0.2-0.5,0.5-0.5c0.3,0,0.5,0.2,0.5,0.5v3
			C85.2,39.3,85,39.6,84.7,39.6z M84.7,33.6c-0.3,0-0.5-0.2-0.5-0.5v-3c0-0.3,0.2-0.5,0.5-0.5c0.3,0,0.5,0.2,0.5,0.5v3
			C85.2,33.3,85,33.6,84.7,33.6z M84.7,27.6c-0.3,0-0.5-0.2-0.5-0.5v-3c0-0.3,0.2-0.5,0.5-0.5c0.3,0,0.5,0.2,0.5,0.5v3
			C85.2,27.3,85,27.6,84.7,27.6z"/>
	</g>
	<g>
		<path class="st21" d="M57.2,111.5h-3c-0.3,0-0.5-0.2-0.5-0.5c0-0.3,0.2-0.5,0.5-0.5h3c0.3,0,0.5,0.2,0.5,0.5
			C57.7,111.3,57.5,111.5,57.2,111.5z M51.2,111.5h-3c-0.3,0-0.5-0.2-0.5-0.5c0-0.3,0.2-0.5,0.5-0.5h3c0.3,0,0.5,0.2,0.5,0.5
			C51.7,111.3,51.5,111.5,51.2,111.5z M45.2,111.5h-3c-0.3,0-0.5-0.2-0.5-0.5c0-0.3,0.2-0.5,0.5-0.5h3c0.3,0,0.5,0.2,0.5,0.5
			C45.7,111.3,45.5,111.5,45.2,111.5z M39.2,111.5h-3c-0.3,0-0.5-0.2-0.5-0.5c0-0.3,0.2-0.5,0.5-0.5h3c0.3,0,0.5,0.2,0.5,0.5
			C39.7,111.3,39.5,111.5,39.2,111.5z M33.2,111.5h-3c-0.3,0-0.5-0.2-0.5-0.5c0-0.3,0.2-0.5,0.5-0.5h3c0.3,0,0.5,0.2,0.5,0.5
			C33.7,111.3,33.5,111.5,33.2,111.5z M27.2,111.5h-3c-0.3,0-0.5-0.2-0.5-0.5c0-0.3,0.2-0.5,0.5-0.5h3c0.3,0,0.5,0.2,0.5,0.5
			C27.7,111.3,27.5,111.5,27.2,111.5z M59.5,110.8c-0.3,0-0.5-0.2-0.5-0.5v-3c0-0.3,0.2-0.5,0.5-0.5c0.3,0,0.5,0.2,0.5,0.5v3
			C60,110.6,59.8,110.8,59.5,110.8z M21.9,110.8c-0.3,0-0.5-0.2-0.5-0.5v-3c0-0.3,0.2-0.5,0.5-0.5s0.5,0.2,0.5,0.5v3
			C22.4,110.6,22.2,110.8,21.9,110.8z M59.5,104.8c-0.3,0-0.5-0.2-0.5-0.5v-3c0-0.3,0.2-0.5,0.5-0.5c0.3,0,0.5,0.2,0.5,0.5v3
			C60,104.6,59.8,104.8,59.5,104.8z M21.9,104.8c-0.3,0-0.5-0.2-0.5-0.5v-3c0-0.3,0.2-0.5,0.5-0.5s0.5,0.2,0.5,0.5v3
			C22.4,104.6,22.2,104.8,21.9,104.8z M21.9,98.8c-0.3,0-0.5-0.2-0.5-0.5v-3c0-0.3,0.2-0.5,0.5-0.5s0.5,0.2,0.5,0.5v3
			C22.4,98.6,22.2,98.8,21.9,98.8z M21.9,92.8c-0.3,0-0.5-0.2-0.5-0.5v-3c0-0.3,0.2-0.5,0.5-0.5s0.5,0.2,0.5,0.5v3
			C22.4,92.6,22.2,92.8,21.9,92.8z M21.9,86.8c-0.3,0-0.5-0.2-0.5-0.5v-3c0-0.3,0.2-0.5,0.5-0.5s0.5,0.2,0.5,0.5v3
			C22.4,86.6,22.2,86.8,21.9,86.8z M21.9,80.8c-0.3,0-0.5-0.2-0.5-0.5v-3c0-0.3,0.2-0.5,0.5-0.5s0.5,0.2,0.5,0.5v3
			C22.4,80.6,22.2,80.8,21.9,80.8z M19.1,77.6h-3c-0.3,0-0.5-0.2-0.5-0.5c0-0.3,0.2-0.5,0.5-0.5h3c0.3,0,0.5,0.2,0.5,0.5
			C19.6,77.4,19.3,77.6,19.1,77.6z M13.1,77.6h-3c-0.3,0-0.5-0.2-0.5-0.5c0-0.3,0.2-0.5,0.5-0.5h3c0.3,0,0.5,0.2,0.5,0.5
			C13.6,77.4,13.3,77.6,13.1,77.6z"/>
	</g>
	<g>
		<path class="st21" d="M43.1,176.5h-3c-0.3,0-0.5-0.2-0.5-0.5c0-0.3,0.2-0.5,0.5-0.5h3c0.3,0,0.5,0.2,0.5,0.5
			C43.6,176.3,43.3,176.5,43.1,176.5z M37.1,176.5h-3c-0.3,0-0.5-0.2-0.5-0.5c0-0.3,0.2-0.5,0.5-0.5h3c0.3,0,0.5,0.2,0.5,0.5
			C37.6,176.3,37.3,176.5,37.1,176.5z M31.1,176.5h-3c-0.3,0-0.5-0.2-0.5-0.5c0-0.3,0.2-0.5,0.5-0.5h3c0.3,0,0.5,0.2,0.5,0.5
			C31.6,176.3,31.3,176.5,31.1,176.5z M25.1,176.5h-3c-0.3,0-0.5-0.2-0.5-0.5c0-0.3,0.2-0.5,0.5-0.5h3c0.3,0,0.5,0.2,0.5,0.5
			C25.6,176.3,25.3,176.5,25.1,176.5z M19.1,176.5h-3c-0.3,0-0.5-0.2-0.5-0.5c0-0.3,0.2-0.5,0.5-0.5h3c0.3,0,0.5,0.2,0.5,0.5
			C19.6,176.3,19.3,176.5,19.1,176.5z M13.1,176.5h-3c-0.3,0-0.5-0.2-0.5-0.5c0-0.3,0.2-0.5,0.5-0.5h3c0.3,0,0.5,0.2,0.5,0.5
			C13.6,176.3,13.3,176.5,13.1,176.5z M43.7,174.2c-0.3,0-0.5-0.2-0.5-0.5v-3c0-0.3,0.2-0.5,0.5-0.5c0.3,0,0.5,0.2,0.5,0.5v3
			C44.2,174,44,174.2,43.7,174.2z M43.7,168.2c-0.3,0-0.5-0.2-0.5-0.5v-3c0-0.3,0.2-0.5,0.5-0.5c0.3,0,0.5,0.2,0.5,0.5v3
			C44.2,168,44,168.2,43.7,168.2z M43.7,162.2c-0.3,0-0.5-0.2-0.5-0.5v-3c0-0.3,0.2-0.5,0.5-0.5c0.3,0,0.5,0.2,0.5,0.5v3
			C44.2,162,44,162.2,43.7,162.2z M43.7,156.2c-0.3,0-0.5-0.2-0.5-0.5V154c0-0.3,0.2-0.5,0.5-0.5c0.3,0,0.5,0.2,0.5,0.5v1.7
			C44.2,156,44,156.2,43.7,156.2z"/>
	</g>
	<g>
		<path class="st21" d="M59.4,99.1C59.4,99.1,59.4,99.1,59.4,99.1c-1.1-0.1-2.1-0.4-3.1-0.9c-0.2-0.1-0.3-0.4-0.2-0.7
			c0.1-0.2,0.4-0.3,0.7-0.2c0.8,0.5,1.7,0.7,2.7,0.8c0.3,0,0.5,0.3,0.5,0.5C59.9,98.9,59.6,99.1,59.4,99.1z M62.3,98.8
			c-0.2,0-0.4-0.1-0.5-0.3c-0.1-0.3,0.1-0.5,0.3-0.6c0.9-0.3,1.7-0.8,2.4-1.4c0.2-0.2,0.5-0.2,0.7,0c0.2,0.2,0.2,0.5,0,0.7
			c-0.8,0.7-1.7,1.3-2.7,1.6C62.5,98.8,62.4,98.8,62.3,98.8z M54.3,96.3c-0.1,0-0.3-0.1-0.4-0.2c-0.7-0.9-1.1-1.8-1.4-2.9
			c-0.1-0.3,0.1-0.5,0.4-0.6c0.3-0.1,0.5,0.1,0.6,0.4c0.2,0.9,0.6,1.8,1.2,2.5c0.2,0.2,0.1,0.5-0.1,0.7
			C54.5,96.3,54.4,96.3,54.3,96.3z M66.6,94.8c-0.1,0-0.1,0-0.2,0c-0.3-0.1-0.4-0.4-0.3-0.7c0.4-0.9,0.6-1.8,0.6-2.7
			c0-0.1,0-0.2,0.1-0.2c0-0.1-0.1-0.1-0.1-0.2c-0.1-0.9-0.3-1.8-0.7-2.7c-0.1-0.2,0-0.5,0.2-0.7c0.2-0.1,0.5,0,0.7,0.2
			c0.5,1,0.8,2,0.9,3.1c0,0.1,0,0.2-0.1,0.3c0,0.1,0.1,0.2,0.1,0.3c0,1.1-0.2,2.1-0.7,3.1C67,94.7,66.8,94.8,66.6,94.8z M52.9,90.7
			C52.9,90.7,52.8,90.7,52.9,90.7c-0.4-0.1-0.5-0.3-0.5-0.6c0.2-1.1,0.6-2.1,1.2-3c0.2-0.2,0.5-0.3,0.7-0.1c0.2,0.2,0.3,0.5,0.1,0.7
			c-0.5,0.8-0.9,1.6-1,2.6C53.3,90.5,53.1,90.7,52.9,90.7z M64.5,86.3c-0.1,0-0.2,0-0.3-0.1c-0.7-0.6-1.6-1-2.5-1.3
			c-0.3-0.1-0.4-0.3-0.4-0.6c0.1-0.3,0.3-0.4,0.6-0.4c1,0.3,2,0.8,2.8,1.4c0.2,0.2,0.2,0.5,0.1,0.7C64.8,86.2,64.7,86.3,64.5,86.3z
			 M56.1,85.8c-0.2,0-0.3-0.1-0.4-0.2c-0.1-0.2-0.1-0.5,0.2-0.7c0.9-0.6,1.9-1,3-1.1c0.3,0,0.5,0.1,0.6,0.4c0,0.3-0.1,0.5-0.4,0.6
			c-0.9,0.1-1.8,0.5-2.6,1C56.3,85.8,56.2,85.8,56.1,85.8z"/>
	</g>
	<g>
		<path class="st21" d="M210.4,180.9H209c-0.3,0-0.5-0.2-0.5-0.5c0-0.3,0.2-0.5,0.5-0.5h1.4c0.3,0,0.5,0.2,0.5,0.5
			C210.9,180.7,210.6,180.9,210.4,180.9z M206,180.9h-3c-0.3,0-0.5-0.2-0.5-0.5c0-0.3,0.2-0.5,0.5-0.5h3c0.3,0,0.5,0.2,0.5,0.5
			C206.5,180.7,206.2,180.9,206,180.9z M200,180.9h-3c-0.3,0-0.5-0.2-0.5-0.5c0-0.3,0.2-0.5,0.5-0.5h3c0.3,0,0.5,0.2,0.5,0.5
			C200.5,180.7,200.2,180.9,200,180.9z M194,180.9h-3c-0.3,0-0.5-0.2-0.5-0.5c0-0.3,0.2-0.5,0.5-0.5h3c0.3,0,0.5,0.2,0.5,0.5
			C194.5,180.7,194.2,180.9,194,180.9z M188,180.9h-3c-0.3,0-0.5-0.2-0.5-0.5c0-0.3,0.2-0.5,0.5-0.5h3c0.3,0,0.5,0.2,0.5,0.5
			C188.5,180.7,188.2,180.9,188,180.9z M182,180.9h-3c-0.3,0-0.5-0.2-0.5-0.5c0-0.3,0.2-0.5,0.5-0.5h3c0.3,0,0.5,0.2,0.5,0.5
			C182.5,180.7,182.2,180.9,182,180.9z M178.9,178.1c-0.3,0-0.5-0.2-0.5-0.5v-3c0-0.3,0.2-0.5,0.5-0.5c0.3,0,0.5,0.2,0.5,0.5v3
			C179.4,177.8,179.1,178.1,178.9,178.1z M178.9,172.1c-0.3,0-0.5-0.2-0.5-0.5v-3c0-0.3,0.2-0.5,0.5-0.5c0.3,0,0.5,0.2,0.5,0.5v3
			C179.4,171.8,179.1,172.1,178.9,172.1z M178.9,166.1c-0.3,0-0.5-0.2-0.5-0.5v-3c0-0.3,0.2-0.5,0.5-0.5c0.3,0,0.5,0.2,0.5,0.5v3
			C179.4,165.8,179.1,166.1,178.9,166.1z"/>
	</g>
	<g>
		<path class="st21" d="M210.4,112.5h-2.1c-0.3,0-0.5-0.2-0.5-0.5c0-0.3,0.2-0.5,0.5-0.5h2.1c0.3,0,0.5,0.2,0.5,0.5
			C210.9,112.3,210.6,112.5,210.4,112.5z M205.2,112.5h-3c-0.3,0-0.5-0.2-0.5-0.5c0-0.3,0.2-0.5,0.5-0.5h3c0.3,0,0.5,0.2,0.5,0.5
			C205.7,112.3,205.5,112.5,205.2,112.5z M199.2,112.5h-3.1v-0.9c0-0.3,0.2-0.5,0.5-0.5c0.2,0,0.4,0.2,0.5,0.4h2.1
			c0.3,0,0.5,0.2,0.5,0.5C199.7,112.3,199.5,112.5,199.2,112.5z M196.6,109.1c-0.3,0-0.5-0.2-0.5-0.5v-3c0-0.3,0.2-0.5,0.5-0.5
			c0.3,0,0.5,0.2,0.5,0.5v3C197.1,108.9,196.9,109.1,196.6,109.1z M196.6,103.1c-0.3,0-0.5-0.2-0.5-0.5v-3c0-0.3,0.2-0.5,0.5-0.5
			c0.3,0,0.5,0.2,0.5,0.5v3C197.1,102.9,196.9,103.1,196.6,103.1z M196.6,97.1c-0.3,0-0.5-0.2-0.5-0.5v-3c0-0.3,0.2-0.5,0.5-0.5
			c0.3,0,0.5,0.2,0.5,0.5v3C197.1,96.9,196.9,97.1,196.6,97.1z"/>
	</g>
	<g>
		<path class="st21" d="M172.5,82.8h-3.4c-0.3,0-0.5-0.2-0.5-0.5c0-0.3,0.2-0.5,0.5-0.5h2.5c0.3-0.3,0.8,0,0.8,0.4V82.8z
			 M166.1,82.8h-3c-0.3,0-0.5-0.2-0.5-0.5c0-0.3,0.2-0.5,0.5-0.5h3c0.3,0,0.5,0.2,0.5,0.5C166.6,82.6,166.4,82.8,166.1,82.8z
			 M160.1,82.8h-3c-0.3,0-0.5-0.2-0.5-0.5c0-0.3,0.2-0.5,0.5-0.5h3c0.3,0,0.5,0.2,0.5,0.5C160.6,82.6,160.4,82.8,160.1,82.8z
			 M154.1,82.8h-3c-0.3,0-0.5-0.2-0.5-0.5c0-0.3,0.2-0.5,0.5-0.5h3c0.3,0,0.5,0.2,0.5,0.5C154.6,82.6,154.4,82.8,154.1,82.8z
			 M148.1,82.8h-3c-0.3,0-0.5-0.2-0.5-0.5c0-0.3,0.2-0.5,0.5-0.5h3c0.3,0,0.5,0.2,0.5,0.5C148.6,82.6,148.4,82.8,148.1,82.8z
			 M142.1,82.8h-3c-0.3,0-0.5-0.2-0.5-0.5c0-0.3,0.2-0.5,0.5-0.5h3c0.3,0,0.5,0.2,0.5,0.5C142.6,82.6,142.4,82.8,142.1,82.8z
			 M136.1,82.8h-3c-0.3,0-0.5-0.2-0.5-0.5c0-0.3,0.2-0.5,0.5-0.5h3c0.3,0,0.5,0.2,0.5,0.5C136.6,82.6,136.4,82.8,136.1,82.8z
			 M130.1,82.8h-3c-0.3,0-0.5-0.2-0.5-0.5c0-0.3,0.2-0.5,0.5-0.5h3c0.3,0,0.5,0.2,0.5,0.5C130.6,82.6,130.4,82.8,130.1,82.8z
			 M172,79.7c-0.3,0-0.5-0.2-0.5-0.5v-3c0-0.3,0.2-0.5,0.5-0.5c0.3,0,0.5,0.2,0.5,0.5v3C172.5,79.5,172.2,79.7,172,79.7z M172,73.7
			c-0.3,0-0.5-0.2-0.5-0.5v-2.8c0-0.3,0.2-0.5,0.5-0.5c0.3,0,0.5,0.2,0.5,0.5v2.8C172.5,73.5,172.2,73.7,172,73.7z"/>
	</g>
	<g>
		<path class="st21" d="M139.1,25.6c-0.2,0-0.5-0.2-0.5-0.4c0-0.3,0.2-0.5,0.4-0.6c0.9-0.1,1.9-0.4,2.7-0.7c0.3-0.1,0.5,0,0.7,0.3
			c0.1,0.3,0,0.5-0.3,0.7C141.2,25.2,140.2,25.5,139.1,25.6C139.1,25.6,139.1,25.6,139.1,25.6z M136.1,25.5
			C136.1,25.5,136,25.5,136.1,25.5c-1.1-0.2-2.1-0.5-3.1-1c-0.2-0.1-0.3-0.4-0.2-0.7c0.1-0.2,0.4-0.3,0.7-0.2
			c0.9,0.4,1.8,0.7,2.7,0.9c0.3,0,0.5,0.3,0.4,0.6C136.5,25.4,136.3,25.5,136.1,25.5z M144.5,23.2c-0.1,0-0.3-0.1-0.4-0.2
			c-0.2-0.2-0.2-0.5,0.1-0.7c0.7-0.6,1.4-1.3,1.9-2.1c0.2-0.2,0.5-0.3,0.7-0.1c0.2,0.2,0.3,0.5,0.1,0.7c-0.6,0.9-1.3,1.7-2.1,2.3
			C144.7,23.2,144.6,23.2,144.5,23.2z M130.8,22.9c-0.1,0-0.2,0-0.3-0.1c-0.8-0.7-1.4-1.5-2-2.4c-0.1-0.2-0.1-0.5,0.2-0.7
			c0.2-0.1,0.5-0.1,0.7,0.2c0.5,0.8,1.1,1.6,1.8,2.2c0.2,0.2,0.2,0.5,0,0.7C131,22.9,130.9,22.9,130.8,22.9z M147.7,18.3
			c0,0-0.1,0-0.1,0c-0.3-0.1-0.4-0.4-0.3-0.6c0.3-0.9,0.4-1.9,0.4-2.8c0-0.3,0.2-0.5,0.5-0.5s0.5,0.2,0.5,0.5c0,1.1-0.2,2.1-0.4,3.1
			C148.1,18.1,147.9,18.3,147.7,18.3z M127.8,17.8c-0.2,0-0.4-0.2-0.5-0.4c-0.2-0.9-0.3-1.7-0.3-2.6c0-0.2,0-0.3,0-0.5
			c0-0.3,0.2-0.5,0.5-0.5c0.3,0,0.5,0.2,0.5,0.5c0,0.1,0,0.3,0,0.4c0,0.8,0.1,1.6,0.3,2.4c0.1,0.3-0.1,0.5-0.4,0.6
			C127.8,17.8,127.8,17.8,127.8,17.8z M148,13.3c-0.2,0-0.4-0.2-0.5-0.4c-0.2-0.9-0.5-1.8-1-2.7c-0.1-0.2,0-0.5,0.2-0.7
			c0.2-0.1,0.5,0,0.7,0.2c0.5,0.9,0.8,1.9,1.1,3C148.5,13,148.3,13.2,148,13.3C148,13.3,148,13.3,148,13.3z M128,11.9
			c-0.1,0-0.1,0-0.2,0c-0.3-0.1-0.4-0.4-0.3-0.6c0.3-1,0.8-1.9,1.4-2.8c0.2-0.2,0.5-0.3,0.7-0.1c0.2,0.2,0.3,0.5,0.1,0.7
			c-0.6,0.8-1,1.6-1.3,2.5C128.4,11.8,128.2,11.9,128,11.9z M145.2,8.1c-0.1,0-0.3,0-0.4-0.1c-0.7-0.7-1.4-1.3-2.3-1.7
			c-0.2-0.1-0.3-0.4-0.2-0.7c0.1-0.2,0.4-0.3,0.7-0.2c0.9,0.5,1.8,1.1,2.5,1.9c0.2,0.2,0.2,0.5,0,0.7C145.4,8,145.3,8.1,145.2,8.1z
			 M131.5,7.1c-0.1,0-0.3-0.1-0.4-0.2c-0.2-0.2-0.1-0.5,0.1-0.7c0.8-0.6,1.8-1.2,2.7-1.5c0.3-0.1,0.5,0,0.6,0.3
			c0.1,0.3,0,0.5-0.3,0.6c-0.9,0.3-1.7,0.8-2.5,1.4C131.7,7.1,131.6,7.1,131.5,7.1z M140,5.2c0,0-0.1,0-0.1,0C139,5,138,4.9,137,5
			c-0.3,0-0.5-0.2-0.5-0.5c0-0.3,0.2-0.5,0.5-0.5c1-0.1,2.1,0,3.1,0.2c0.3,0.1,0.4,0.3,0.4,0.6C140.4,5,140.2,5.2,140,5.2z"/>
	</g>
</g>
<g>
	<g>
		<g>
			<g>
				<path class="st22" d="M103.1,82.8c-0.1,1.7-0.3,3.5-1.1,4.2c-1.6,1.6-2.9,2.3-2.9,2.3s4.7,4,12.4,4.2v0c0,0,0.1,0,0.1,0
					c0,0,0.1,0,0.1,0v0c7.7-0.3,12.4-4.2,12.4-4.2s-1.3-0.7-2.9-2.3c-0.4-0.4-0.6-1-0.8-1.8c-0.2,0.1-0.5,0.2-0.8,0.4
					C112.4,88.9,105.4,84.5,103.1,82.8z"/>
				<path class="st22" d="M120.3,79l-8.6,2.2L103,79c0,0,0,3.6-0.1,5.6c2.5,3.5,13.6,6.5,17.5,0.6C120,82.7,120.3,79,120.3,79z"/>
			</g>
			<path class="st23" d="M130.7,60.5c-0.2-2.3-1.7-2.5-2.9-2.3c0.3-4.4,0.6-10.6,0.6-10.6L111.7,50L95,47.6c0,0,0.3,6.3,0.6,10.7
				c-1.2-0.3-2.9-0.2-3.1,2.3c-0.4,4.1,1.9,6,4.1,7c0.8,6,1.6,9,4.1,10.9c4,3,8.2,4.3,11,4.3c2.8,0,7-1.5,11.1-4.3
				c2.7-1.8,3.2-4.9,4-11C129,66.3,131.1,64.5,130.7,60.5z"/>
			<path class="st22" d="M127.5,58.1c0-0.2-0.2-0.3-0.4-0.2c-0.2,0.2-1.5-3.1-1.6-3.4c-0.2-0.8-0.3-1.5-0.2-2.3c0-0.1,0-0.2,0-0.3
				c0.4-0.2,0.7-0.4,1.1-0.6c0.5-0.3,0.3-0.8-0.1-1c0.1-0.1,0.2-0.1,0.2-0.2c0.4-0.3,0.1-0.9-0.4-0.8c-2.2,0.7-4.2,1.7-6.4,2.2
				c-2.2,0.5-4.5,0.6-6.8,0.6c-4.2,0.1-8.7,0-12.7-1.6c-0.1,0-0.3,0-0.3,0.1c-0.2-0.4-0.9-0.3-1,0.2c-0.1,1.2-0.2,2.3-0.3,3.5
				c-0.1,1.1-0.3,2.1-0.7,3.2c0,0-0.6,1.5-0.8,1.2c-0.1-0.1-0.4,0-0.4,0.2c0.3,1.4,1.2,0.5,1.7-0.2c0.8-1.2,1.3-2.5,1.4-3.9
				c9.6,0,19.8,0.1,24.5,0.1c0,1.5,1.3,3.3,2.6,3.8c0.2,0.1,0.3,0.1,0.5-0.1C127.5,58.5,127.5,58.4,127.5,58.1z"/>
			<path class="st22" d="M121.3,57.3c-0.4-0.9-1.8-0.6-2.7-0.5c-1.1,0.2-2.2,0.8-2.8,1.7c-0.9,1.3-0.6,6.1,1.7,3.9
				c0.1,0,0.2-0.1,0.2-0.3c-0.2-0.6,0-0.4,0.1-1.1c0.1-0.9,0.5-1.7,0.8-2.1c0.5-0.6,1.2-0.9,2-1c0.8-0.1,1.1-0.1,1.6-0.1
				c0,0-0.2-0.2-0.3-0.2C121.8,57.4,121.5,57.3,121.3,57.3z"/>
			<path class="st22" d="M101.6,57.3c0.4-0.9,1.8-0.6,2.7-0.5c1.1,0.2,2.2,0.8,2.8,1.7c0.9,1.3,0.6,6.1-1.7,3.9
				c-0.1,0-0.2-0.1-0.2-0.3c0.2-0.6,0-0.4-0.1-1.1c-0.1-0.9-0.5-1.7-0.8-2.1c-0.5-0.6-1.2-0.9-2-1c-0.8-0.1-1.1-0.1-1.6-0.1
				c0,0,0.2-0.2,0.3-0.2C101.1,57.4,101.3,57.3,101.6,57.3z"/>
			<g>
				<path class="st24" d="M115.9,62.6c0,0,0.3-0.9,1-1.3c0.7-0.4,3.2-1,4.3-0.1c1.1,0.9,0.9,0.9,0.9,0.9S121.3,64,119,64
					C116.7,64,115.9,63,115.9,62.6z"/>
				<circle class="st25" cx="118.6" cy="62.1" r="1.4"/>
				<circle class="st6" cx="118.5" cy="62.2" r="0.7"/>
				<path class="st6" d="M122.4,62c-0.7-1.2-2.2-1.6-3.6-1.5c-1.1,0.1-2.4,0.6-2.9,1.8c-0.2,0.5-0.1,0.6,0.1,0.2
					c1-2,4.6-2.4,5.9-0.3c-0.1,0.3-0.6,0.9-1.3,1.4c-0.2,0.1-0.1,0.3,0.2,0.2c0.4-0.2,1.1-0.7,1.5-1.3
					C122.4,62.3,122.5,62.1,122.4,62z"/>
				<circle class="st24" cx="119" cy="61.7" r="0.5"/>
			</g>
			<g>
				<path class="st24" d="M107,62.6c0,0-0.3-0.9-1-1.3c-0.7-0.4-3.2-1-4.3-0.1c-1.1,0.9-0.9,0.9-0.9,0.9s0.8,1.8,3.1,1.8
					S107.1,63,107,62.6z"/>
				<circle class="st25" cx="104.3" cy="62.1" r="1.4"/>
				<circle class="st6" cx="104.4" cy="62.2" r="0.7"/>
				<path class="st6" d="M100.5,62c0.7-1.2,2.2-1.6,3.6-1.5c1.1,0.1,2.4,0.6,2.9,1.8c0.2,0.5,0.1,0.6-0.1,0.2c-1-2-4.6-2.4-5.9-0.3
					c0.1,0.3,0.6,0.9,1.3,1.4c0.2,0.1,0.1,0.3-0.2,0.2c-0.4-0.2-1.1-0.7-1.5-1.3C100.6,62.3,100.4,62.1,100.5,62z"/>
				<circle class="st24" cx="104.7" cy="61.7" r="0.5"/>
			</g>
			<path class="st6" d="M122.9,57.8c-1-1-3.1-1.6-4.6-1.4c-0.9,0.2-1.7,0.5-2.2,1.1c-0.2,0.2-0.4,0.5-0.5,0.8
				c-0.2-0.3-0.2-0.5-0.4-0.7c-0.1,0.4-0.2,1-0.1,1.6c0,0.3,0.3,0.5,0.5,0.3c1.1-1.1,3.3-3,6.7-1C123,58.8,123.4,58.2,122.9,57.8z"
				/>
			<path class="st6" d="M100.2,57.8c1-1,3.1-1.6,4.6-1.4c0.9,0.2,1.7,0.5,2.2,1.1c0.2,0.2,0.4,0.5,0.5,0.8c0.2-0.3,0.2-0.5,0.4-0.7
				c0.1,0.4,0.2,1,0.1,1.6c0,0.3-0.3,0.5-0.5,0.3c-1.1-1.1-3.3-3-6.7-1C100.2,58.8,99.8,58.2,100.2,57.8z"/>
			<g>
				<path class="st26" d="M118.6,36.6c-3.6-0.8-8.8-1-12.4-0.5c-4,0.5-11.1,3.4-13,11.5c-0.8,3.5-0.1,7.1,0.9,10.6
					c0.9,0.1,1.3,0.3,1.8,0.6c1.5-2.7,2-6.7,1.6-9.6c0-0.2,0-0.7,1.1-0.2c2.4,1.1,8.5,2.7,11.5,2.6c2.2-0.1,4.5-0.3,6.4-1.5
					c1.8-1.1,3.4-2.6,3.9-4.6c0.6,1.5,0.1,2.8-0.2,3.5c1.4-0.4,2.6-1.5,3-3.5c0.6,0.4,1.2,1.8-0.1,4.3c0.8-0.1,2-1,2.4-3.5
					c1.5,0.3,1.6,3.4,1.3,4.7c-0.4,2.2,0.5,3.7,1,5.6c0.1,0.5,0.2,1.1,0.2,1.6c0.3-0.1,0.6-0.2,1.1-0.1
					C129.8,57.7,133.5,39.8,118.6,36.6z"/>
				<path class="st6" d="M126.8,51.1c0.2-1.3,0.2-4.4-1.3-4.7c-0.3,2.5-1.6,3.4-2.4,3.5c1.3-2.5,0.7-3.9,0.1-4.3
					c-0.4,1.9-1.6,3-3,3.5c0.3-0.6,0.8-2,0.2-3.5c-0.5,2.1-2.1,3.5-3.9,4.6c-1.9,1.2-4.2,1.4-6.4,1.5c-3,0.1-9.1-1.5-11.5-2.6
					c-1.1-0.5-1.1,0-1.1,0.2c0.4,2.9-0.1,6.9-1.6,9.6c0.2,0.1,0.3,0.3,0.5,0.5c1.4,1.5,2.9-5.1,2.8-8.2c1.7,0.6,3.8,1.2,5.5,1.4
					c14.1,2.1,17.9-0.7,20-1.5c-0.1,1.7,1,6.8,2.4,7.7c0.2,0.1,0.5-0.3,0.9-0.5c0-0.5-0.1-1.1-0.2-1.6
					C127.3,54.8,126.5,53.3,126.8,51.1z"/>
			</g>
			<path class="st22" d="M114.7,69.5c-0.1-0.2-0.5-0.6-0.8-0.6c-0.4,0-0.2,0.5,0.1,0.9c0.3,0.3,0.1,0.4,0,0.5
				c-0.4,0.4-1.2,0.6-1.4,0.7c-0.9,0.2-1.4,0.2-2.2,0c-0.3-0.1-1.1-0.3-1.5-0.6c-0.1-0.1-0.2-0.2,0-0.6c0.2-0.3,0.5-0.9,0.1-0.9
				c-0.3,0-0.6,0.3-0.8,0.6c-0.2,0.4-0.3,0.6-0.2,0.9c0.1,0.5,0.7,0.9,1.3,1.1c1.7,0.6,2.9,0.6,4.4,0c0.6-0.2,1.1-0.6,1.3-1.1
				C115,70.1,114.9,69.9,114.7,69.5z"/>
			<path class="st22" d="M96.6,64.8c-1.4-0.4-2.2-2.7-0.7-2.3c0.2,0.1,0.3-0.3,0.3-0.6c0-0.7-0.3-1.9-0.8-2.4
				c-0.3-0.3-0.9-0.5-1.3-0.2c-1.4,0.9-0.9,3.4,0,4.5c0.4,0.5,0.5,0.1,0.2-0.4c-0.4-0.7-0.4-1.1-0.5-2c-0.1-0.5,0-1.4,0.5-1.6
				c0.7-0.3,1.2,0.3,1.4,0.9c0.1,0.4,0.1,0.8,0.2,1.2c-0.5,0-0.9,0.3-1,1c0,0.9,0.9,1.9,1.7,2.1C96.8,65.2,96.9,64.9,96.6,64.8z"/>
			<path class="st22" d="M126.8,64.8c1.4-0.4,2.2-2.7,0.7-2.3c-0.2,0.1-0.3-0.3-0.3-0.6c0-0.7,0.3-1.9,0.8-2.4
				c0.3-0.3,0.9-0.5,1.3-0.2c1.4,0.9,0.9,3.4,0,4.5c-0.4,0.5-0.5,0.1-0.2-0.4c0.4-0.7,0.4-1.1,0.5-2c0.1-0.5,0-1.4-0.5-1.6
				c-0.7-0.3-1.2,0.3-1.4,0.9c-0.1,0.4-0.1,0.8-0.2,1.2c0.5,0,0.9,0.3,1,1c0,0.9-0.9,1.9-1.7,2.1C126.6,65.2,126.5,64.9,126.8,64.8z
				"/>
		</g>
		<g>
			<path class="st23" d="M102.7,85.7c-0.7,1.4-2.6,1.7-5.6,3.3c1.3,4.4,13.2,14.1,15.1,15.4c0,0,0-9.3,0-13.5
				C107.2,90.4,103.4,86.6,102.7,85.7z"/>
			<path class="st23" d="M120.6,85.7c1,1.9,2.6,1.7,5.6,3.3c-1.3,4.4-13.2,14.1-15.1,15.4c0,0,0-9.3,0-13.5
				C116.1,90.4,119.9,86.6,120.6,85.7z"/>
		</g>
		<path class="st26" d="M118.9,73.2c-3-1.5-11.1-1.7-14.4,0c-2.9,1.5-7.2-1.2-7.2-1.2c1.1,12.4,9,15.5,14,15.5
			c5.2,0,13.6-3.1,14.7-15.5C126.1,72,121.9,74.7,118.9,73.2z M111.5,80c-2.8,0-6.2-2.3-5.6-4.5c0.4-1.4,4.1-1.8,5.6-1.7
			c2,0.1,5.6,0.1,6.1,1.7C118.2,77.7,114.5,80,111.5,80z"/>
		<g>
			<path class="st27" d="M108.6,76.2c0.4,1,1.2,2.1,3.1,2.1c1.8,0,2.7-1.1,3.1-2.1C112,77.1,109.3,76.4,108.6,76.2z"/>
			<path class="st24" d="M111.6,75.8c-1.8,0-3.3-0.5-3.3-0.5c0.1,0.3,0.1,0.6,0.2,0.9c0.8,0.2,3.5,0.9,6.1,0
				c0.1-0.3,0.2-0.6,0.3-0.9C114.9,75.4,113.4,75.8,111.6,75.8z"/>
		</g>
	</g>
	<path class="st23" d="M76.7,156.7c0,0,0.9,1.7,1.1,3.1s-0.5,5.2,1.4,9.6c0.6,1.4,2.2,3.2,2.2,3.2s-4-1.3-4.9-0.6
		c-0.7,0.6,0.2,2.2,2.7,2.7c-3.6-0.2-2.8,1.5-1.4,2.2c1.6,0.8,4.5,2,6.4,1c2.3-1.2,3.8-2.4,3.8-2.4l1.7-20.8l-6.4-6.2L76.7,156.7z"
		/>
	<path class="st23" d="M146.9,156.7c0,0-0.9,1.7-1.1,3.1s0.5,5.2-1.4,9.6c-0.6,1.4-2.2,3.2-2.2,3.2s4-1.3,4.9-0.6
		c0.7,0.6-0.2,2.2-2.7,2.7c3.6-0.2,2.8,1.5,1.4,2.2c-1.6,0.8-4.5,2-6.4,1c-2.3-1.2-3.8-2.4-3.8-2.4l-1.7-20.8l6.4-6.2L146.9,156.7z"
		/>
	<g>
		<path class="st26" d="M107.2,182c0-0.5,0.1-0.8,0.1-0.8l5.9-2.1l1.8-17.9H86.3c0,0-0.1,1.2-0.5,5.2c-0.4,3.6-1,9.1-1.3,15.6H107.2
			z"/>
		<path class="st26" d="M138.4,182c-0.4-6.3-1-11.6-1.4-15.2c-0.4-3.9-0.4-5.6-0.4-5.6H108l2.1,20.7H138.4z"/>
		<g>
			<g>
				<path class="st6" d="M138.1,176.9c-0.2,0-4.8-0.6-8-3.8c-3.2-3.2-3.3-9.5-3.3-9.7h1c0,0.1,0,6.2,3,9.1c3,3,7.2,3.5,7.2,3.5
					L138.1,176.9z"/>
			</g>
		</g>
		<g>
			<g>
				<path class="st6" d="M85,176.9c0.2,0,4.5-0.6,7.7-3.8c3.2-3.2,3.3-9.5,3.3-9.7h-1c0,0.1,0,6.2-3,9.1c-3,3-6.9,3.5-7,3.5
					L85,176.9z"/>
			</g>
		</g>
		<path class="st6" d="M104.8,182h13.6c3.6-2.2,5-9,5-9s-2,2.9-3.4,4c-2.9,2.1-6.8,2.2-6.8,2.2l-1,0l0-3.4c0.9,0,2.4-0.2,3.6-1.2
			c0.9-0.8,1.4-1.8,1.5-3.2c0.1-4.1,0-8.1,0-8.1l-1.4,0c0,0,0.1,4,0,8.1c0,1-0.4,1.7-1,2.2c-0.8,0.7-2,0.8-2.7,0.8l-0.1-11.2l-1.4,0
			l0.1,15.8l-0.8,0c0,0,0,0,0,0s-3.9-0.1-6.8-2.2c-1.4-1-3.4-4-3.4-4S101.1,179.7,104.8,182z"/>
	</g>
	<g>
		<path class="st28" d="M111.4,32.3c-8.5,0-15.7,5.7-17.8,13.6h35.7C127,38,119.9,32.3,111.4,32.3z"/>
		<path class="st29" d="M129.2,53.8H93.5c-0.8,0-1.4-0.6-1.4-1.4v-5.2c0-0.8,0.6-1.4,1.4-1.4h35.7c0.8,0,1.4,0.6,1.4,1.4v5.2
			C130.6,53.2,130,53.8,129.2,53.8z"/>
		<g>
			<path class="st30" d="M95,52.5L95,52.5c-0.3,0-0.6-0.3-0.6-0.6v-4.4c0-0.3,0.3-0.6,0.6-0.6l0,0c0.3,0,0.6,0.3,0.6,0.6v4.4
				C95.6,52.3,95.3,52.5,95,52.5z"/>
			<path class="st30" d="M98.1,52.5L98.1,52.5c-0.3,0-0.6-0.3-0.6-0.6v-4.4c0-0.3,0.3-0.6,0.6-0.6l0,0c0.3,0,0.6,0.3,0.6,0.6v4.4
				C98.8,52.3,98.5,52.5,98.1,52.5z"/>
			<path class="st30" d="M101.4,52.5L101.4,52.5c-0.3,0-0.6-0.3-0.6-0.6v-4.4c0-0.3,0.3-0.6,0.6-0.6l0,0c0.3,0,0.6,0.3,0.6,0.6v4.4
				C102,52.3,101.7,52.5,101.4,52.5z"/>
			<path class="st30" d="M104.5,52.5L104.5,52.5c-0.3,0-0.6-0.3-0.6-0.6v-4.4c0-0.3,0.3-0.6,0.6-0.6l0,0c0.3,0,0.6,0.3,0.6,0.6v4.4
				C105.1,52.3,104.9,52.5,104.5,52.5z"/>
			<path class="st30" d="M108.2,52.5L108.2,52.5c-0.3,0-0.6-0.3-0.6-0.6v-4.4c0-0.3,0.3-0.6,0.6-0.6l0,0c0.3,0,0.6,0.3,0.6,0.6v4.4
				C108.9,52.3,108.6,52.5,108.2,52.5z"/>
			<path class="st30" d="M111.4,52.5L111.4,52.5c-0.3,0-0.6-0.3-0.6-0.6v-4.4c0-0.3,0.3-0.6,0.6-0.6l0,0c0.3,0,0.6,0.3,0.6,0.6v4.4
				C112,52.3,111.7,52.5,111.4,52.5z"/>
			<path class="st30" d="M114.6,52.5L114.6,52.5c-0.3,0-0.6-0.3-0.6-0.6v-4.4c0-0.3,0.3-0.6,0.6-0.6l0,0c0.3,0,0.6,0.3,0.6,0.6v4.4
				C115.2,52.3,115,52.5,114.6,52.5z"/>
			<path class="st30" d="M117.8,52.5L117.8,52.5c-0.3,0-0.6-0.3-0.6-0.6v-4.4c0-0.3,0.3-0.6,0.6-0.6l0,0c0.3,0,0.6,0.3,0.6,0.6v4.4
				C118.4,52.3,118.1,52.5,117.8,52.5z"/>
			<path class="st30" d="M121.3,52.5L121.3,52.5c-0.3,0-0.6-0.3-0.6-0.6v-4.4c0-0.3,0.3-0.6,0.6-0.6l0,0c0.3,0,0.6,0.3,0.6,0.6v4.4
				C122,52.3,121.7,52.5,121.3,52.5z"/>
			<path class="st30" d="M124.5,52.5L124.5,52.5c-0.3,0-0.6-0.3-0.6-0.6v-4.4c0-0.3,0.3-0.6,0.6-0.6l0,0c0.3,0,0.6,0.3,0.6,0.6v4.4
				C125.1,52.3,124.8,52.5,124.5,52.5z"/>
			<path class="st30" d="M127.7,52.5L127.7,52.5c-0.3,0-0.6-0.3-0.6-0.6v-4.4c0-0.3,0.3-0.6,0.6-0.6l0,0c0.3,0,0.6,0.3,0.6,0.6v4.4
				C128.3,52.3,128.1,52.5,127.7,52.5z"/>
		</g>
	</g>
	<g>
		<g>
			<path class="st28" d="M82.1,121h-6.3v10.4h0.6c1.1-1.5,2.2-3,3-4.4C80.8,124.7,81.5,122.7,82.1,121z"/>
			<path class="st28" d="M70.5,131.5V121H62c-0.9,2.4-1.8,5.3-2.9,8.2c-0.2,0.4-0.4,0.9-0.7,1.3v1H70.5z"/>
			<polygon class="st28" points="147.1,141.5 142.7,145.7 142.8,145.9 147.1,145.9 			"/>
			<path class="st28" d="M152.4,136.8v9.1h12.3c0.2-0.2,0.3-0.5,0.5-0.7v-8.4H152.4z"/>
			<path class="st28" d="M141.5,121c0.6,1.7,1.2,3.7,2.6,6c0.8,1.4,1.9,3,3,4.4V121H141.5z"/>
			<path class="st28" d="M152.4,131.5h12.8v-0.6c-0.3-0.6-0.5-1.2-0.7-1.7c-1.2-2.8-2.1-5.7-2.9-8.2h-9.1V131.5z"/>
			<rect x="114.1" y="136.8" class="st28" width="13.1" height="9.1"/>
			<rect x="94.8" y="136.8" class="st28" width="14.1" height="9.1"/>
			<path class="st28" d="M89.5,136.8h-4.6c0.2,3,0.4,6.1,0.7,9.1h3.9V136.8z"/>
			<path class="st28" d="M132.5,136.8v9.1h5.5c0.3-3,0.5-6.1,0.7-9.1H132.5z"/>
			<path class="st28" d="M89.5,100.2v-9.5c-4.1,1-8.2,1.9-9.3,2.1c-1.6,0.3-3.1,0.7-4.4,1.6v5.9H89.5z"/>
			<path class="st28" d="M108.8,100.2v-5.4c-5.7-0.6-9.3-2.2-10.5-6.4c-0.3,0.1-1.7,0.5-3.6,1v10.8H108.8z"/>
			<path class="st28" d="M127.2,100.2V89c-1.1-0.3-1.8-0.5-2-0.6c-1.2,4.3-5.2,5.3-11.1,5.9v5.9H127.2z"/>
			<path class="st28" d="M152.7,100.2c-0.1-0.2-0.2-0.3-0.3-0.5v0.5H152.7z"/>
			<path class="st28" d="M147.1,100.2v-6.2c-1.2-0.6-2.4-0.9-3.7-1.2c-1.2-0.2-6.4-1.4-10.9-2.5v9.9H147.1z"/>
			<polygon class="st28" points="75.8,154 77.5,151.2 75.8,151.2 			"/>
			<path class="st28" d="M64.6,151.2c2.1,1.6,4.2,2.9,5.8,3.9v-3.9H64.6z"/>
			<path class="st28" d="M84.1,121c0.1,2.6,0.3,6.2,0.5,10.4h4.9V121H84.1z"/>
			<rect x="114.1" y="121" class="st28" width="13.1" height="10.4"/>
			<rect x="94.8" y="121" class="st28" width="14.1" height="10.4"/>
			<path class="st28" d="M132.5,121v10.4h6.5c0.2-4.2,0.4-7.9,0.5-10.4H132.5z"/>
			<path class="st28" d="M70.5,105.5h-1.6c-0.9,2.4-2.3,5.9-4.4,10.3h6V105.5z"/>
			<path class="st28" d="M152.4,115.8h6.7c-2.1-4.4-3.5-7.9-4.4-10.3h-2.3V115.8z"/>
			<rect x="114.1" y="105.5" class="st28" width="13.1" height="10.3"/>
			<rect x="94.8" y="105.5" class="st28" width="14.1" height="10.3"/>
			<rect x="132.5" y="105.5" class="st28" width="14.6" height="10.3"/>
			<rect x="75.8" y="105.5" class="st28" width="13.7" height="10.3"/>
			<polygon class="st28" points="146.1,151.2 147.1,152.9 147.1,151.2 			"/>
			<path class="st28" d="M152.4,155.5c1.7-1.1,4.1-2.6,6.5-4.3h-6.5V155.5z"/>
			<polygon class="st28" points="94.8,151.2 94.8,161.3 108.8,160.3 108.8,151.2 			"/>
			<path class="st28" d="M86.1,151.2c0.4,3.9,0.8,7.5,1.3,10.5l2.1-0.1v-10.4H86.1z"/>
			<polygon class="st28" points="114.1,151.2 114.1,160.3 127.2,161.1 127.2,151.2 			"/>
			<path class="st28" d="M132.5,161.5l3.7,0.2c0.5-3,0.9-6.6,1.3-10.5h-5V161.5z"/>
			<polygon class="st28" points="75.8,140.8 75.8,145.9 80.8,145.9 80.9,145.7 			"/>
			<path class="st28" d="M70.5,136.8H58.4v8.5c0.1,0.2,0.3,0.4,0.4,0.6h11.6V136.8z"/>
			<rect x="75.8" y="100.2" class="st29" width="13.7" height="5.3"/>
			<rect x="94.8" y="100.2" class="st29" width="14.1" height="5.3"/>
			<path class="st29" d="M152.4,105.5h2.3c-0.5-1.3-0.8-2.3-1-2.9c-0.3-0.9-0.7-1.7-1-2.4h-0.3V105.5z"/>
			<rect x="132.5" y="100.2" class="st29" width="14.6" height="5.3"/>
			<path class="st29" d="M70.5,101.1c-0.2,0.5-0.4,0.9-0.6,1.4c-0.2,0.6-0.6,1.6-1,2.9h1.6V101.1z"/>
			<rect x="114.1" y="100.2" class="st29" width="13.1" height="5.3"/>
			<path class="st29" d="M152.4,121h9.1c-0.4-1.2-0.8-2.2-1.3-3.1c-0.4-0.8-0.8-1.5-1.1-2.2h-6.7V121z"/>
			<path class="st29" d="M83.9,117.2c0,0,0.1,1.4,0.2,3.8h5.4v-5.3H75.8v5.3h6.3C82.6,119.5,83.1,118.2,83.9,117.2z"/>
			<path class="st29" d="M70.5,115.8h-6c-0.4,0.7-0.7,1.5-1.1,2.2c-0.4,0.9-0.9,1.9-1.3,3.1h8.4V115.8z"/>
			<path class="st29" d="M132.5,121h7c0.1-2.4,0.2-3.8,0.2-3.8c0.9,1,1.3,2.3,1.8,3.8h5.6v-5.3h-14.6V121z"/>
			<rect x="114.1" y="115.8" class="st29" width="13.1" height="5.3"/>
			<rect x="94.8" y="115.8" class="st29" width="14.1" height="5.3"/>
			<rect x="58.4" y="131.5" class="st29" width="12.1" height="5.3"/>
			<path class="st29" d="M75.8,132.3c0.2-0.3,0.4-0.6,0.6-0.8h-0.6V132.3z"/>
			<path class="st29" d="M84.6,131.5c0.1,1.7,0.2,3.5,0.3,5.3h4.6v-5.3H84.6z"/>
			<path class="st29" d="M132.5,131.5v5.3h6.2c0.1-1.8,0.2-3.6,0.3-5.3H132.5z"/>
			<rect x="94.8" y="131.5" class="st29" width="14.1" height="5.3"/>
			<rect x="114.1" y="131.5" class="st29" width="13.1" height="5.3"/>
			<rect x="152.4" y="131.5" class="st29" width="12.8" height="5.3"/>
			<path class="st29" d="M132.5,151.2h5c0.2-1.7,0.3-3.5,0.5-5.3h-5.5V151.2z"/>
			<rect x="94.8" y="145.9" class="st29" width="14.1" height="5.3"/>
			<rect x="114.1" y="145.9" class="st29" width="13.1" height="5.3"/>
			<path class="st29" d="M89.5,145.9h-3.9c0.1,1.8,0.3,3.6,0.5,5.3h3.4V145.9z"/>
			<polygon class="st29" points="147.1,145.9 142.8,145.9 146.1,151.2 147.1,151.2 			"/>
			<path class="st29" d="M152.4,151.2h6.5c1.1-0.8,2.3-1.7,3.3-2.6c0.9-0.7,1.7-1.6,2.4-2.7h-12.3V151.2z"/>
			<path class="st29" d="M70.5,145.9H58.8c0.8,1,1.6,1.9,2.5,2.7c1.1,0.9,2.2,1.8,3.3,2.6h5.8V145.9z"/>
			<polygon class="st29" points="75.8,151.2 77.5,151.2 80.8,145.9 75.8,145.9 			"/>
			<rect x="70.5" y="121" class="st30" width="5.3" height="10.4"/>
			<path class="st30" d="M70.9,100.2h4.9v-5.9C73.9,95.4,72.3,97.2,70.9,100.2z"/>
			<path class="st30" d="M70.5,151.2v3.9c2,1.2,3.4,2,3.4,2l1.9-3.1v-2.8H70.5z"/>
			<rect x="70.5" y="105.5" class="st30" width="5.3" height="10.3"/>
			<path class="st30" d="M72.1,136.8h-1.6v9.1h5.3v-5.1l-3.9-3.7C71.8,137.1,71.9,137,72.1,136.8z"/>
			<path class="st28" d="M75.8,105.5v-5.3h-4.9c-0.1,0.3-0.3,0.6-0.4,1v4.3H75.8z"/>
			<rect x="70.5" y="115.8" class="st28" width="5.3" height="5.3"/>
			<path class="st28" d="M75.8,132.3v-0.8h-5.3v5.3h1.6C72.6,136.1,74.2,134.4,75.8,132.3z"/>
			<rect x="70.5" y="145.9" class="st28" width="5.3" height="5.3"/>
			<path class="st30" d="M58.4,131.5v-1c-0.2,0.3-0.4,0.6-0.7,1H58.4z"/>
			<path class="st30" d="M54.5,136.8c-0.2,1.2,0.1,2.6,0.9,4c0.9,1.5,1.9,3.1,3,4.5v-8.5H54.5z"/>
			<path class="st28" d="M57.7,131.5c-0.7,1-1.7,2.2-2.7,3.8c-0.3,0.4-0.5,0.9-0.5,1.5h3.9v-5.3H57.7z"/>
			<path class="st30" d="M151.7,137.1l-4.5,4.3v4.4h5.3v-9.1h-1.1C151.5,137,151.7,137.1,151.7,137.1z"/>
			<rect x="147.1" y="121" class="st30" width="5.3" height="10.4"/>
			<path class="st30" d="M152.4,100.2v-0.5c-1.5-3-3.3-4.7-5.3-5.7v6.2H152.4z"/>
			<rect x="147.1" y="105.5" class="st30" width="5.3" height="10.3"/>
			<path class="st30" d="M147.1,151.2v1.7l2.6,4.2c0,0,1.1-0.6,2.7-1.6v-4.3H147.1z"/>
			<rect x="147.1" y="100.2" class="st28" width="5.3" height="5.3"/>
			<rect x="147.1" y="115.8" class="st28" width="5.3" height="5.3"/>
			<path class="st28" d="M147.1,131.5c1.8,2.4,3.5,4.5,4.2,5.3h1.1v-5.3H147.1z"/>
			<rect x="147.1" y="145.9" class="st28" width="5.3" height="5.3"/>
			<path class="st30" d="M167.8,136.8h-2.6v8.4c0.9-1.3,1.8-2.8,2.7-4.3C168.5,139.9,168.3,138.2,167.8,136.8z"/>
			<path class="st30" d="M165.5,131.5c-0.1-0.2-0.2-0.4-0.3-0.6v0.6H165.5z"/>
			<path class="st28" d="M165.2,136.8h2.6c-0.1-0.3-0.2-0.6-0.3-0.9c-0.6-1.3-1.4-3-2-4.4h-0.3V136.8z"/>
			<rect x="89.5" y="136.8" class="st30" width="5.3" height="9.1"/>
			<path class="st30" d="M94.8,100.2V89.4c-1.5,0.4-3.4,0.8-5.3,1.3v9.5H94.8z"/>
			<rect x="89.5" y="121" class="st30" width="5.3" height="10.4"/>
			<rect x="89.5" y="105.5" class="st30" width="5.3" height="10.3"/>
			<polygon class="st30" points="89.5,151.2 89.5,161.6 94.8,161.3 94.8,151.2 			"/>
			<rect x="89.5" y="100.2" class="st28" width="5.3" height="5.3"/>
			<rect x="89.5" y="115.8" class="st28" width="5.3" height="5.3"/>
			<rect x="89.5" y="131.5" class="st28" width="5.3" height="5.3"/>
			<rect x="89.5" y="145.9" class="st28" width="5.3" height="5.3"/>
			<rect x="108.8" y="136.8" class="st30" width="5.3" height="9.1"/>
			<path class="st30" d="M114.1,100.2v-5.3c0-1.6-1.7-2.3-2.6-2.3c-0.9,0-1.9,1.1-2.6,2.3v5.4H114.1z"/>
			<rect x="108.8" y="121" class="st30" width="5.3" height="10.4"/>
			<rect x="108.8" y="105.5" class="st30" width="5.3" height="10.3"/>
			<polygon class="st30" points="108.8,151.2 108.8,160.3 111.8,160.2 114.1,160.3 114.1,151.2 			"/>
			<rect x="108.8" y="100.2" class="st28" width="5.3" height="5.3"/>
			<rect x="108.8" y="115.8" class="st28" width="5.3" height="5.3"/>
			<rect x="108.8" y="131.5" class="st28" width="5.3" height="5.3"/>
			<rect x="108.8" y="145.9" class="st28" width="5.3" height="5.3"/>
			<rect x="127.2" y="136.8" class="st30" width="5.3" height="9.1"/>
			<path class="st30" d="M132.5,100.2v-9.9c-2-0.5-3.9-0.9-5.3-1.3v11.2H132.5z"/>
			<rect x="127.2" y="121" class="st30" width="5.3" height="10.4"/>
			<rect x="127.2" y="105.5" class="st30" width="5.3" height="10.3"/>
			<polygon class="st30" points="127.2,151.2 127.2,161.1 132.5,161.5 132.5,151.2 			"/>
			<rect x="127.2" y="100.2" class="st28" width="5.3" height="5.3"/>
			<rect x="127.2" y="115.8" class="st28" width="5.3" height="5.3"/>
			<rect x="127.2" y="131.5" class="st28" width="5.3" height="5.3"/>
			<rect x="127.2" y="145.9" class="st28" width="5.3" height="5.3"/>
		</g>
		<rect x="85.8" y="159.9" class="st31" width="51" height="5.4"/>
		<g>
			<g>
				<path class="st24" d="M96.7,160.4h-3.3c-1.5,0-2.7-1.2-2.7-2.7v-0.1c0-1.5,1.2-2.7,2.7-2.7h3.3c1.5,0,2.7,1.2,2.7,2.7v0.1
					C99.4,159.2,98.2,160.4,96.7,160.4z M93.4,155.6c-1.1,0-2,0.9-2,2v0.1c0,1.1,0.9,2,2,2h3.3c1.1,0,2-0.9,2-2v-0.1
					c0-1.1-0.9-2-2-2H93.4z"/>
			</g>
			<polygon class="st26" points="92.6,156 97.5,156 97.5,88.7 92.6,89.9 			"/>
			<path class="st24" d="M92.9,159.9c-0.1,0.2-0.1,0.5-0.1,0.7v1.1c0,1.2,1,2.3,2.3,2.3c1.2,0,2.3-1,2.3-2.3v-1.1
				c0-0.3-0.1-0.5-0.1-0.7H92.9z"/>
		</g>
		<g>
			<g>
				<path class="st24" d="M126.1,160.2h3.3c1.5,0,2.7-1.2,2.7-2.7v-0.1c0-1.5-1.2-2.7-2.7-2.7h-3.3c-1.5,0-2.7,1.2-2.7,2.7v0.1
					C123.4,159,124.6,160.2,126.1,160.2z M129.4,155.4c1.1,0,2,0.9,2,2v0.1c0,1.1-0.9,2-2,2h-3.3c-1.1,0-2-0.9-2-2v-0.1
					c0-1.1,0.9-2,2-2H129.4z"/>
			</g>
			<polygon class="st26" points="130.2,155.8 125.3,155.8 125.3,88.5 130.2,89.7 			"/>
			<path class="st24" d="M129.9,159.7c0.1,0.2,0.1,0.5,0.1,0.7v1.1c0,1.2-1,2.3-2.3,2.3c-1.2,0-2.3-1-2.3-2.3v-1.1
				c0-0.3,0.1-0.5,0.1-0.7H129.9z"/>
		</g>
		<g>
			
				<rect x="69.3" y="147.2" transform="matrix(0.5705 -0.8213 0.8213 0.5705 -91.0222 128.7033)" class="st32" width="16.5" height="8.3"/>
			<polygon class="st32" points="102.3,83.7 97,88.8 105.9,97 111.6,93.1 111.6,90.8 			"/>
			<polygon class="st32" points="121.2,83.7 126.5,88.7 117.6,97 111.6,93.1 111.6,90.8 			"/>
			<circle class="st29" cx="74.5" cy="155.8" r="1.4"/>
			
				<rect x="137.8" y="147.2" transform="matrix(-0.5705 -0.8213 0.8213 -0.5705 105.0923 357.7099)" class="st32" width="16.5" height="8.3"/>
			<circle class="st29" cx="149.1" cy="155.8" r="1.4"/>
			<circle class="st29" cx="111.6" cy="97.2" r="1.4"/>
			<circle class="st29" cx="111.6" cy="110.6" r="1.4"/>
			<circle class="st29" cx="111.6" cy="126.3" r="1.4"/>
			<circle class="st29" cx="111.6" cy="141.1" r="1.4"/>
			<circle class="st29" cx="111.6" cy="155.4" r="1.4"/>
		</g>
	</g>
</g>
<g>
	<circle class="st20" cx="42.4" cy="42.3" r="26.3"/>
	<g>
		<g>
			<g>
				<path class="st33" d="M40.2,46.3c0.2,2.5,0.2,5.1,0.8,7.5c0.1,0.4,0.3,0.8,0.4,1.2c0.1-4.3,0.1-8.4-0.2-11.3
					c-0.4-5-0.3-8-0.2-8.9l-1.7-0.3c0.2,1.6,0.2,3.3,0.3,4.9C39.8,41.8,40,44.1,40.2,46.3z"/>
				<path class="st33" d="M35.4,88.5c0.1-2.9,0.8-5.8,1.4-8.6c0.7-3.2,0.9-6.4,1.1-9.7c0.3-6.5,0.8-13,0.6-19.5
					c-0.1-3.5-0.5-6.9-1.2-10.3c-0.4-2.2-1-4.2-1.1-6.3l-1.9-0.3c0.2,3.5,1.7,7,2.1,10.5c0.6,4.2,0.7,8.5,0.8,12.8
					c0.1,4.3,0,8.5-0.5,12.8c-0.2,1.9-0.7,5-2.7,5.8c-0.3,2.9-0.7,11.5,0.3,20.9c0.1,0.7,0.1,2.2,1.1,2.7c0.6,0.3,1.5,0.4,2.4,0.2
					C36.1,95.8,35.2,92,35.4,88.5z"/>
				<path class="st33" d="M41.5,97.8c0.7-0.5,0.9-1.1,0.8-1.7c-0.3-3.5-1.8-7.6-2.2-13.4C37.1,86.9,39.2,92.9,41.5,97.8z"/>
				<path class="st33" d="M36.1,68.1c0.2-1.8,0.3-3.6,0.3-5.4c0.1-3.7,0-7.4-0.2-11.2c-0.2-3.8-0.4-7.6-1.3-11.4
					c-0.5-2.2-1.2-4.4-1.2-6.6L33,34c0.2,0-0.8,0.9-0.8,1.1c-0.1,0.8,0,3.3,0.7,6.2c0.7,3.1,1.7,6.6,1.9,12.3
					c0.3,7.9-0.6,19.4-0.8,21C35.9,73.3,35.9,70.2,36.1,68.1z"/>
				<path class="st33" d="M40.1,49.5c-0.3-2.8-0.5-5.6-0.8-8.4c-0.2-2.1-0.5-4.4-0.4-6.6l-2.5-0.4c0.4,2.6,1.2,5.1,1.7,7.6
					c0.5,2.8,0.9,5.7,1,8.6c0.3,6.2-0.3,12.5-0.6,18.7c-0.1,2.8-0.2,5.7-0.7,8.5c-0.5,3.2-1.4,6.3-1.7,9.5c-0.3,3.2,0.2,6.4,1.2,9.5
					c0.3,0.9,0.7,1.8,1.1,2.7c0.8-0.2,1.7-0.6,2.4-1c-1.3-2.8-2.2-5.8-2.7-8.7c-0.4-2.6-0.2-5.9,1.9-7.7C40,80,40.1,78,40.3,75.8
					c0.5-4.7,1-12.5,1.2-19.6c-0.2-0.3-0.3-0.6-0.5-0.9C40.2,53.5,40.3,51.4,40.1,49.5z"/>
				<path class="st34" d="M36.6,69.8c0.6-4.2,0.6-8.5,0.5-12.8c-0.1-4.3-0.3-8.6-0.8-12.8c-0.5-3.4-1.9-7-2.1-10.5l-0.3-0.1l-0.1,0
					c0,2.2,0.7,4.3,1.2,6.6c0.9,3.7,1.1,7.5,1.3,11.4c0.2,3.7,0.3,7.4,0.2,11.2c0,1.8-0.2,3.6-0.3,5.4c-0.2,2-0.2,5.2-2.1,6.5
					c0,0.1,0,0.2,0,0.2c0,0.2-0.1,0.4-0.1,0.7C36,74.8,36.4,71.7,36.6,69.8z"/>
				<path class="st34" d="M36.2,87c0.3-3.2,1.2-6.3,1.7-9.5c0.4-2.8,0.5-5.6,0.7-8.5c0.3-6.2,0.8-12.5,0.6-18.7
					c-0.1-2.9-0.5-5.7-1-8.6c-0.5-2.5-1.3-5-1.7-7.6L36.1,34c0.2,2.1,0.7,4.1,1.1,6.3c0.7,3.4,1.1,6.8,1.2,10.3
					c0.2,6.5-0.3,13-0.6,19.5c-0.1,3.3-0.4,6.5-1.1,9.7c-0.6,2.8-1.3,5.7-1.4,8.6c-0.1,3.5,0.8,7.4,2.3,10.9c0.3,0,0.6-0.1,0.9-0.2
					c-0.4-0.9-0.8-1.8-1.1-2.7C36.4,93.4,35.9,90.2,36.2,87z"/>
				<path class="st34" d="M38.3,89.5c0.4,2.9,1.4,5.9,2.7,8.7c0.2-0.1,0.3-0.2,0.4-0.3c0.1,0,0.1-0.1,0.2-0.1
					c-2.3-4.9-4.4-10.9-1.4-15.1c0-0.3,0-0.6-0.1-0.9C38.1,83.6,37.9,86.9,38.3,89.5z"/>
				<path class="st34" d="M41,53.9c-0.6-2.4-0.6-5.1-0.8-7.5c-0.2-2.3-0.4-4.5-0.6-6.8c-0.1-1.6-0.1-3.3-0.3-4.9l-0.5-0.1
					c0,2.2,0.3,4.5,0.4,6.6c0.2,2.8,0.5,5.6,0.8,8.4c0.2,1.9,0.2,4,0.9,5.8c0.1,0.3,0.3,0.6,0.5,0.9c0-0.4,0-0.7,0-1.1
					C41.3,54.7,41.1,54.3,41,53.9z"/>
			</g>
			<g>
				<path class="st35" d="M56.1,28.7c-0.2-1.7-0.6-3.3-0.9-4.4c-3.1,1.1-6.6,1.9-7.3,2.2v11.4c0.4,0.2,3.6,1.5,6.1,2.8
					C56.4,35.5,56.5,31.9,56.1,28.7z"/>
				<path class="st36" d="M56.4,23.8c-0.4,0.2-0.8,0.3-1.3,0.5c0.3,1,0.7,2.7,0.9,4.4c0.4,3.2,0.3,6.9-2.1,12
					c0.4,0.2,0.7,0.4,1.1,0.6C59.3,34.9,57.3,25.2,56.4,23.8z"/>
			</g>
			<path class="st36" d="M47.9,37.8c0,0,1.4-2.1,1.4-5.7c0-3.5-1-5.9-1-5.9L42.6,27v8.1l0.1,0L42.6,36L47.9,37.8z"/>
			<g>
				<rect x="33.8" y="27" class="st36" width="10.2" height="9"/>
				<rect x="31.2" y="27" class="st37" width="2.6" height="9"/>
			</g>
		</g>
	</g>
</g>
<g>
	<circle class="st24" cx="172" cy="40.7" r="27.3"/>
	<g>
		<g>
			<path class="st17" d="M156.8,24.6c1.3-1.5,3.6-2.3,6.3-2.9c1.4-0.3,2.3-0.8,2.8-1.2c-1.7-0.4-3.5-0.5-5.3,0l0,0
				c-1.1,0.3-2.1,0.7-3,1.3c-3.7,2.3-5.6,6.5-4.6,10.7l1.7,4.8l2,1l0,0c0,0-2-6.2-2.1-7.8C154.6,28.6,155.4,26,156.8,24.6z"/>
			<g>
				<path class="st16" d="M169,30.8c0.4-2.6,2-4.3,3.3-5.2c-1.2-2.6-3.6-4.4-6.4-5.1c-0.6,0.4-1.5,0.9-2.8,1.2
					c-2.6,0.6-5,1.4-6.3,2.9c-1.3,1.5-2.2,4.1-2.1,5.9c0.1,1.6,2.1,7.8,2.1,7.8l2,0.9c1.3,0.7,3,0.8,3.3,2.9l1.2,8.1
					c-0.7,0.2-2.1,0.6-3.4,0.9l8.9-2.3C168.7,42.1,168.6,33.4,169,30.8z"/>
				<path class="st38" d="M177,46.8l-4-19.4c-0.2-0.6-0.4-1.2-0.6-1.7c-1.2,0.9-2.9,2.6-3.3,5.2c-0.4,2.6-0.4,11.2-0.2,18.1l6.7-1.7
					L177,46.8z"/>
			</g>
			<path class="st39" d="M159.1,39c1.1,0.5,3,1.2,3.4,3.3l1.2,7.9c-0.7,0.2-2.5,0.7-3.9,1l-0.4-0.4l-4.9-13.8
				C154.6,36.9,157.7,38.3,159.1,39z"/>
			<path class="st16" d="M163.1,50.4l-1.3-8c-0.3-1.7-2.2-2.4-3.3-2.9c-1.9-0.8-7.3-3.5-7.3-3.5c-2.3-1-2.8-1.3-4.1,0
				c0,0-0.8,1.5,0.6,2.8l12.1,12.5C161,50.9,162.4,50.5,163.1,50.4z"/>
			<g>
				<path class="st39" d="M159.4,51.1c-0.4,0.1-0.7,0.5-0.6,0.9l1.3,5.2c0.1,0.5,0.6,0.8,1.1,0.6l7.7-2c0-1.5-0.1-4.1-0.2-7.2
					L159.4,51.1z"/>
				<path class="st40" d="M179.2,52.3l-1.3-5.2c-0.1-0.4-0.5-0.7-0.9-0.6l-8.1,2.1c0.1,3.1,0.1,5.7,0.2,7.2l9.6-2.5
					C179,53.3,179.3,52.8,179.2,52.3z"/>
			</g>
		</g>
		<g>
			<path class="st16" d="M187.1,42l3.4-2.8L191,34c0-4.3-3-7.9-7.1-9.2c-0.2,0.2-0.6,0.4-1.2,0.5c-1.9,0.4-4.9,0.8-7.3,2.8
				c-2,1.6-3.4,3.4-3.3,8c0,3.7,0.7,15.3,0.8,17.8H189c-1.4,0-2.9,0-3.6,0l-0.8-8.2C184.5,43.5,186,43,187.1,42z"/>
			<path class="st17" d="M175.4,28c2.4-2,5.4-2.4,7.3-2.8c0.6-0.1,1-0.3,1.2-0.5c-1-0.3-2.1-0.5-3.2-0.5h0c-5.7,0-10.3,4.3-10.3,9.7
				l1,19.8h1.5c-0.1-2.5-0.8-14.1-0.8-17.8C172,31.5,173.4,29.7,175.4,28z"/>
			<path class="st39" d="M186.7,41.8c-0.9,0.7-2.6,1.9-2.5,4l0.8,8c0.7,0,2.6,0,4,0l0.3-0.5l1.3-14.6
				C190.6,38.7,188,40.8,186.7,41.8z"/>
			<path class="st16" d="M185.7,53.8l-0.7-8.1c-0.1-1.8,1.5-2.9,2.5-3.7c1.6-1.2,6.2-5.2,6.2-5.2c2-1.5,2.4-2,4-1
				c0,0,1.2,1.2,0.1,2.8l-8.6,15.1C187.9,53.8,186.4,53.8,185.7,53.8z"/>
			<path class="st39" d="M189.3,60.6h-17.8c-0.5,0-0.9-0.4-0.9-0.9v-5.4c0-0.4,0.3-0.8,0.8-0.8h18c0.4,0,0.8,0.3,0.8,0.8v5.4
				C190.2,60.2,189.8,60.6,189.3,60.6z"/>
		</g>
	</g>
</g>
<g>
	<path class="st24" d="M67.9,203.5v-1.1l0.4,0c0.2,0,0.4-0.1,0.4-0.4v-6.3l-0.8,0v-1.1h3.2v1.1l-0.4,0c-0.2,0-0.4,0.1-0.4,0.4v6h2.2
		c0.3,0,0.3-0.2,0.3-0.4v-0.9l1.4,0.1v2.7H67.9z"/>
	<path class="st24" d="M77,200.6c0,1.3,0.7,1.7,1.8,1.7s1.8-0.5,1.8-1.6v-4.9l-0.8,0v-1.1H83v1.1l-0.4,0c-0.2,0-0.4,0.1-0.4,0.4v4.8
		c0,1.8-1.3,2.8-3.4,2.8c-2.2,0-3.3-0.9-3.3-3v-4.9l-0.8,0v-1.1h3.3v1.1l-0.4,0c-0.3,0-0.4,0.1-0.4,0.4V200.6z"/>
	<path class="st24" d="M88.8,200.6L88.8,200.6l2.3-6.1h2.7v1.1l-0.4,0c-0.2,0-0.4,0.1-0.4,0.5l0.3,6.2l0.8,0v1.1h-3.2v-1.1l0.5,0
		c0.2,0,0.4-0.1,0.4-0.3l-0.3-4.8h0l-2.1,5.4h-1.3l-2-5.3h0l-0.3,5l0.9,0v1.1h-3.2v-1.1l0.5,0c0.2,0,0.3-0.1,0.3-0.4l0.4-6.3
		l-0.8-0.1v-1.1h2.7L88.8,200.6z"/>
	<path class="st24" d="M98.8,194.5c1.5,0,2.9,0.5,2.9,2.3c0,0.9-0.5,1.5-1.2,1.9c1,0.3,1.7,1,1.7,2.1c0,1.8-1.2,2.7-3.4,2.7h-3.8
		v-1.1l0.4,0c0.2,0,0.4-0.1,0.4-0.4v-6.3l-0.8,0v-1.1H98.8z M97.4,198.2h1c1.2,0,1.6-0.5,1.6-1.3c0-1-0.7-1.2-1.5-1.2h-1.1V198.2z
		 M97.4,202.2h1.3c1.3,0,1.8-0.6,1.8-1.4c0-0.9-0.6-1.4-1.7-1.4h-1.3V202.2z"/>
	<path class="st24" d="M103,203.5v-1.1l0.4,0c0.2,0,0.4-0.1,0.4-0.4v-6.3l-0.8,0v-1.1h6.2v2.2l-1.4,0.1v-0.5c0-0.3,0-0.4-0.4-0.4h-2
		v2.3h3.1v1.4h-3.1v2.5h2.2c0.3,0,0.4-0.2,0.4-0.4V201l1.4,0.1v2.4H103z"/>
	<path class="st24" d="M110.4,202.4l0.4,0c0.2,0,0.4-0.1,0.4-0.4v-6.3l-0.8,0v-1.1h3.7c2,0,3.2,0.6,3.2,2.5c0,1.3-0.9,2.1-1.6,2.4
		c0.4,0.1,0.6,0.4,0.8,0.8l1,2.1l0.8,0v1.1h-3.3v-1.1l0.4,0c0.3,0,0.4-0.2,0.3-0.4l-0.6-1.3c-0.2-0.4-0.4-0.6-0.8-0.6h-1.2v2.3
		l0.9,0v1.1h-3.4V202.4z M114,198.7c1.1,0,1.7-0.5,1.7-1.5c0-1.2-0.7-1.4-1.8-1.4h-1v2.8H114z"/>
	<path class="st24" d="M118.8,203.1v-2.4l1.4-0.1v1.1c0,0.3,0,0.4,0.3,0.5c0.2,0.1,0.4,0.1,0.7,0.1c0.7,0,1-0.4,1-1.2v-5.3l-1.1-0.1
		v-1.1h3.5v1.1l-0.4,0c-0.3,0-0.4,0.1-0.4,0.4v4.2c0,0.4,0,1-0.1,1.4c-0.1,1.2-0.9,2-2.5,2C120.3,203.7,119.4,203.5,118.8,203.1z"/>
	<path class="st24" d="M127.6,195.7l-0.8-0.1v-1.1h3.1l2.7,7.8h0l0.8,0v1.1h-3.5v-1.1l0.5,0c0.3,0,0.4-0.1,0.3-0.4l-0.3-0.8h-3.2
		l-0.4,1.2l0.8,0v1.1h-3.1v-1.1l0.4,0c0.2,0,0.3-0.1,0.4-0.4L127.6,195.7z M127.6,199.9h2.5l-1.2-3.8h0L127.6,199.9z"/>
	<path class="st24" d="M138.2,195.7c-1.7,0-2.5,1.2-2.5,3.2c0,2.1,0.7,3.4,2.6,3.4c0.4,0,0.7,0,1-0.1c0.2-0.1,0.3-0.2,0.3-0.4v-1.1
		l1.4,0.1v2.3c-0.7,0.4-1.8,0.6-2.7,0.6c-2.7,0-4.2-1.5-4.2-4.6c0-3.5,2.2-4.7,4.2-4.7c0.8,0,1.7,0.2,2.5,0.6v2.3l-1.4,0.1v-1.1
		c0-0.3,0-0.4-0.3-0.4C138.8,195.7,138.4,195.7,138.2,195.7z"/>
	<path class="st24" d="M142.8,195.7l-0.8,0v-1.1h3.2v1.1l-0.4,0c-0.2,0-0.4,0.1-0.4,0.4v3l2.7-3.3l-0.8,0v-1.1h3.2v1.1l-0.4,0
		c-0.2,0-0.4,0.1-0.5,0.4l-1.9,2.3l2.4,3.9l0.7,0v1.1h-3.4v-1.1l0.4,0c0.3,0,0.3-0.1,0.2-0.4l-1.3-2.3l-1.2,1.4v1.3l0.8,0v1.1h-3.2
		v-1.1l0.4,0c0.3,0,0.4-0.1,0.4-0.4V195.7z"/>
</g>
</svg>
