<?xml version="1.0" encoding="utf-8"?>
<!-- Generator: Adobe Illustrator 19.2.1, SVG Export Plug-In . SVG Version: 6.00 Build 0)  -->
<svg version="1.1" id="Layer_1" xmlns="http://www.w3.org/2000/svg" xmlns:xlink="http://www.w3.org/1999/xlink" x="0px" y="0px"
	 viewBox="0 0 199.5 186.9" style="enable-background:new 0 0 199.5 186.9;" xml:space="preserve">
<style type="text/css">
	.st0{fill:#6B2618;}
	.st1{fill:#963323;}
	.st2{fill:#E68025;}
	.st3{fill:#F79A4D;}
	.st4{fill:#CCCCCC;}
	.st5{fill:#A8A8A8;}
	.st6{fill:#FFFFFF;}
	.st7{fill:#9B9B9B;}
	.st8{fill:#FBCB43;}
	.st9{fill:#828282;}
	.st10{fill:#963722;}
	.st11{fill:#878787;}
	.st12{fill:#F2992F;}
	.st13{fill:#808080;}
	.st14{fill:#D16811;}
	.st15{fill:#B2B2B2;}
	.st16{fill:#706D6D;}
	.st17{fill:#D66350;}
	.st18{fill:#6B6B6B;}
	.st19{fill:#E84C43;}
	.st20{fill:#999999;}
	.st21{fill:#777777;}
	.st22{fill:#848484;}
	.st23{fill:#969696;}
</style>
<g>
	<g>
		<g>
			<g>
				<polygon class="st0" points="67.5,102.2 66.7,102.2 67.5,122.1 				"/>
			</g>
			<g>
				<path class="st1" d="M67.5,102.2c-7.4,0.2-13.3,6.2-13.3,13.7c0,7.4,5.9,13.5,13.3,13.7V102.2z"/>
			</g>
			<g>
				<path class="st2" d="M67.5,104.4c-6.2,0.2-11.1,5.2-11.1,11.4c0,6.2,4.9,11.2,11.1,11.4V104.4z"/>
			</g>
			<g>
				<path class="st3" d="M67.5,110.5c-2.8,0.2-5.1,2.5-5.1,5.4s2.2,5.2,5.1,5.4V110.5z"/>
			</g>
			<g>
				<path class="st3" d="M67.5,123.9c-4.3-0.2-7.7-3.7-7.7-8s3.4-7.9,7.7-8v-0.5c-4.6,0.2-8.2,3.9-8.2,8.5c0,4.6,3.7,8.4,8.2,8.5
					V123.9z"/>
			</g>
			<g>
				<path class="st3" d="M67.5,122.3c-3.4-0.2-6.2-3-6.2-6.5c0-3.5,2.8-6.3,6.2-6.5v-0.5c-3.7,0.2-6.7,3.3-6.7,7c0,3.8,3,6.8,6.7,7
					V122.3z"/>
			</g>
			<g>
				<path class="st3" d="M67.5,125.3c-5.1-0.2-9.2-4.4-9.2-9.5c0-5.1,4.1-9.3,9.2-9.5v-0.5c-5.4,0.2-9.7,4.6-9.7,10
					c0,5.4,4.3,9.8,9.7,10V125.3z"/>
			</g>
		</g>
		<path class="st2" d="M67.9,129.6v-17.4c0-0.2-0.2-0.4-0.4-0.4c-0.2,0-0.4,0.2-0.4,0.4v17.4H67.9z"/>
		<g>
			<g>
				<path class="st4" d="M55.1,115.9c0,0-0.2-2.5-2-5.7c0.8,3.3-1.6,5.6-1.6,5.6L55.1,115.9z"/>
				<path class="st4" d="M52,148.3c0,0,0.2,2.5,2,5.7c-0.8-3.3,1.6-5.6,1.6-5.6L52,148.3z"/>
				<path class="st4" d="M70,133.2c0,0,2.5-0.2,5.7-2c-3.3,0.8-5.6-1.6-5.6-1.6L70,133.2z"/>
				<path class="st4" d="M37.7,130.3c0,0-2.5,0.2-5.7,2c3.3-0.8,5.6,1.6,5.6,1.6L37.7,130.3z"/>
				<path class="st4" d="M59.3,116.8c0,0,0.5-2.5-0.5-6.1c-0.1,3.4-3,5-3,5L59.3,116.8z"/>
				<path class="st4" d="M47.9,147.3c0,0-0.5,2.5,0.5,6.1c0.1-3.4,3-5,3-5L47.9,147.3z"/>
				<path class="st4" d="M69.1,137.3c0,0,2.5,0.5,6.1-0.5c-3.4-0.1-5-3-5-3L69.1,137.3z"/>
				<path class="st4" d="M38.7,126.2c0,0-2.5-0.5-6.1,0.5c3.4,0.1,5,3,5,3L38.7,126.2z"/>
				<path class="st4" d="M63.1,118.7c0,0,1.1-2.3,1.1-6c-0.9,3.2-4.2,4.1-4.2,4.1L63.1,118.7z"/>
				<path class="st4" d="M44.1,145.2c0,0-1.1,2.3-1.1,6c0.9-3.2,4.2-4.1,4.2-4.1L44.1,145.2z"/>
				<path class="st4" d="M67.2,141.1c0,0,2.3,1.1,6,1.1c-3.2-0.9-4.1-4.2-4.1-4.2L67.2,141.1z"/>
				<path class="st4" d="M40.8,122.5c0,0-2.3-1.1-6-1.1c3.2,0.9,4.1,4.2,4.1,4.2L40.8,122.5z"/>
				<path class="st4" d="M66.2,121.6c0,0,1.6-1.9,2.6-5.5c-1.7,2.9-5.1,2.9-5.1,2.9L66.2,121.6z"/>
				<path class="st4" d="M41.1,142.3c0,0-1.6,1.9-2.6,5.5c1.7-2.9,5.1-2.9,5.1-2.9L41.1,142.3z"/>
				<path class="st4" d="M64.5,144.3c0,0,1.9,1.6,5.5,2.6c-2.9-1.7-2.9-5.1-2.9-5.1L64.5,144.3z"/>
				<path class="st4" d="M43.7,119.4c0,0-1.9-1.6-5.5-2.6c2.9,1.7,2.9,5.1,2.9,5.1L43.7,119.4z"/>
				<path class="st4" d="M68.5,125.1c0,0,2.1-1.4,3.9-4.6c-2.4,2.3-5.7,1.5-5.7,1.5L68.5,125.1z"/>
				<path class="st4" d="M38.9,138.6c0,0-2.1,1.4-3.9,4.6c2.4-2.3,5.7-1.5,5.7-1.5L38.9,138.6z"/>
				<path class="st4" d="M60.9,146.6c0,0,1.4,2.1,4.6,3.9c-2.3-2.4-1.5-5.7-1.5-5.7L60.9,146.6z"/>
				<path class="st4" d="M47.3,117.2c0,0-1.4-2.1-4.6-3.9c2.3,2.4,1.5,5.7,1.5,5.7L47.3,117.2z"/>
				<path class="st4" d="M69.8,129.2c0,0,2.4-0.8,5-3.4c-2.9,1.6-5.9-0.1-5.9-0.1L69.8,129.2z"/>
				<path class="st4" d="M37.7,134.5c0,0-2.4,0.8-5,3.4c2.9-1.6,5.9,0.1,5.9,0.1L37.7,134.5z"/>
				<path class="st4" d="M56.9,148c0,0,0.8,2.4,3.4,5c-1.6-2.9,0.1-5.9,0.1-5.9L56.9,148z"/>
				<path class="st4" d="M51.4,116.1c0,0-0.8-2.4-3.4-5c1.6,2.9-0.1,5.9-0.1,5.9L51.4,116.1z"/>
			</g>
			<g>
				<circle class="st4" cx="53.7" cy="132.1" r="16.6"/>
				<ellipse class="st5" cx="53.7" cy="132.1" rx="12.6" ry="12.6"/>
				<circle class="st4" cx="53.7" cy="132.1" r="3.6"/>
				<circle class="st6" cx="53.7" cy="132.1" r="2.2"/>
			</g>
		</g>
		<rect x="20.1" y="129.6" class="st7" width="152.9" height="11.9"/>
		<g>
			<g>
				<path class="st0" d="M143.4,104.9c-2.6-0.1-7.5-0.4-8.2,0.1c0.1,0.1,0.2,0.2,0.7,0.5c0.8,0.5,7.9,2.1,10.7,2.1
					c1.8,0,6.2-0.3,8.8-0.5c-0.3-0.3-0.6-0.7-0.9-1c-0.7-0.7-1.4-1.2-2.2-1.7C150.1,104.7,146.7,105,143.4,104.9z"/>
				<path class="st0" d="M149.3,120.4c-1,0.1-1.2,0.3-1.2,0.4c0,0.3,1,1.2,4.3,1.9c1.4,0.3,2.8,0.5,4.1,0.6c0.6-1,1.1-2,1.5-3.1
					C155.1,120.2,151,120.3,149.3,120.4z"/>
				<path class="st0" d="M158.7,117.1c0.1-1.1,0.1-2.2-0.1-3.2c-0.1-0.4-0.2-1.6-0.8-2.9c-0.5-1.1-1-2.2-1.8-3.2
					c-2.5,0.2-7.3,0.6-9.3,0.6c-2.8,0-10.2-1.6-11.1-2.2c-0.2-0.2-0.5-0.3-0.7-0.5c-0.3-0.3-0.4-0.6-0.3-0.9c0.3-0.9,2.6-1,9-0.7
					c2.8,0.1,5.7-0.1,7.8-0.3c-2.2-1.1-4.7-1.6-7.2-1.5l0,0l-40.1-0.1V129l0,0.5l40.7,0l0,0c1.6,0,3.2-0.2,4.8-0.7
					c-1.6,0-3.3-0.2-4.6-0.6c-2.8-0.8-7.8-0.6-11.1-0.5c-0.7,0-0.7-0.7,0-0.8c3.4-0.2,8.4-0.4,11.4,0.5c1.7,0.5,4.2,0.6,6.2,0.5
					c1.1-0.6,2.2-1.3,3.1-2.3c-2.5-0.2-5.1-0.9-7.9-1.6c-1.4-0.4-1.2-1.1,0.2-0.7c3,0.8,5.7,1.5,8.4,1.6c0.3-0.3,0.6-0.7,0.9-1.1
					c-1.2-0.1-2.5-0.3-3.8-0.6c-2.2-0.4-3.8-1.1-4.5-1.8c-0.3-0.3-0.4-0.6-0.4-0.9c0-0.4,0.3-1,1.9-1.1c1.4-0.1,5.8-0.2,9-0.2
					c0.1-0.5,0.2-1,0.3-1.5C153.3,117.9,153.4,117.1,158.7,117.1z"/>
			</g>
			<g>
				<path class="st0" d="M107,104.9c-2.6-0.1-7.5-0.4-8.2,0.1c0.1,0.1,0.2,0.2,0.7,0.5c0.8,0.5,7.9,2.1,10.7,2.1
					c1.8,0,6.2-0.3,8.8-0.5c-0.3-0.3-0.6-0.7-0.9-1c-0.7-0.7-1.4-1.2-2.2-1.7C113.7,104.7,110.3,105,107,104.9z"/>
				<path class="st0" d="M99.3,117.6c5.3-0.4,17.6-0.5,22.8-0.5c0.1-1.5,0-2.9-0.3-4.4c-1.9,0.1-4,0.2-5.1,0.2
					c-2.2,0-15.2-0.3-22.6-1.7c-7.1-1.3-15.6-1.6-15.7-1.6l0-0.8c0.1,0,8.6,0.3,15.8,1.7c7.3,1.4,20.2,1.7,22.4,1.7
					c1,0,3-0.1,4.9-0.2c-0.4-1.5-1.2-2.9-2.1-4.2c-2.5,0.2-7.3,0.6-9.3,0.6c-2.8,0-10.2-1.6-11.1-2.2c-0.2-0.2-0.5-0.3-0.7-0.5
					c-0.3-0.3-0.4-0.6-0.3-0.9c0.3-0.9,2.6-1,9-0.7c2.8,0.1,5.7-0.1,7.8-0.3c-2.2-1.1-4.7-1.6-7.2-1.5l0,0l-9.7,0
					c-0.5,0.4-0.9,0.7-1.4,1.1c-1.1,0.9-2.2,1.7-3,2.1c-2,0.9-4.6,1.2-8,1.1c-3.2-0.1-12.5-1.2-12.6-1.2l0.1-0.8
					c0.1,0,9.4,1.1,12.6,1.2c3.3,0.1,5.8-0.2,7.7-1c0.7-0.3,1.8-1.1,2.8-2c0.2-0.2,0.4-0.3,0.6-0.5l-29.2-0.1V129l0,0.5l40.7,0l0,0
					c1.6,0,3.2-0.2,4.8-0.7c-1.6,0-3.3-0.2-4.6-0.6c-2.8-0.8-7.8-0.6-11.1-0.5c-0.7,0-1.3,0.1-1.8,0.1c-3.1,0.1-25.7,0.1-25.9,0.1
					l0-0.8c0.2,0,22.8-0.1,25.9-0.1c0.5,0,1.1,0,1.8-0.1c3.4-0.2,8.4-0.4,11.4,0.5c1.7,0.5,4.2,0.6,6.2,0.5c1.1-0.6,2.2-1.3,3.1-2.3
					c-2.5-0.2-5.1-0.9-7.9-1.6c-1.4-0.4-2.8-0.7-4.3-1.1c-3.7-0.9-9.3-0.1-12.6,0.4c-0.9,0.1-1.6,0.2-2,0.3
					c-2.1,0.2-13.5,0.4-14,0.4l0-0.8c0.1,0,11.9-0.2,14-0.4c0.4,0,1.1-0.1,2-0.2c3.4-0.5,9-1.2,12.9-0.4c1.5,0.4,3,0.7,4.3,1.1
					c3,0.8,5.7,1.5,8.4,1.6c0.3-0.3,0.6-0.7,0.9-1.1c-1.2-0.1-2.5-0.3-3.8-0.6c-2.2-0.4-3.8-1.1-4.5-1.8c-0.3-0.3-0.4-0.6-0.4-0.9
					c0-0.4,0.3-1,1.9-1.1c1.4-0.1,5.8-0.2,9-0.2c0.1-0.5,0.2-1,0.3-1.5c-5.3,0-17.4,0-22.7,0.5c-6.9,0.5-19.2-2.9-19.7-3l0.2-0.7
					C80,114.7,92.6,118.1,99.3,117.6z"/>
				<path class="st1" d="M99.3,117.6c-6.8,0.5-19.3-2.9-19.5-3l-0.2,0.7c0.5,0.1,12.8,3.5,19.7,3c5.3-0.4,17.4-0.5,22.7-0.5
					c0-0.3,0.1-0.5,0.1-0.8C117,117.1,104.7,117.2,99.3,117.6z"/>
				<path class="st1" d="M106,122.4c-3.8-0.9-9.5-0.1-12.9,0.4c-0.9,0.1-1.6,0.2-2,0.2c-2.1,0.2-13.8,0.4-14,0.4l0,0.8
					c0.5,0,11.9-0.2,14-0.4c0.5,0,1.2-0.1,2-0.3c3.3-0.5,8.9-1.2,12.6-0.4c1.5,0.3,2.9,0.7,4.3,1.1c2.8,0.7,5.3,1.4,7.9,1.6
					c0.1-0.1,0.3-0.2,0.4-0.4c0.1-0.1,0.2-0.3,0.3-0.4c-2.7-0.1-5.4-0.8-8.4-1.6C109,123.1,107.5,122.7,106,122.4z"/>
				<path class="st1" d="M158.7,115.1c-7.3,0.2-13.6-0.7-20.7-1.7c-5.2-0.8-11.8-1.4-15.7-1.4c-1.4,0-4.4,0.3-5.4,0.3
					c-2.2,0-15.1-0.3-22.4-1.7c-7.2-1.3-15.7-1.6-15.8-1.7l0,0.8c0.1,0,8.6,0.3,15.7,1.6c7.3,1.4,20.3,1.7,22.6,1.7
					c0.9,0,2.7-0.2,4.4-0.2c4.2-0.1,13.1,0.7,19.4,1.7c6.2,0.9,11.9,2,18.1,1.2C158.7,115.5,158.7,115.3,158.7,115.1z"/>
				<path class="st1" d="M107,104.1c-6.4-0.3-8.7-0.3-9,0.7c-0.1,0.3,0.1,0.6,0.3,0.9c0.2,0.2,0.5,0.4,0.7,0.5
					c0.9,0.6,8.3,2.2,11.1,2.2c2,0,6.8-0.4,9.3-0.6c-0.2-0.2-0.4-0.5-0.6-0.7c-2.6,0.2-6.9,0.5-8.8,0.5c-2.8,0-10-1.6-10.7-2.1
					c-0.5-0.3-0.6-0.5-0.7-0.5c0.7-0.5,5.5-0.3,8.2-0.1c3.3,0.2,6.7-0.2,9-0.5c-0.4-0.2-0.7-0.4-1.1-0.6
					C112.7,104,109.8,104.3,107,104.1z"/>
				<path class="st1" d="M93.2,104.8c-1.8,0.8-4.4,1.2-7.7,1c-3.2-0.1-12.5-1.2-12.6-1.2l-0.1,0.8c0.1,0,9.4,1.1,12.6,1.2
					c3.4,0.1,6.1-0.2,8-1.1c0.8-0.4,1.9-1.2,3-2.1c0.5-0.4,0.9-0.7,1.4-1.1l-1.2,0c-0.2,0.2-0.4,0.3-0.6,0.5
					C95,103.6,94,104.4,93.2,104.8z"/>
				<path class="st1" d="M108.6,127.5c-2.9-0.9-8-0.6-11.4-0.5c-0.7,0-1.3,0.1-1.8,0.1c-3.1,0.1-25.7,0.1-25.9,0.1l0,0.8
					c0.2,0,22.9-0.1,25.9-0.1c0.5,0,1.2,0,1.8-0.1c3.3-0.2,8.3-0.4,11.1,0.5c1.3,0.4,3,0.5,4.6,0.6c0.6-0.2,1.3-0.3,1.9-0.7
					C112.8,128.2,110.3,128,108.6,127.5z"/>
			</g>
			<path class="st1" d="M135.8,117.6c-6.8,0.5-11-0.9-20-0.4l-0.4,0.8c9.6-0.5,13.5,1,20.4,0.4c5.3-0.4,17.4-0.5,22.7-0.5
				c0-0.3,0.1-0.5,0.1-0.8C153.4,117.1,141.2,117.2,135.8,117.6z"/>
			<path class="st1" d="M142.5,122.4c-3.8-0.9-6.9,0-12.3,1.1c-1.9,0.4-7.2,1.4-8.5,1.5c-4.9,0.4-8.9-0.9-9-0.9l-0.2,0.7
				c6.8,2.3,15.2,0,16.1-0.2c3.3-0.5,9.9-2.4,13.6-1.6c1.5,0.3,2.9,0.7,4.3,1.1c2.8,0.7,5.3,1.4,7.9,1.6c0.1-0.1,0.3-0.2,0.4-0.4
				c0.1-0.1,0.2-0.3,0.3-0.4c-2.7-0.1-5.4-0.8-8.4-1.6C145.4,123.1,144,122.7,142.5,122.4z"/>
			<path class="st1" d="M149.2,119.6c-1.6,0.1-1.9,0.7-1.9,1.1c0,0.3,0.1,0.6,0.4,0.9c0.7,0.7,2.3,1.3,4.5,1.8
				c1.3,0.3,2.6,0.5,3.8,0.6c0.2-0.2,0.3-0.5,0.5-0.7c-1.3-0.1-2.7-0.4-4.1-0.6c-3.3-0.7-4.3-1.6-4.3-1.9c0-0.1,0.2-0.3,1.2-0.4
				c1.7-0.1,5.8-0.2,8.7-0.2c0.1-0.3,0.2-0.5,0.2-0.8C155.1,119.4,150.7,119.5,149.2,119.6z"/>
			<path class="st1" d="M130.8,107.8c-7.2-1.3-11.7-0.8-11.8-0.8l0.6,0.7c0.1,0,5-0.2,12.1,1.1c7.3,1.4,19.4,4.1,21.6,4.1
				c1.1,0,3.1-0.1,5.1-0.2c-0.1-0.3-0.1-0.5-0.2-0.8c-1.9,0.1-3.8,0.2-4.9,0.2C151,112.3,138.1,109.2,130.8,107.8z"/>
			<path class="st1" d="M143.5,104.1c-6.4-0.3-8.7-0.3-9,0.7c-0.1,0.3,0.1,0.6,0.3,0.9c0.2,0.2,0.5,0.4,0.7,0.5
				c0.9,0.6,8.3,2.2,11.1,2.2c2,0,6.8-0.4,9.3-0.6c-0.2-0.2-0.4-0.5-0.6-0.7c-2.6,0.2-6.9,0.5-8.8,0.5c-2.8,0-10-1.6-10.7-2.1
				c-0.5-0.3-0.6-0.5-0.7-0.5c0.7-0.5,5.5-0.3,8.2-0.1c3.3,0.2,6.7-0.2,9-0.5c-0.4-0.2-0.7-0.4-1.1-0.6
				C149.1,104,146.2,104.3,143.5,104.1z"/>
			<path class="st1" d="M133.2,102.3c-0.2,0.2-0.4,0.4-0.6,0.5c-4.3,1.8-8.9,0.8-12.3,0.6c-1.8-0.1-4.7,0.3-7.1,0.6l0,0.8
				c2.3-0.2,4.8-0.6,6.5-0.5c3.4,0.1,9.7,1.3,13.3-0.8c0.5-0.3,0.9-0.7,1.4-1.1L133.2,102.3z"/>
			<path class="st1" d="M145.1,127.5c-2.9-0.9-8-0.6-11.4-0.5c-0.7,0-1.3,0.1-1.8,0.1c-1.2,0-7.6,1.1-12.3,1.1
				c-3.2,0-7.2-0.2-9.5-0.4l0.9,0.8c2.4,0.2,5.4,0.5,8.7,0.4c4.9,0,11.1-1.2,12.4-1.2c0.5,0,1.2,0,1.8-0.1c3.3-0.2,8.3-0.4,11.1,0.5
				c1.3,0.4,3,0.5,4.6,0.6c0.6-0.2,1.3-0.5,1.8-0.8C149.2,128.1,146.7,128,145.1,127.5z"/>
			<g>
				<path class="st1" d="M67.6,102.2C67.6,102.2,67.6,102.2,67.6,102.2l0,27.4c0,0,0,0,0,0c7.6,0,13.7-6.1,13.7-13.7
					C81.3,108.3,75.1,102.2,67.6,102.2z"/>
			</g>
			<g>
				<path class="st2" d="M67.6,104.4C67.6,104.4,67.6,104.4,67.6,104.4l0,22.9c0,0,0,0,0,0c6.3,0,11.4-5.1,11.4-11.4
					S73.9,104.4,67.6,104.4z"/>
			</g>
			<g>
				<path class="st3" d="M67.6,110.5C67.6,110.5,67.6,110.5,67.6,110.5l0,10.8c0,0,0,0,0,0c3,0,5.4-2.4,5.4-5.4
					C73,112.9,70.6,110.5,67.6,110.5z"/>
			</g>
			<g>
				<path class="st3" d="M67.6,107.3C67.6,107.3,67.6,107.3,67.6,107.3l0,0.5c0,0,0,0,0,0c4.4,0,8,3.6,8,8s-3.6,8-8,8c0,0,0,0,0,0
					v0.5c0,0,0,0,0,0c4.7,0,8.6-3.8,8.6-8.6C76.1,111.1,72.3,107.3,67.6,107.3z"/>
			</g>
			<g>
				<path class="st3" d="M67.6,108.8C67.6,108.8,67.6,108.8,67.6,108.8l0,0.5c0,0,0,0,0,0c3.6,0,6.5,2.9,6.5,6.5s-2.9,6.5-6.5,6.5
					c0,0,0,0,0,0v0.5c0,0,0,0,0,0c3.9,0,7-3.2,7-7C74.6,112,71.5,108.8,67.6,108.8z"/>
			</g>
			<g>
				<path class="st3" d="M67.6,105.8C67.6,105.8,67.6,105.8,67.6,105.8l0,0.5c0,0,0,0,0,0c5.2,0,9.5,4.3,9.5,9.5
					c0,5.2-4.3,9.5-9.5,9.5c0,0,0,0,0,0v0.5c0,0,0,0,0,0c5.5,0,10-4.5,10-10S73.1,105.8,67.6,105.8z"/>
			</g>
		</g>
		<path class="st2" d="M67.6,111.8C67.5,111.8,67.5,111.8,67.6,111.8l0,17.8h0.4v-17.4C67.9,111.9,67.8,111.8,67.6,111.8z"/>
		<g>
			<polygon class="st8" points="51,173.5 50.9,148.5 59.6,147.4 67.6,173.5 69.5,173.5 60.3,145.2 49.3,146.6 49,173.5 			"/>
		</g>
		<path class="st9" d="M37.1,154.8h33c1,0,1.8-0.8,1.8-1.8v-6.7H37.1V154.8z"/>
		<polygon class="st10" points="166,141.5 163.7,141.5 104.9,141.5 104.9,141.5 31.5,141.5 31.5,173.5 37.1,173.5 37.1,146.9 
			99.8,146.9 99.8,173.5 104.9,173.5 104.9,146.9 163.7,146.9 163.7,173.5 169.2,173.5 169.2,141.5 		"/>
		<rect x="20.1" y="137.5" class="st11" width="152.9" height="4"/>
	</g>
	<g>
		<g>
			<g>
				<g>
					<path class="st5" d="M106.7,76.1l-2.1,7.6l27,2.7l-5.7-11.2L106.7,76.1z M109.6,80.3c-0.7,0-1.3-0.5-1.3-1.2
						c0-0.7,0.5-1.3,1.2-1.3c0.7,0,1.3,0.5,1.3,1.2C110.8,79.6,110.3,80.2,109.6,80.3z"/>
					<polygon class="st5" points="129.1,75 135.1,86.8 140.1,87.3 133.8,74.8 					"/>
					<path class="st5" d="M157.3,87.2c0,0-0.5-2.9-0.9-5.9c-0.4-3-0.7-6-0.8-7.5l-15.4,0.8L147,88l8.9,0.9L157.3,87.2z"/>
					<polygon class="st4" points="133.8,74.8 140.1,87.3 147,88 140.2,74.5 					"/>
					<polygon class="st4" points="125.9,75.2 131.6,86.4 135.1,86.8 129.1,75 					"/>
				</g>
				<path class="st4" d="M160.7,86.9c0,0-2.6,2-4.6,3.2l-0.6,1.3l-0.3-1.2l-0.5,1.2l-0.3-1.2l-0.5,1.2l-0.3-1.2l-0.5,1.2l-0.3-1.2
					l-0.5,1.2l-0.3-1.2l-0.5,1.2l-0.3-1.2l-0.5,1.2l-0.3-1.2l-0.5,1.2l-0.3-1.3l-0.5,1.2l-0.3-1.2l-0.5,1.2l-0.3-1.2l-0.5,1.2
					l-0.3-1.2l-0.5,1.2l-0.3-1.2l-0.5,1.1l-0.2-1.2l-0.6,1.2l-0.2-1.2l-0.6,1.2l-0.2-1.3l-0.6,1.2l-0.2-1.2c0,0,0,0,0,0l-0.6,1.2
					l-0.3-1.2l-0.6,1.2l-0.3-1.2l-0.6,1.2l-0.3-1.3L140,90l-0.3-1.3l-0.6,1.2l-0.3-1.2l-0.6,1.2l-0.3-1.2l-0.6,1.2l-0.3-1.3
					l-0.6,1.2l-0.3-1.3l-0.6,1.2l-0.3-1.2l-0.6,1.2l-0.3-1.2l-0.6,1.2l-0.3-1.3l-0.6,1.2l-0.3-1.3l-0.6,1.2l-0.3-1.2l-0.6,1.2
					l-0.3-1.2l-0.6,1.2l-0.3-1.3l-0.6,1.2l-0.3-1.2l-0.6,1.1l-0.2-1.2l-0.6,1.2l-0.2-1.2l-0.6,1.2l-0.2-1.3l-0.6,1.2l-0.3-1.3
					l-0.6,1.1l-0.2-1.2l-0.6,1.2l-0.2-1.2l-0.6,1.2l-0.2-1.3l-0.6,1.2l-0.3-1.3l-0.6,1.1l-0.2-1.2l-0.6,1.2l-0.2-1.2l-0.6,1.2
					l-0.2-1.3l-0.6,1.2l-0.3-1.3l-0.6,1.2l-0.2-1.2l-0.6,1.2l-0.2-1.2l-0.6,1.2l-0.2-1.3l-0.6,1.2l-0.3-1.3l-0.6,1.1l-0.2-1.2
					l-0.6,1.2L115,86l-0.6,1.2l-0.2-1.3l-0.6,1.2l-0.3-1.3l-0.6,1.1l-0.2-1.2l-0.6,1.2l-0.2-1.2l-0.6,1.2l-0.2-1.3l-0.6,1.2
					l-0.2-1.3l-0.5,1.1l-0.2-1.2l-0.6,1.2l-0.2-1.2l-0.6,1.2l-0.2-1.3l-0.6,1.2l-0.3-1.3l-0.6,1.2l-0.2-1.2l-0.6,1.1l-0.3-1.3
					l-0.6,1.2l-0.3-1.4l0.3-1.1c0,0,35.3,3.8,50.7,4.9c0.5,0,1.6-0.9,1.5-1.4c-0.3-1.6-0.4-2.1-0.8-5.8c-0.3-3-0.4-6-0.6-7.5
					l2.5-0.1L160.7,86.9z"/>
			</g>
			<g>
				<path class="st8" d="M172.1,89.5c1.8-0.1,4.4-0.4,6-1.5c0-0.4-0.1-0.6-0.2-0.9c-1.6,0.3-5.2,0.8-7.6,0.6c-3.1-0.3-2.3-2-2.7-7
					c-0.2-2.9-0.4-6.4-1.3-7.2c-1.1-0.9-3.5-1.3-6.6-0.3c-0.9,0.3-1.8,1.1-2.6,1.2c-0.2,2.1,0.2,5.7,0.4,7.6
					c0.4,1.2,0.9,2.4,1.3,3.6c1.8,1,4.2,2.3,6.9,3.1C168,89.2,170,89.6,172.1,89.5z"/>
				<path class="st12" d="M172,90.3c3.2-0.2,6-0.4,6.1-2.3c0,0,0-0.1,0-0.1c-1.6,1.2-4.2,1.4-6,1.5c-2.1,0.2-4.1-0.3-6.1-0.9
					c-2.7-0.8-5.2-2.1-6.9-3.1c0.2,0.5,0.4,0.9,0.6,1.4C163.7,89,166.6,90.7,172,90.3z"/>
			</g>
			<path class="st12" d="M169.6,71c4.8-0.5,7.6-0.4,7.8,1.3c0.3,2.2-1.5,1.4-2.2,2.9c-0.4,0.8,0.1,2.9,0.3,4.9
				c0.1,2.1-0.4,4.7,0.4,5.5c0.6,0.7,1.8,0.7,2.2,1.5c-1.6,0.3-3.8,1.2-7.2,1.2c-2.8,0-4-0.8-4-2.8c0-1.1,0.4-2.6,0.3-4.3
				c-0.1-1.9-1.1-3-1.1-4.6c0-1,0.1-2-0.1-2.4c-0.8-1.4-2.6-0.9-5.5-0.4c-0.9,0.2-2.3,0.5-3,0.6c0-0.2,0-1.4,0.1-2.3
				C160.7,71.8,163.8,71.6,169.6,71z M168,76.5c0.3,1.1,1,2.7,1.2,4.5c0.2,1.5-0.4,3-0.5,4.1c-0.1,1,1,2.1,2.2,2.1
				c1,0,2.2-1.2,2.1-2.2c0,0-0.6-2.4-0.8-4.7c-0.1-1.7,0.1-4.1,0.1-4.1c-0.1-1-1.2-2.2-2.2-2.1C169.2,74.1,167.7,75.1,168,76.5z"/>
			
				<ellipse transform="matrix(0.7071 -0.7071 0.7071 0.7071 -7.276 134.9445)" class="st13" cx="159.2" cy="76.3" rx="0.7" ry="0.7"/>
			
				<ellipse transform="matrix(0.7071 -0.7071 0.7071 0.7071 -11.0476 136.7047)" class="st13" cx="159.5" cy="81.7" rx="0.7" ry="0.7"/>
			
				<ellipse transform="matrix(0.7071 -0.7071 0.7071 0.7071 -12.0461 140.6201)" class="st13" cx="163.7" cy="84.9" rx="0.7" ry="0.7"/>
		</g>
		<path class="st10" d="M170.2,75.1h1.8c0,0,0-3.6,0-4.8c0-1.7,1.9-1.7,1.9,0c0,2.2,0,4.8,0,6c0,0.5-0.2,0.9-0.7,0.9
			c-0.7,0-2.9,0-2.9,0s-0.6-0.1-0.6-1C169.5,75.3,170.2,75.1,170.2,75.1z"/>
		<path class="st10" d="M112.7,88.2h1.8c0,0,0-3.6,0-4.8c0-1.7,1.9-1.7,1.9,0c0,2.2,0,4.8,0,6c0,0.5-0.2,0.9-0.7,0.9
			c-0.7,0-2.9,0-2.9,0s-0.6-0.1-0.6-1C112,88.4,112.7,88.2,112.7,88.2z"/>
	</g>
	<g>
		<g>
			<g>
				<g>
					<path class="st3" d="M17.2,78.3h-2.9V48c0-0.5,0.4-0.9,0.9-0.9h1.1c0.5,0,0.9,0.4,0.9,0.9V78.3z"/>
					<path class="st2" d="M13.5,80.7L8.1,81c-0.5,0-1-0.4-1-1v-0.9c0-0.5,0.4-1,1-1l5.4,0.2V80.7z"/>
					<rect x="16.8" y="78.5" class="st9" width="2.8" height="2.3"/>
					<path class="st14" d="M17.1,81.6h-2.7c-0.5,0-0.9-0.4-0.9-0.9v-2.2c0-0.5,0.4-0.9,0.9-0.9h2.7c0.5,0,0.9,0.4,0.9,0.9v2.2
						C18,81.2,17.6,81.6,17.1,81.6z"/>
				</g>
				<g>
					<path class="st3" d="M78,78.3h2.9V48c0-0.5-0.4-0.9-0.9-0.9h-1.1c-0.5,0-0.9,0.4-0.9,0.9V78.3z"/>
					<path class="st2" d="M81.7,80.7l5.4,0.3c0.5,0,1-0.4,1-1v-0.9c0-0.5-0.4-1-1-1l-5.4,0.2V80.7z"/>
					
						<rect x="75.6" y="78.5" transform="matrix(-1 -1.224647e-016 1.224647e-016 -1 153.9128 159.2537)" class="st9" width="2.8" height="2.3"/>
					<path class="st14" d="M78,81.6h2.7c0.5,0,0.9-0.4,0.9-0.9v-2.2c0-0.5-0.4-0.9-0.9-0.9H78c-0.5,0-0.9,0.4-0.9,0.9v2.2
						C77.1,81.2,77.5,81.6,78,81.6z"/>
				</g>
				<path class="st2" d="M82.8,66.2H12.7c-0.5,0-0.9-0.4-0.9-0.9v-1.8c0-0.5,0.4-0.9,0.9-0.9h70.1c0.5,0,0.9,0.4,0.9,0.9v1.8
					C83.7,65.8,83.3,66.2,82.8,66.2z"/>
				<path class="st14" d="M47.7,67.4h-0.3c-0.4,0-0.7-0.3-0.7-0.7l-0.7-17.5c0-0.8,0.6-1.4,1.3-1.4H48c0.8,0,1.4,0.6,1.3,1.4
					l-0.9,17.5C48.4,67.1,48.1,67.4,47.7,67.4z"/>
			</g>
			<g>
				<rect x="19.6" y="77.5" class="st4" width="56.1" height="4.8"/>
				<g>
					<polygon class="st5" points="56.9,77.5 58.7,81.6 63.5,81.6 61.7,77.5 					"/>
					<polygon class="st5" points="19.6,77.5 19.6,81.6 53.8,81.6 52,77.5 					"/>
					<polygon class="st5" points="75.7,77.5 64.2,77.5 66,81.6 75.7,81.6 					"/>
					<polygon class="st4" points="52,77.5 53.8,81.6 58.7,81.6 56.9,77.5 					"/>
					<polygon class="st4" points="61.7,77.5 63.5,81.6 66,81.6 64.2,77.5 					"/>
					<polygon class="st4" points="47.6,77.5 49.3,81.6 51.8,81.6 50.1,77.5 					"/>
				</g>
				<g>
					<polygon class="st4" points="20.5,82.3 21.4,82.3 20.5,84.4 19.6,82.3 					"/>
					<polygon class="st4" points="22.3,82.3 23.2,82.3 22.3,84.4 21.4,82.3 					"/>
					<polygon class="st4" points="24.1,82.3 25,82.3 24.1,84.4 23.2,82.3 					"/>
					<polygon class="st4" points="25.9,82.3 26.8,82.3 25.9,84.4 25,82.3 					"/>
					<polygon class="st4" points="27.7,82.3 28.6,82.3 27.7,84.4 26.8,82.3 					"/>
					<polygon class="st4" points="29.5,82.3 30.4,82.3 29.5,84.4 28.6,82.3 					"/>
					<polygon class="st4" points="31.3,82.3 32.2,82.3 31.3,84.4 30.4,82.3 					"/>
					<polygon class="st4" points="33.1,82.3 34,82.3 33.1,84.4 32.2,82.3 					"/>
					<polygon class="st4" points="34.9,82.3 35.9,82.3 34.9,84.4 34,82.3 					"/>
					<polygon class="st4" points="36.8,82.3 37.7,82.3 36.8,84.4 35.9,82.3 					"/>
					<polygon class="st4" points="38.6,82.3 39.5,82.3 38.6,84.4 37.7,82.3 					"/>
					<polygon class="st4" points="40.4,82.3 41.3,82.3 40.4,84.4 39.5,82.3 					"/>
					<polygon class="st4" points="42.2,82.3 43.1,82.3 42.2,84.4 41.3,82.3 					"/>
					<polygon class="st4" points="44,82.3 44.9,82.3 44,84.4 43.1,82.3 					"/>
					<polygon class="st4" points="45.8,82.3 46.7,82.3 45.8,84.4 44.9,82.3 					"/>
					<polygon class="st4" points="47.6,82.3 48.5,82.3 47.6,84.4 46.7,82.3 					"/>
					<polygon class="st4" points="49.4,82.3 50.3,82.3 49.4,84.4 48.5,82.3 					"/>
					<polygon class="st4" points="51.3,82.3 52.2,82.3 51.3,84.4 50.3,82.3 					"/>
					<polygon class="st4" points="53.1,82.3 54,82.3 53.1,84.4 52.2,82.3 					"/>
					<polygon class="st4" points="54.9,82.3 55.8,82.3 54.9,84.4 54,82.3 					"/>
					<polygon class="st4" points="56.7,82.3 57.6,82.3 56.7,84.4 55.8,82.3 					"/>
					<polygon class="st4" points="58.5,82.3 59.4,82.3 58.5,84.4 57.6,82.3 					"/>
					<polygon class="st4" points="60.3,82.3 61.2,82.3 60.3,84.4 59.4,82.3 					"/>
					<polygon class="st4" points="62.1,82.3 63,82.3 62.1,84.4 61.2,82.3 					"/>
					<polygon class="st4" points="63.9,82.3 64.8,82.3 63.9,84.4 63,82.3 					"/>
					<polygon class="st4" points="65.7,82.3 66.6,82.3 65.7,84.4 64.8,82.3 					"/>
					<polygon class="st4" points="67.5,82.3 68.4,82.3 67.5,84.4 66.6,82.3 					"/>
					<polygon class="st4" points="69.4,82.3 70.3,82.3 69.4,84.4 68.4,82.3 					"/>
					<polygon class="st4" points="71.2,82.3 72.1,82.3 71.2,84.4 70.3,82.3 					"/>
					<polygon class="st4" points="73,82.3 73.9,82.3 73,84.4 72.1,82.3 					"/>
					<polygon class="st4" points="74.8,82.3 75.7,82.3 74.8,84.4 73.9,82.3 					"/>
				</g>
			</g>
			<g>
				<path class="st5" d="M80.9,50.6H14.2c-0.2,0-0.3-0.1-0.3-0.3v-0.5c0-0.2,0.1-0.3,0.3-0.3h66.7c0.2,0,0.3,0.1,0.3,0.3v0.5
					C81.2,50.5,81.1,50.6,80.9,50.6z"/>
				<path class="st9" d="M17.1,51.1h-2.8c-0.4,0-0.7-0.3-0.7-0.7v-0.7c0-0.4,0.3-0.7,0.7-0.7h2.8c0.4,0,0.7,0.3,0.7,0.7v0.7
					C17.8,50.8,17.5,51.1,17.1,51.1z"/>
				<path class="st9" d="M49,51.1h-2.8c-0.4,0-0.7-0.3-0.7-0.7v-0.7c0-0.4,0.3-0.7,0.7-0.7H49c0.4,0,0.7,0.3,0.7,0.7v0.7
					C49.7,50.8,49.4,51.1,49,51.1z"/>
				<path class="st9" d="M80.8,51.1H78c-0.4,0-0.7-0.3-0.7-0.7v-0.7c0-0.4,0.3-0.7,0.7-0.7h2.8c0.4,0,0.7,0.3,0.7,0.7v0.7
					C81.5,50.8,81.2,51.1,80.8,51.1z"/>
			</g>
		</g>
		<path class="st10" d="M19.2,67H21c0,0,0-3.6,0-4.8c0-1.7,1.9-1.7,1.9,0c0,2.2,0,4.8,0,6c0,0.5-0.2,0.9-0.7,0.9c-0.7,0-2.9,0-2.9,0
			s-0.6-0.1-0.6-1C18.6,67.2,19.2,67,19.2,67z"/>
		<path class="st10" d="M73.3,67h1.8c0,0,0-3.6,0-4.8c0-1.7,1.9-1.7,1.9,0c0,2.2,0,4.8,0,6c0,0.5-0.2,0.9-0.7,0.9
			c-0.7,0-2.9,0-2.9,0s-0.6-0.1-0.6-1C72.6,67.2,73.3,67,73.3,67z"/>
	</g>
	<g>
		<g>
			<path class="st14" d="M156.2,47c0,0,6.3,1.6,6.3,0c0-0.5,0-1-0.3-1.5c-0.3-0.4-0.3-0.9-0.2-1.3c0.8-2.2,0-2.8,0-2.8L156.2,47z"/>
			<polygon class="st3" points="161.7,40.9 152.4,50.1 149.8,47.5 159.1,38.3 			"/>
			<path class="st5" d="M164.2,39.4l-8.6,8.6l-0.5-0.5l8.6-8.6c0.1-0.1,0.4-0.1,0.5,0l0,0C164.3,39,164.3,39.2,164.2,39.4z"/>
			<g>
				<path class="st3" d="M140.2,35.4l-2.7,0c-1.5,2.8-2,5.2-1.3,7c1.1,2.9,1.4,4.4,1.5,6.3c1-0.3,2.2-1.6,2.2-1.6s0.3-0.3,1.3-0.2
					c-0.4-3.3-1.9-4.7-1.9-7C139.3,38.4,139.5,36.9,140.2,35.4z"/>
				<g>
					<rect x="133.5" y="50.6" class="st14" width="30.6" height="2.1"/>
					<path class="st3" d="M163.6,54H134c-0.3,0-0.6-0.2-0.6-0.6v-1h30.6v1.1C164.1,53.8,163.9,54,163.6,54z"/>
					<path class="st2" d="M133.5,50.6c4.3,0,30.6,0,30.6,0V48c0-0.6-0.5-1-1-1l-23.4-0.2C139.6,46.7,138.7,48.9,133.5,50.6z"/>
				</g>
			</g>
			<circle class="st15" cx="152.7" cy="48.7" r="1.1"/>
			<circle class="st16" cx="152.7" cy="48.7" r="0.6"/>
		</g>
		<g>
			<g>
				<polygon class="st7" points="145.4,22 147,23.2 148.2,23.2 146.6,22 				"/>
				<polygon class="st7" points="142.9,22 144.5,23.2 145.7,23.2 144.1,22 				"/>
				<polygon class="st7" points="137.9,22 139.5,23.2 140.8,23.2 139.2,22 				"/>
				<polygon class="st7" points="140.4,22 142,23.2 143.2,23.2 141.6,22 				"/>
				<polygon class="st7" points="147.9,22 149.5,23.2 150.7,23.2 149.1,22 				"/>
				<polygon class="st7" points="155.3,22 150.4,22 152,23.2 155.3,23.2 				"/>
				<polygon class="st15" points="149.1,22 150.7,23.2 152,23.2 150.4,22 				"/>
				<polygon class="st15" points="146.6,22 148.2,23.2 149.5,23.2 147.9,22 				"/>
				<polygon class="st15" points="144.1,22 145.7,23.2 147,23.2 145.4,22 				"/>
				<polygon class="st15" points="141.6,22 143.2,23.2 144.5,23.2 142.9,22 				"/>
				<polygon class="st15" points="139.2,22 140.8,23.2 142,23.2 140.4,22 				"/>
				<polygon class="st15" points="137.9,22 138,23.2 139.5,23.2 				"/>
			</g>
			<g>
				<path class="st13" d="M168.5,22.6c0-3.1-1.6-5.5-5.9-5.5c-1.3,0-4.5,0.2-5.6,0.6c0,0,0,0,0,0v4.9H168.5z"/>
				<path class="st13" d="M157,22.6v4.9c0,0,0,0,0,0c1.1,0.4,4.3,0.6,5.6,0.6c4.3,0,5.8-2.5,5.9-5.5H157z"/>
				<path class="st4" d="M153.5,20.4v2.2h3.5v-4.9C155.5,18.3,154.2,19.3,153.5,20.4z"/>
				<path class="st4" d="M153.5,22.6v2.2c0.7,1.1,2,2.1,3.5,2.7v-4.9H153.5z"/>
			</g>
			<g>
				<polygon class="st4" points="168.3,28.6 162.6,28.3 162.6,16.8 168.3,16.7 				"/>
				<path class="st15" d="M171.3,18.8c0,0.5-0.4,1-1,1h-4.5c-0.5,0-1-0.4-1-1l0,0c0-0.5,0.4-1,1-1h4.5
					C170.8,17.8,171.3,18.2,171.3,18.8L171.3,18.8z"/>
				<path class="st15" d="M171.3,22.5c0,0.5-0.4,1-1,1h-4.5c-0.5,0-1-0.4-1-1l0,0c0-0.5,0.4-1,1-1h4.5
					C170.8,21.5,171.3,22,171.3,22.5L171.3,22.5z"/>
				<path class="st15" d="M171.3,26.5c0,0.5-0.4,1-1,1h-4.5c-0.5,0-1-0.4-1-1l0,0c0-0.5,0.4-1,1-1h4.5
					C170.8,25.5,171.3,25.9,171.3,26.5L171.3,26.5z"/>
			</g>
			<path class="st8" d="M173.5,34.2c0,0.5-0.4,0.9-0.9,0.9h-2.3c-0.5,0-0.9-0.4-0.9-0.9v-2.4c0-0.5,0.4-0.9,0.9-0.9h2.3
				c0.5,0,0.9,0.4,0.9,0.9V34.2z"/>
			<g>
				<path class="st12" d="M184.5,42.8c-0.4-0.1-0.8-0.3-1.2-0.6c-2.2-1.6-2.2-6.2-2.3-9c-0.1-2.3,0.4-4.8-1.4-4.8
					c-2,0-3.5-0.2-6.4-0.1c-2.5,0-3.1-0.3-3.1-1.4c-0.1-2.9-0.1-8,0-10.2H168c0,0,0,13.1,0,13.8c0,1,0.5,1.2,1,1.2
					c1.3,0,3.5,0,3.5,0s0,2.5,0,3.5c0,0.3,0.2,0.4,0.4,0.5c0.2,0.1,0.4,0.2,0.5,0.4c0.5-0.1,0.9-0.1,1.1-0.1
					c1.7-0.2,1.9,2.3,1.2,2.4c-0.5,0.2-1.4,0.3-2.3,0.5c0,0.3,0,0.5,0,0.8c0.9-0.2,1.9-0.4,2.2-0.4c1.4-0.2,1.9,2.3,0.9,2.6
					c-0.7,0.2-2,0.4-3.1,0.6c0,0.3,0,0.6,0,0.9c1-0.2,2.6-0.5,2.9-0.5c1.4-0.1,1.6,2.2,0.9,2.3c-1.1,0.3-2.8,0.6-3.9,0.8
					c0,0.8,0,1.3,0,1.3l11.5,0C185.1,47.4,184.8,45.4,184.5,42.8z"/>
				<path class="st8" d="M176.5,42.9c-0.4,0-2,0.3-2.9,0.5c0,1,0,1.9,0,2.6c1.1-0.2,2.8-0.6,3.9-0.8C178,45.1,177.8,42.8,176.5,42.9
					z"/>
				<path class="st8" d="M175.7,39.3c-0.3,0-1.3,0.2-2.2,0.4c0,0.9,0,1.8,0,2.7c1.1-0.2,2.4-0.4,3.1-0.6
					C177.6,41.7,177.1,39.2,175.7,39.3z"/>
				<path class="st8" d="M174.5,36c-0.2,0-0.6,0.1-1.1,0.1c0,0,0,0.1,0,0.2c0,0.3,0,1.3,0,2.6c0.9-0.1,1.7-0.3,2.3-0.5
					C176.4,38.3,176.2,35.8,174.5,36z"/>
			</g>
			<path class="st8" d="M184.5,28.5l3.7,0c2,0,3.6-1.6,3.6-3.6v-4.7c0-2-1.6-3.6-3.6-3.6H170c0,2.1-0.1,7.2,0,10.2
				c0,1.1,0.6,1.5,3.1,1.4c2.9,0,4.4,0.1,6.4,0.1c1.8,0,1.3,2.5,1.4,4.8c0.1,2.8,0.1,7.4,2.3,9c0.4,0.3,0.8,0.5,1.2,0.6
				C183.9,37.6,183.9,29.4,184.5,28.5z"/>
			<g>
				<path class="st13" d="M183,49.2c0.5-0.1,1.4-0.3,2.2-0.5l-0.5-4c0,0-10.1,1.5-13.5,3.4c-0.3,0.2-0.9,1-0.8,2.1
					c0,0.7,0,1.5,0,2.1c2.2-0.2,9-0.8,9.9-1C181.6,51,182.1,49.4,183,49.2z"/>
				<path class="st8" d="M170.4,53.9h15.4l-0.6-5.2c-0.8,0.1-1.8,0.3-2.2,0.5c-0.8,0.2-1.4,1.8-2.6,2.1c-0.9,0.2-7.7,0.8-9.9,1
					C170.4,53.2,170.4,53.9,170.4,53.9z"/>
			</g>
			<path class="st8" d="M174.6,30.1c0,1,0.6,1.5,1.7,1.4c1.5,0,2.9-0.8,3.1-1.5c0.1-0.6-1.3-0.7-2.8-0.7
				C175.4,29.3,174.6,29.3,174.6,30.1z"/>
			<g>
				<path class="st6" d="M180.9,19c-1.2,0-2.3,0.1-3.3,0.1c-3.5,0.2-4.5,3.5-5.3,5.4c-0.6,1.3,0,2.1,3.2,2.3c1,0,2.1,0.1,3.3,0.1
					c0.3-0.6,0.9-1.8,1.5-4C180.7,21.5,180.9,20.1,180.9,19z"/>
				<path class="st6" d="M184.3,19c-0.7,0-1.4,0-2.2,0c-0.1,1.1-0.3,2.6-0.7,4.2c-0.5,1.8-0.9,3-1.3,3.7c0.7,0,1.4,0,2,0
					c0.3-0.6,0.9-1.8,1.5-4C184,21.5,184.2,20.1,184.3,19z"/>
				<path class="st6" d="M187.6,19.1c-0.5,0-1.3,0-2.2,0c-0.1,1.1-0.3,2.6-0.7,4.2c-0.5,1.8-0.9,3-1.3,3.7c0.7,0,1.4,0,2,0
					c0.3-0.6,0.9-1.8,1.5-4C187.3,21.5,187.5,20.1,187.6,19.1z"/>
				<path class="st6" d="M188.7,19.1c-0.1,1.1-0.3,2.6-0.7,4.1c-0.5,1.8-0.9,3-1.3,3.7c0.5,0,0.9,0,1.1,0c2.1-0.1,1.9-3.1,1.9-4.3
					C189.7,21.5,189.9,19.6,188.7,19.1z"/>
				<path class="st8" d="M185.4,19c-0.4,0-0.7,0-1.1,0c-0.1,1-0.3,2.5-0.7,4c-0.6,2.3-1.2,3.5-1.5,4c0.4,0,0.9,0,1.3,0
					c0.4-0.8,0.8-1.9,1.3-3.7C185.1,21.7,185.3,20.1,185.4,19z"/>
				<path class="st8" d="M182.1,19c-0.4,0-0.8,0-1.1,0c-0.1,1-0.3,2.5-0.7,3.9c-0.6,2.2-1.1,3.4-1.5,4c0.4,0,0.8,0,1.3,0
					c0.4-0.8,0.8-1.9,1.3-3.7C181.8,21.7,182,20.1,182.1,19z"/>
				<path class="st8" d="M188.7,19.1c-0.2-0.1-0.4-0.1-0.6-0.1c-0.1,0-0.3,0-0.5,0c-0.1,1-0.3,2.5-0.7,3.9c-0.6,2.2-1.2,3.4-1.5,4
					c0.5,0,0.9,0,1.3,0c0.4-0.8,0.8-1.9,1.3-3.7C188.4,21.7,188.6,20.2,188.7,19.1z"/>
			</g>
		</g>
		<rect x="107.7" y="57.5" class="st17" width="3" height="5.3"/>
		<rect x="110.7" y="57.5" class="st10" width="3" height="5.3"/>
		<rect x="177.5" y="57.5" class="st17" width="3" height="5.3"/>
		<rect x="180.5" y="57.5" class="st10" width="3" height="5.3"/>
		<rect x="106.8" y="53.9" class="st10" width="85.7" height="3.7"/>
		<rect x="98.3" y="53.9" class="st17" width="8.5" height="3.7"/>
		<g>
			<g>
				<rect x="114.2" y="53.2" class="st8" width="14.6" height="0.7"/>
				<polygon class="st15" points="129.3,51.1 128.5,51.1 128.5,53.1 126.4,53.1 126.4,54 129.3,53.9 				"/>
			</g>
			<path class="st18" d="M121.2,47.5c0,1,0,3,0,4.4c0,1.1-0.8,1.9-1.8,2c-1.5,0-3.5,0-4.6,0c-1.2,0-3.6,0-5-0.1
				c-0.8,0-1.4-0.6-1.4-1.4c0-1.5,0-3.9,0-5c0-3.6,2.9-6.4,6.4-6.4C118.3,41.1,121.2,44,121.2,47.5z"/>
			<circle class="st8" cx="114.8" cy="47.5" r="5.5"/>
			<circle class="st18" cx="114.8" cy="47.5" r="3.2"/>
			<g>
				<path class="st6" d="M114.8,51.6c-2.2,0-4-1.8-4-4c0-2.2,1.8-4,4-4c2.2,0,4,1.8,4,4C118.8,49.8,117,51.6,114.8,51.6z
					 M114.8,43.7c-2.1,0-3.8,1.7-3.8,3.8c0,2.1,1.7,3.8,3.8,3.8c2.1,0,3.8-1.7,3.8-3.8C118.6,45.4,116.9,43.7,114.8,43.7z"/>
			</g>
			<g>
				<path class="st8" d="M120.9,43.9c-1-1.6-2.4-2.4-3.7-2.8c0,0-0.2,0.4-0.4,0.8c0.8,0.2,2.2,0.8,3.2,2.3c0.9,1.3,1,3,1,4.5
					c0.4,0,0.7-0.1,0.7-0.1S122.1,45.9,120.9,43.9z"/>
				<path class="st12" d="M120.3,43.9c-1-1.4-2.6-2.2-3.4-2.5c-0.4,0.7-0.4,1.4,0,1.6c1.3,0.7,2.9,1.2,2.9,4.5
					c0,0.8,0.7,1.2,1.3,1.1C121.3,47.2,121.2,45.3,120.3,43.9z"/>
			</g>
			<rect x="114.6" y="46.1" class="st19" width="2.6" height="0.7"/>
			<rect x="113.5" y="47.4" class="st15" width="3.8" height="1.5"/>
		</g>
	</g>
	<g>
		<g>
			<g>
				<polygon class="st4" points="20.8,23.4 19.5,23.4 20.8,26.3 22.1,23.4 				"/>
				<polygon class="st4" points="22.9,24.1 21.7,24.1 22.9,27 24.2,24.1 				"/>
				<polygon class="st4" points="25.1,24.8 23.8,24.8 25.1,27.7 26.4,24.8 				"/>
				<polygon class="st4" points="27.2,25.6 26,25.6 27.2,28.5 28.5,25.6 				"/>
				<polygon class="st4" points="29.5,26.3 28.2,26.3 29.5,29.2 30.8,26.3 				"/>
				<polygon class="st4" points="31.8,27 30.5,27 31.8,29.9 33.1,27 				"/>
				<polygon class="st4" points="34.1,27.5 32.8,27.5 34.1,30.5 35.4,27.5 				"/>
				<polygon class="st4" points="36.4,28.2 35.1,28.2 36.4,31.2 37.7,28.2 				"/>
				<polygon class="st4" points="38.7,28.7 37.5,28.7 38.7,31.6 40,28.7 				"/>
				<polygon class="st4" points="41,29.2 39.8,29.2 41,32.1 42.3,29.2 				"/>
				<polygon class="st4" points="43.3,29.9 42,29.9 43.3,32.8 44.6,29.9 				"/>
				<polygon class="st4" points="45.6,30.4 44.3,30.4 45.6,33.3 46.9,30.4 				"/>
				<polygon class="st4" points="48.1,30.9 46.8,30.9 48.1,33.8 49.3,30.9 				"/>
				<polygon class="st4" points="50.4,31.2 49.1,31.2 50.4,34.2 51.6,31.2 				"/>
				<polygon class="st4" points="52.7,31.7 51.4,31.7 52.7,34.6 54,31.7 				"/>
				<polygon class="st4" points="55,31.9 53.7,31.9 55,34.9 56.3,31.9 				"/>
				<polygon class="st4" points="57.4,32.3 56.1,32.3 57.4,35.2 58.7,32.3 				"/>
				<polygon class="st4" points="59.7,32.5 58.4,32.5 59.7,35.4 61,32.5 				"/>
				<polygon class="st4" points="62,32.6 60.8,32.6 62,35.6 63.3,32.6 				"/>
				<polygon class="st4" points="64.4,32.8 63.1,32.8 64.4,35.7 65.6,32.8 				"/>
			</g>
			<g>
				<polygon class="st4" points="110.4,23.6 111.7,23.6 110.4,26.5 109.2,23.6 				"/>
				<polygon class="st4" points="108.3,24.3 109.6,24.3 108.3,27.2 107,24.3 				"/>
				<polygon class="st4" points="106.1,25 107.4,25 106.1,27.9 104.9,25 				"/>
				<polygon class="st4" points="104,25.8 105.3,25.8 104,28.7 102.8,25.8 				"/>
				<polygon class="st4" points="101.8,26.5 103,26.5 101.8,29.4 100.5,26.5 				"/>
				<polygon class="st4" points="99.4,27.2 100.7,27.2 99.4,30.1 98.2,27.2 				"/>
				<polygon class="st4" points="97.2,27.7 98.4,27.7 97.2,30.7 95.9,27.7 				"/>
				<polygon class="st4" points="94.9,28.4 96.1,28.4 94.9,31.3 93.6,28.4 				"/>
				<polygon class="st4" points="92.5,28.9 93.8,28.9 92.5,31.8 91.3,28.9 				"/>
				<polygon class="st4" points="90.2,29.4 91.5,29.4 90.2,32.3 88.9,29.4 				"/>
				<polygon class="st4" points="88,30.1 89.2,30.1 88,33 86.7,30.1 				"/>
				<polygon class="st4" points="85.7,30.6 86.9,30.6 85.7,33.5 84.4,30.6 				"/>
				<polygon class="st4" points="83.2,31.1 84.5,31.1 83.2,34 81.9,31.1 				"/>
				<polygon class="st4" points="80.9,31.4 82.2,31.4 80.9,34.4 79.6,31.4 				"/>
				<polygon class="st4" points="78.5,31.9 79.8,31.9 78.5,34.8 77.3,31.9 				"/>
				<polygon class="st4" points="76.2,32.1 77.5,32.1 76.2,35 75,32.1 				"/>
				<polygon class="st4" points="73.9,32.5 75.1,32.5 73.9,35.4 72.6,32.5 				"/>
				<polygon class="st4" points="71.6,32.6 72.8,32.6 71.6,35.6 70.3,32.6 				"/>
				<polygon class="st4" points="69.2,32.8 70.5,32.8 69.2,35.8 67.9,32.8 				"/>
				<polygon class="st4" points="66.9,33 68.2,33 66.9,35.9 65.6,33 				"/>
			</g>
			<g>
				<path class="st5" d="M77.7,15.1l8.1,16c2.9-0.5,5.8-1.2,8.8-1.9l-7.1-14.1H77.7z"/>
				<path class="st5" d="M66.4,15.1l8.9,17.5c1.5-0.1,3-0.3,4.5-0.5l-8.6-17H66.4z"/>
				<path class="st5" d="M18.6,15.1c0,0,0,3.2,0,8.5C37,29.8,51.7,33,66.1,33.2c2,0,4-0.1,6-0.3l-9-17.8H18.6z"/>
				<path class="st5" d="M113.6,15.1H90.8l6.8,13.3c5.1-1.3,10.4-2.9,16.1-4.8C113.6,18.3,113.6,15.1,113.6,15.1z"/>
				<path class="st4" d="M71.2,15.1l8.6,17c2-0.3,4-0.6,6.1-1l-8.1-16H71.2z"/>
				<path class="st4" d="M87.5,15.1l7.1,14.1c1-0.2,1.9-0.5,2.9-0.7l-6.8-13.3H87.5z"/>
				<path class="st4" d="M66.1,15.1h-3l9,17.8c1-0.1,2.1-0.2,3.1-0.3l-8.9-17.5H66.1z"/>
			</g>
			<g>
				<rect x="13.3" y="15.1" class="st20" width="5.2" height="8.5"/>
				<polygon class="st21" points="12.6,15.1 12.6,18.3 12.6,20.5 12.6,23.7 13.9,23.7 13.9,15.1 				"/>
			</g>
			<g>
				<rect x="113.6" y="15.1" class="st20" width="5.2" height="8.5"/>
				<polygon class="st21" points="119.6,15.1 119.6,18.3 119.6,20.5 119.6,23.7 118.3,23.7 118.3,15.1 				"/>
			</g>
			<g>
				<rect x="11.3" y="18.3" class="st2" width="1.3" height="2.1"/>
				<rect x="11.3" y="15.1" class="st22" width="1.3" height="3.2"/>
				<rect x="11.3" y="20.5" class="st22" width="1.3" height="3.2"/>
				<path class="st2" d="M11.3,5.2L11.3,5.2l-0.1,9.9h1.3V6.5C12.6,5.8,12,5.2,11.3,5.2z"/>
				<path class="st2" d="M11.3,33.6L11.3,33.6c0.8,0,1.3-0.6,1.3-1.2v-8.7h-1.3V33.6z"/>
				<polygon class="st3" points="10.8,18.3 9.9,18.3 9.9,20.5 10.8,20.5 11.3,20.5 11.3,18.3 				"/>
				<polygon class="st5" points="9.9,15.1 9.9,18.3 10.8,18.3 11.3,18.3 11.3,15.1 10.8,15.1 				"/>
				<polygon class="st5" points="9.9,20.5 9.9,23.7 10.8,23.7 11.3,23.7 11.3,20.5 10.8,20.5 				"/>
				<path class="st3" d="M10.8,5.3c-0.5,0.2-0.9,0.6-0.9,1.2v8.7h0.9h0.4V5.2h-0.1C11.1,5.2,11,5.3,10.8,5.3z"/>
				<path class="st3" d="M10.8,23.7H9.9v8.7c0,0.6,0.4,1,0.9,1.2c0.1,0,0.2,0.1,0.4,0.1h0.1v-9.9H10.8z"/>
			</g>
			<g>
				<polygon class="st2" points="120.5,18.3 119.6,18.3 119.6,20.5 120.5,20.5 120.9,20.5 120.9,18.3 				"/>
				<path class="st2" d="M120.9,15.1V5.2h-0.1c-0.1,0-0.2,0-0.4,0.1c-0.5,0.2-0.9,0.6-0.9,1.2v8.7h0.9H120.9z"/>
				<path class="st2" d="M120.5,23.7h-0.9v8.7c0,0.6,0.4,1,0.9,1.2c0.1,0,0.2,0.1,0.4,0.1h0.1v-9.9H120.5z"/>
				<polygon class="st23" points="120.5,20.5 119.6,20.5 119.6,23.7 120.5,23.7 120.9,23.7 120.9,20.5 				"/>
				<polygon class="st23" points="120.5,15.1 119.6,15.1 119.6,18.3 120.5,18.3 120.9,18.3 120.9,15.1 				"/>
				<rect x="120.9" y="18.3" class="st3" width="1.3" height="2.1"/>
				<rect x="120.9" y="20.5" class="st5" width="1.3" height="3.2"/>
				<rect x="120.9" y="15.1" class="st5" width="1.3" height="3.2"/>
				<path class="st3" d="M122.3,15.1V6.5c0-0.7-0.6-1.2-1.3-1.2h-0.1v9.9H122.3z"/>
				<path class="st3" d="M122.3,32.3v-8.7h-1.3v9.9h0.1C121.7,33.6,122.3,33,122.3,32.3z"/>
			</g>
		</g>
		<path class="st10" d="M15.5,24.6h1.8c0,0,0-3.6,0-4.8c0-1.7,1.9-1.7,1.9,0c0,2.2,0,4.8,0,6c0,0.5-0.2,0.9-0.7,0.9
			c-0.7,0-2.9,0-2.9,0s-0.6-0.1-0.6-1C14.8,24.8,15.5,24.6,15.5,24.6z"/>
		<path class="st10" d="M114.7,24.6h1.8c0,0,0-3.6,0-4.8c0-1.7,1.9-1.7,1.9,0c0,2.2,0,4.8,0,6c0,0.5-0.2,0.9-0.7,0.9
			c-0.7,0-2.9,0-2.9,0s-0.6-0.1-0.6-1C114.1,24.8,114.7,24.6,114.7,24.6z"/>
	</g>
	<g>
		<path class="st6" d="M44.3,96.2c0,0-1.7-0.5-2.8-1.7c-0.8-0.9-1.4-2.8-1.4-2.8c0,0-0.6,1.9-1.4,2.8c-1.1,1.2-2.8,1.7-2.8,1.7
			s1.7,0.6,2.6,1.6c1,1.1,1.5,2.7,1.5,2.7c0,0,0.6-1.6,1.5-2.7C42.7,96.8,44.3,96.2,44.3,96.2z"/>
		<path class="st6" d="M136.7,11c0,0-1.7-0.5-2.8-1.7c-0.8-0.9-1.4-2.8-1.4-2.8c0,0-0.6,1.9-1.4,2.8c-1.1,1.2-2.8,1.7-2.8,1.7
			s1.7,0.6,2.6,1.6c1,1.1,1.5,2.7,1.5,2.7c0,0,0.6-1.6,1.5-2.7C135,11.6,136.7,11,136.7,11z"/>
		<path class="st6" d="M168.2,100.5c0,0-1.7-0.5-2.8-1.7c-0.8-0.9-1.4-2.8-1.4-2.8c0,0-0.6,1.9-1.4,2.8c-1.1,1.2-2.8,1.7-2.8,1.7
			s1.7,0.6,2.6,1.6c1,1.1,1.5,2.7,1.5,2.7c0,0,0.6-1.6,1.5-2.7C166.5,101.1,168.2,100.5,168.2,100.5z"/>
		<path class="st6" d="M32.5,104.7c0,0-1.4-0.4-2.3-1.4c-0.7-0.8-1.1-2.3-1.2-2.3c0,0-0.5,1.6-1.2,2.3c-0.9,1-2.3,1.4-2.3,1.4
			s1.4,0.5,2.2,1.4c0.8,0.9,1.3,2.2,1.3,2.2c0,0,0.5-1.4,1.3-2.2C31.1,105.2,32.5,104.7,32.5,104.7z"/>
		<path class="st6" d="M104.2,5.9c0,0-1.4-0.4-2.3-1.4c-0.7-0.8-1.1-2.3-1.2-2.3c0,0-0.5,1.6-1.2,2.3c-0.9,1-2.3,1.4-2.3,1.4
			s1.4,0.5,2.2,1.4c0.8,0.9,1.3,2.2,1.3,2.2c0,0,0.5-1.4,1.3-2.2C102.8,6.4,104.2,5.9,104.2,5.9z"/>
		<path class="st6" d="M24.8,152.2c0,0-1.4-0.4-2.3-1.4c-0.7-0.8-1.1-2.3-1.2-2.3c0,0-0.5,1.6-1.2,2.3c-0.9,1-2.3,1.4-2.3,1.4
			s1.4,0.5,2.2,1.4c0.8,0.9,1.3,2.2,1.3,2.2c0,0,0.5-1.4,1.3-2.2C23.4,152.7,24.8,152.2,24.8,152.2z"/>
		<path class="st6" d="M158.2,156.3c0,0-1.4-0.4-2.3-1.4c-0.7-0.8-1.1-2.3-1.2-2.3c0,0-0.5,1.6-1.2,2.3c-0.9,1-2.3,1.4-2.3,1.4
			s1.4,0.5,2.2,1.4c0.8,0.9,1.3,2.2,1.3,2.2c0,0,0.5-1.4,1.3-2.2C156.8,156.8,158.2,156.3,158.2,156.3z"/>
		<path class="st6" d="M98.4,72.6c0,0-1.4-0.4-2.3-1.4c-0.7-0.8-1.1-2.3-1.2-2.3c0,0-0.5,1.6-1.2,2.3c-0.9,1-2.3,1.4-2.3,1.4
			s1.4,0.5,2.2,1.4c0.8,0.9,1.3,2.2,1.3,2.2c0,0,0.5-1.4,1.3-2.2C97,73.1,98.4,72.6,98.4,72.6z"/>
		<path class="st6" d="M188.7,71.7c0,0-1.4-0.4-2.3-1.4c-0.7-0.8-1.1-2.3-1.2-2.3c0,0-0.5,1.6-1.2,2.3c-0.9,1-2.3,1.4-2.3,1.4
			s1.4,0.5,2.2,1.4c0.8,0.9,1.3,2.2,1.3,2.2c0,0,0.5-1.4,1.3-2.2C187.3,72.2,188.7,71.7,188.7,71.7z"/>
		<path class="st6" d="M30.3,39.9c0,0-1.4-0.4-2.3-1.4c-0.7-0.8-1.1-2.3-1.2-2.3c0,0-0.5,1.6-1.2,2.3c-0.9,1-2.3,1.4-2.3,1.4
			s1.4,0.5,2.2,1.4c0.8,0.9,1.3,2.2,1.3,2.2c0,0,0.5-1.4,1.3-2.2C28.9,40.4,30.3,39.9,30.3,39.9z"/>
	</g>
	<g>
		<path class="st6" d="M76,193.5c0-0.8-0.8-1.1-1.7-1.3c-1.3-0.4-2.6-0.9-2.6-2.6c0-1.6,1.3-2.6,3.1-2.6c0.9,0,1.7,0.2,2.5,0.6v2
			l-1.4,0.1v-0.8c0-0.3,0-0.4-0.3-0.4c-0.3-0.1-0.6-0.1-0.9-0.1c-0.8,0-1.4,0.3-1.4,1.2c0,0.8,0.8,1.1,1.8,1.4
			c1.2,0.4,2.5,0.9,2.5,2.7c0,1.8-1.4,2.7-3.3,2.7c-1.1,0-1.9-0.2-2.7-0.6v-2.1l1.4-0.1v0.8c0,0.3,0,0.4,0.3,0.4
			c0.3,0.1,0.6,0.1,1,0.1C75.2,194.8,76,194.5,76,193.5z"/>
		<path class="st6" d="M81.1,188.2l-0.8-0.1V187h3.1l2.7,7.8h0l0.8,0v1.1h-3.5v-1.1l0.5,0c0.3,0,0.4-0.1,0.3-0.4l-0.3-0.8h-3.2
			l-0.4,1.2l0.8,0v1.1H78v-1.1l0.4,0c0.2,0,0.3-0.1,0.4-0.4L81.1,188.2z M81.1,192.4h2.5l-1.2-3.8h0L81.1,192.4z"/>
		<path class="st6" d="M97.2,188.2c-0.3,0-0.4,0.2-0.4,0.5l-1.7,7.3h-1.8l-1.4-6h0l-1.4,6h-1.9l-1.9-7.8l-0.8,0V187h3.3v1.1l-0.4,0
			c-0.3,0-0.5,0.1-0.4,0.5l1.2,5.2h0.1l1.4-6.1h1.7l1.5,6.1h0l1.1-5.6l-0.7-0.1V187h3v1.1L97.2,188.2z"/>
		<path class="st6" d="M103.4,193.1L103.4,193.1l2.3-6.1h2.7v1.1l-0.4,0c-0.2,0-0.4,0.1-0.4,0.5l0.3,6.2l0.8,0v1.1h-3.2v-1.1l0.5,0
			c0.2,0,0.4-0.1,0.4-0.3l-0.3-4.8h0l-2.1,5.4h-1.3l-2-5.3h0l-0.3,5l0.9,0v1.1H98v-1.1l0.5,0c0.2,0,0.3-0.1,0.3-0.4l0.4-6.3
			l-0.8-0.1V187h2.7L103.4,193.1z"/>
		<path class="st6" d="M110.2,188.2l-0.8,0V187h3.3v1.1l-0.4,0c-0.2,0-0.4,0.1-0.4,0.4v6.2l0.8,0v1.1h-3.3v-1.1l0.4,0
			c0.3,0,0.4-0.1,0.4-0.4V188.2z"/>
		<path class="st6" d="M113.5,196v-1.1l0.4,0c0.2,0,0.4-0.1,0.4-0.4v-6.3l-0.8,0V187h3.2v1.1l-0.4,0c-0.2,0-0.4,0.1-0.4,0.4v6h2.2
			c0.3,0,0.3-0.2,0.3-0.4v-0.9l1.4,0.1v2.7H113.5z"/>
		<path class="st6" d="M120.8,196v-1.1l0.4,0c0.2,0,0.4-0.1,0.4-0.4v-6.3l-0.8,0V187h3.2v1.1l-0.4,0c-0.2,0-0.4,0.1-0.4,0.4v6h2.2
			c0.3,0,0.3-0.2,0.3-0.4v-0.9l1.4,0.1v2.7H120.8z"/>
	</g>
</g>
</svg>
