<?xml version="1.0" encoding="utf-8"?>
<!-- Generator: Adobe Illustrator 19.2.1, SVG Export Plug-In . SVG Version: 6.00 Build 0)  -->
<svg version="1.1" id="Layer_1" xmlns="http://www.w3.org/2000/svg" xmlns:xlink="http://www.w3.org/1999/xlink" x="0px" y="0px"
	 viewBox="0 0 192 170" style="enable-background:new 0 0 192 170;" xml:space="preserve">
<style type="text/css">
	.st0{fill:#D799AE;}
	.st1{fill:#A2A52F;}
	.st2{fill:#6B2618;}
	.st3{fill:#963323;}
	.st4{fill:#E68025;}
	.st5{fill:#F79A4D;}
	.st6{fill:#772A1D;}
	.st7{fill:#A3392B;}
	.st8{fill:#00FFFF;}
</style>
<circle class="st0" cx="96.1" cy="94.3" r="46.5"/>
<g>
	<g>
		<path class="st1" d="M60.6,102.5c1.3-7.3,13.4-26.7,21.3-32.2h1.4c-7.1,4.8-20.4,25.1-21.7,32.4c-1.6,9.1,1.5,14.1,8.7,15.7
			l-2.1,0C60.2,116.3,59.4,109.3,60.6,102.5z"/>
	</g>
	<g>
		<g>
			<g>
				<path class="st2" d="M99.4,96.3c-2.4-0.1-6.7-0.3-7.3,0.1c0,0.1,0.2,0.2,0.6,0.5c0.7,0.4,7.1,1.9,9.6,1.9c1.6,0,5.5-0.3,7.9-0.5
					c-0.3-0.3-0.5-0.6-0.8-0.9c-0.6-0.6-1.3-1.1-1.9-1.5C105.4,96.1,102.3,96.4,99.4,96.3z"/>
				<path class="st2" d="M104.6,110.2c-0.9,0.1-1.1,0.3-1.1,0.4c0,0.2,0.9,1.1,3.9,1.7c1.3,0.3,2.5,0.4,3.7,0.6
					c0.6-0.9,1-1.8,1.3-2.8C109.8,110,106.2,110.1,104.6,110.2z"/>
				<path class="st2" d="M92.6,107.7c4.8-0.4,15.8-0.4,20.4-0.4c0.1-1.3,0-2.6-0.3-3.9c-1.7,0.1-3.6,0.2-4.5,0.2
					c-2,0-13.6-0.3-20.2-1.5c-6.4-1.2-13.9-1.5-14-1.5l0-0.7c0.1,0,7.7,0.3,14.1,1.5c6.5,1.2,18.1,1.5,20.1,1.5
					c0.9,0,2.7-0.1,4.4-0.2c-0.4-1.3-1-2.6-1.9-3.8c-2.3,0.2-6.6,0.5-8.4,0.5c-2.5,0-9.1-1.4-10-2c-0.2-0.1-0.5-0.3-0.6-0.5
					c-0.2-0.2-0.4-0.5-0.3-0.8c0.3-0.8,2.3-0.9,8-0.6c2.5,0.1,5.1-0.1,7-0.3c-2-1-4.2-1.5-6.4-1.3l0,0l-8.7,0
					c-0.4,0.3-0.8,0.7-1.2,1c-1,0.8-2,1.6-2.7,1.9c-1.8,0.8-4.1,1.1-7.2,1c-2.9-0.1-11.2-1.1-11.3-1.1L69,96c0.1,0,8.4,1,11.2,1.1
					c3,0.1,5.2-0.2,6.9-0.9c0.7-0.3,1.6-1,2.5-1.8c0.2-0.1,0.4-0.3,0.6-0.4l-27.2,0l1.1,24.5l36.4,0l0,0c1.4,0,2.9-0.2,4.3-0.7
					c-1.5,0-3-0.2-4.1-0.5c-2.5-0.7-7-0.5-9.9-0.4c-0.6,0-1.2,0.1-1.7,0.1c-2.7,0.1-23,0.1-23.2,0.1l0-0.7c0.2,0,20.4-0.1,23.2-0.1
					c0.5,0,1,0,1.6-0.1c3-0.1,7.6-0.3,10.2,0.4c1.5,0.4,3.7,0.5,5.6,0.5c1-0.5,2-1.2,2.8-2c-2.3-0.2-4.5-0.8-7-1.4
					c-1.2-0.3-2.5-0.7-3.9-1c-3.3-0.8-8.3-0.1-11.3,0.3c-0.8,0.1-1.4,0.2-1.8,0.2c-1.9,0.1-12.1,0.3-12.5,0.3l0-0.7
					c0.1,0,10.6-0.2,12.5-0.3c0.4,0,1-0.1,1.8-0.2c3-0.4,8.1-1.1,11.5-0.3c1.4,0.3,2.6,0.7,3.9,1c2.7,0.7,5.1,1.3,7.5,1.4
					c0.3-0.3,0.5-0.6,0.8-1c-1.1-0.1-2.2-0.3-3.4-0.5c-2-0.4-3.4-1-4-1.6c-0.3-0.3-0.4-0.5-0.4-0.8c0-0.3,0.3-0.9,1.7-1
					c1.3-0.1,5.2-0.2,8.1-0.2c0.1-0.5,0.2-0.9,0.3-1.4c-4.7,0-15.6,0-20.3,0.4c-6.2,0.5-17.2-2.6-17.7-2.7l0.2-0.7
					C75.3,105.1,86.5,108.2,92.6,107.7z"/>
				<path class="st3" d="M92.6,107.7c-6,0.5-17.3-2.6-17.4-2.7l-0.2,0.7c0.5,0.1,11.5,3.2,17.7,2.7c4.7-0.4,15.6-0.4,20.3-0.4
					c0-0.2,0.1-0.5,0.1-0.7C108.3,107.3,97.3,107.3,92.6,107.7z"/>
				<path class="st3" d="M98.5,112c-3.4-0.8-8.5-0.1-11.5,0.3c-0.8,0.1-1.4,0.2-1.8,0.2c-1.9,0.1-12.4,0.3-12.5,0.3l0,0.7
					c0.4,0,10.7-0.2,12.5-0.3c0.4,0,1-0.1,1.8-0.2c3-0.4,8-1.1,11.3-0.3c1.4,0.3,2.6,0.7,3.9,1c2.5,0.7,4.8,1.3,7,1.4
					c0.1-0.1,0.2-0.2,0.3-0.3c0.1-0.1,0.2-0.2,0.3-0.3c-2.4-0.1-4.8-0.7-7.5-1.4C101.2,112.6,99.9,112.3,98.5,112z"/>
				<path class="st3" d="M104.6,109.5c-1.4,0.1-1.7,0.7-1.7,1c0,0.3,0.1,0.5,0.4,0.8c0.6,0.6,2,1.2,4,1.6c1.2,0.2,2.3,0.4,3.4,0.5
					c0.2-0.2,0.3-0.4,0.5-0.6c-1.2-0.1-2.4-0.3-3.7-0.6c-3-0.6-3.9-1.4-3.9-1.7c0-0.1,0.2-0.3,1.1-0.4c1.6-0.1,5.2-0.2,7.8-0.2
					c0.1-0.2,0.2-0.5,0.2-0.7C109.8,109.3,105.8,109.4,104.6,109.5z"/>
				<path class="st3" d="M88.1,101.4c-6.4-1.2-14-1.5-14.1-1.5l0,0.7c0.1,0,7.7,0.3,14,1.5c6.6,1.2,18.2,1.5,20.2,1.5
					c1,0,2.8-0.1,4.5-0.2c-0.1-0.2-0.1-0.5-0.2-0.7c-1.7,0.1-3.4,0.2-4.4,0.2C106.2,102.9,94.7,102.6,88.1,101.4z"/>
				<path class="st3" d="M99.4,95.6c-5.7-0.3-7.8-0.2-8,0.6c-0.1,0.3,0.1,0.6,0.3,0.8c0.2,0.2,0.4,0.3,0.6,0.5c0.8,0.5,7.5,2,10,2
					c1.8,0,6.1-0.3,8.4-0.5c-0.2-0.2-0.3-0.4-0.5-0.6c-2.3,0.2-6.2,0.5-7.9,0.5c-2.5,0-8.9-1.4-9.6-1.9c-0.4-0.3-0.6-0.4-0.6-0.5
					c0.6-0.4,4.9-0.2,7.3-0.1c2.9,0.1,6-0.2,8-0.4c-0.3-0.2-0.7-0.4-1-0.6C104.5,95.5,101.9,95.7,99.4,95.6z"/>
				<path class="st3" d="M87.1,96.2c-1.7,0.7-3.9,1-6.9,0.9C77.4,97,69.1,96,69,96l-0.1,0.7c0.1,0,8.4,1,11.3,1.1
					c3.1,0.1,5.4-0.2,7.2-1c0.7-0.3,1.7-1.1,2.7-1.9c0.4-0.3,0.8-0.7,1.2-1l-1.1,0c-0.2,0.1-0.4,0.3-0.6,0.4
					C88.7,95.2,87.8,95.9,87.1,96.2z"/>
				<path class="st3" d="M100.8,116.6c-2.6-0.8-7.2-0.6-10.2-0.4c-0.6,0-1.2,0.1-1.6,0.1c-2.7,0.1-23,0.1-23.2,0.1l0,0.7
					c0.2,0,20.5-0.1,23.2-0.1c0.5,0,1,0,1.7-0.1c3-0.1,7.4-0.3,9.9,0.4c1.1,0.3,2.7,0.5,4.1,0.5c0.6-0.2,1.1-0.4,1.7-0.7
					C104.6,117.1,102.3,117,100.8,116.6z"/>
			</g>
			<g>
				<circle class="st3" cx="64.1" cy="106.1" r="12.2"/>
			</g>
			<g>
				<circle class="st4" cx="64.1" cy="106.1" r="10.2"/>
			</g>
			<g>
				<circle class="st5" cx="64.1" cy="106.1" r="4.8"/>
			</g>
			<g>
				<path class="st5" d="M64.1,113.8c-4.2,0-7.7-3.4-7.7-7.7c0-4.2,3.4-7.7,7.7-7.7c4.2,0,7.7,3.4,7.7,7.7
					C71.8,110.3,68.3,113.8,64.1,113.8z M64.1,98.9c-4,0-7.2,3.2-7.2,7.2s3.2,7.2,7.2,7.2c4,0,7.2-3.2,7.2-7.2S68.1,98.9,64.1,98.9z
					"/>
			</g>
			<g>
				<path class="st5" d="M64.1,112.4c-3.5,0-6.3-2.8-6.3-6.3c0-3.5,2.8-6.3,6.3-6.3c3.5,0,6.3,2.8,6.3,6.3
					C70.4,109.6,67.6,112.4,64.1,112.4z M64.1,100.3c-3.2,0-5.8,2.6-5.8,5.8c0,3.2,2.6,5.8,5.8,5.8c3.2,0,5.8-2.6,5.8-5.8
					C70,102.9,67.3,100.3,64.1,100.3z"/>
			</g>
			<g>
				<path class="st5" d="M64.1,115.1c-4.9,0-9-4-9-9c0-4.9,4-9,9-9c4.9,0,9,4,9,9C73.1,111.1,69.1,115.1,64.1,115.1z M64.1,97.6
					c-4.7,0-8.5,3.8-8.5,8.5c0,4.7,3.8,8.5,8.5,8.5c4.7,0,8.5-3.8,8.5-8.5C72.6,101.4,68.8,97.6,64.1,97.6z"/>
			</g>
		</g>
		<g>
			<g>
				<path class="st6" d="M111.5,72.7c-2.4-0.1-6.7-0.3-7.3,0.1c0,0.1,0.2,0.2,0.6,0.5c0.7,0.4,7.1,1.9,9.6,1.9
					c1.6,0,5.5-0.3,7.9-0.5c-0.3-0.3-0.5-0.6-0.8-0.9c-0.6-0.6-1.3-1.1-1.9-1.5C117.5,72.5,114.5,72.8,111.5,72.7z"/>
				<path class="st6" d="M116.8,86.6c-0.9,0.1-1.1,0.3-1.1,0.4c0,0.2,0.9,1.1,3.9,1.7c1.3,0.3,2.5,0.4,3.7,0.6
					c0.6-0.9,1-1.8,1.3-2.8C121.9,86.4,118.3,86.4,116.8,86.6z"/>
				<path class="st6" d="M104.7,84.1c4.8-0.4,15.8-0.4,20.4-0.4c0.1-1.3,0-2.6-0.3-3.9c-1.7,0.1-3.6,0.2-4.5,0.2
					c-2,0-13.6-0.3-20.2-1.5c-6.4-1.2-13.9-1.5-14-1.5l0-0.7c0.1,0,7.7,0.3,14.1,1.5c6.5,1.2,18.1,1.5,20.1,1.5
					c0.9,0,2.7-0.1,4.4-0.2c-0.4-1.3-1-2.6-1.9-3.8c-2.3,0.2-6.6,0.5-8.4,0.5c-2.5,0-9.1-1.4-10-2c-0.2-0.1-0.5-0.3-0.6-0.5
					c-0.2-0.2-0.4-0.5-0.3-0.8c0.3-0.8,2.3-0.9,8-0.6c2.5,0.1,5.1-0.1,7-0.3c-2-1-4.2-1.5-6.4-1.3l0,0l-8.7,0
					c-0.4,0.3-0.8,0.7-1.2,1c-1,0.8-2,1.6-2.7,1.9c-1.8,0.8-4.1,1.1-7.2,1C89.5,74,81.1,73.1,81.1,73l0.1-0.7c0.1,0,8.4,1,11.2,1.1
					c3,0.1,5.2-0.2,6.9-0.9c0.7-0.3,1.6-1,2.5-1.8c0.2-0.1,0.4-0.3,0.6-0.4l-27.2,0l1.1,24.5l36.4,0l0,0c1.4,0,2.9-0.2,4.3-0.7
					c-1.5,0-3-0.2-4.1-0.5c-2.5-0.7-7-0.5-9.9-0.4c-0.6,0-1.2,0.1-1.7,0.1c-2.7,0.1-23,0.1-23.2,0.1l0-0.7c0.2,0,20.4-0.1,23.2-0.1
					c0.5,0,1,0,1.6-0.1c3-0.1,7.6-0.3,10.2,0.4c1.5,0.4,3.7,0.5,5.6,0.5c1-0.5,2-1.2,2.8-2c-2.3-0.2-4.5-0.8-7-1.4
					c-1.2-0.3-2.5-0.7-3.9-1c-3.3-0.8-8.3-0.1-11.3,0.3c-0.8,0.1-1.4,0.2-1.8,0.2c-1.9,0.1-12.1,0.3-12.5,0.3l0-0.7
					c0.1,0,10.6-0.2,12.5-0.3c0.4,0,1-0.1,1.8-0.2c3-0.4,8.1-1.1,11.5-0.3c1.4,0.3,2.6,0.7,3.9,1c2.7,0.7,5.1,1.3,7.5,1.4
					c0.3-0.3,0.5-0.6,0.8-1c-1.1-0.1-2.2-0.3-3.4-0.5c-2-0.4-3.4-1-4-1.6c-0.3-0.3-0.4-0.5-0.4-0.8c0-0.3,0.3-0.9,1.7-1
					c1.3-0.1,5.2-0.2,8.1-0.2c0.1-0.5,0.2-0.9,0.3-1.4c-4.7,0-15.6,0-20.3,0.4c-6.2,0.5-17.2-2.6-17.7-2.7l0.2-0.7
					C87.4,81.4,98.7,84.6,104.7,84.1z"/>
				<path class="st7" d="M104.7,84.1c-6,0.5-17.3-2.6-17.4-2.7l-0.2,0.7c0.5,0.1,11.5,3.2,17.7,2.7c4.7-0.4,15.6-0.4,20.3-0.4
					c0-0.2,0.1-0.5,0.1-0.7C120.5,83.7,109.5,83.7,104.7,84.1z"/>
				<path class="st7" d="M110.7,88.3c-3.4-0.8-8.5-0.1-11.5,0.3c-0.8,0.1-1.4,0.2-1.8,0.2C95.5,89,85,89.2,84.9,89.2l0,0.7
					c0.4,0,10.7-0.2,12.5-0.3c0.4,0,1-0.1,1.8-0.2c3-0.4,8-1.1,11.3-0.3c1.4,0.3,2.6,0.7,3.9,1c2.5,0.7,4.8,1.3,7,1.4
					c0.1-0.1,0.2-0.2,0.3-0.3c0.1-0.1,0.2-0.2,0.3-0.3c-2.4-0.1-4.8-0.7-7.5-1.4C113.3,89,112,88.6,110.7,88.3z"/>
				<path class="st7" d="M116.7,85.9c-1.4,0.1-1.7,0.7-1.7,1c0,0.3,0.1,0.5,0.4,0.8c0.6,0.6,2,1.2,4,1.6c1.2,0.2,2.3,0.4,3.4,0.5
					c0.2-0.2,0.3-0.4,0.5-0.6c-1.2-0.1-2.4-0.3-3.7-0.6c-3-0.6-3.9-1.4-3.9-1.7c0-0.1,0.2-0.3,1.1-0.4c1.6-0.1,5.2-0.2,7.8-0.2
					c0.1-0.2,0.2-0.5,0.2-0.7C121.9,85.7,118,85.8,116.7,85.9z"/>
				<path class="st7" d="M100.3,77.8c-6.4-1.2-14-1.5-14.1-1.5l0,0.7c0.1,0,7.7,0.3,14,1.5c6.6,1.2,18.2,1.5,20.2,1.5
					c1,0,2.8-0.1,4.5-0.2c-0.1-0.2-0.1-0.5-0.2-0.7c-1.7,0.1-3.4,0.2-4.4,0.2C118.3,79.3,106.8,79,100.3,77.8z"/>
				<path class="st7" d="M111.6,72c-5.7-0.3-7.8-0.2-8,0.6c-0.1,0.3,0.1,0.6,0.3,0.8c0.2,0.2,0.4,0.3,0.6,0.5c0.8,0.5,7.5,2,10,2
					c1.8,0,6.1-0.3,8.4-0.5c-0.2-0.2-0.3-0.4-0.5-0.6c-2.3,0.2-6.2,0.5-7.9,0.5c-2.5,0-8.9-1.4-9.6-1.9c-0.4-0.3-0.6-0.4-0.6-0.5
					c0.6-0.4,4.9-0.2,7.3-0.1c2.9,0.1,6-0.2,8-0.4c-0.3-0.2-0.7-0.4-1-0.6C116.6,71.9,114,72.1,111.6,72z"/>
				<path class="st7" d="M99.2,72.6c-1.7,0.7-3.9,1-6.9,0.9c-2.9-0.1-11.2-1.1-11.2-1.1L81.1,73c0.1,0,8.4,1,11.3,1.1
					c3.1,0.1,5.4-0.2,7.2-1c0.7-0.3,1.7-1.1,2.7-1.9c0.4-0.3,0.8-0.7,1.2-1l-1.1,0c-0.2,0.1-0.4,0.3-0.6,0.4
					C100.8,71.5,99.9,72.3,99.2,72.6z"/>
				<path class="st7" d="M113,93c-2.6-0.8-7.2-0.6-10.2-0.4c-0.6,0-1.2,0.1-1.6,0.1c-2.7,0.1-23,0.1-23.2,0.1l0,0.7
					c0.2,0,20.5-0.1,23.2-0.1c0.5,0,1,0,1.7-0.1c3-0.1,7.4-0.3,9.9,0.4c1.1,0.3,2.7,0.5,4.1,0.5c0.6-0.2,1.1-0.4,1.7-0.7
					C116.7,93.5,114.5,93.4,113,93z"/>
			</g>
			<g>
				<circle class="st7" cx="76.3" cy="82.5" r="12.2"/>
			</g>
			<g>
				<circle class="st4" cx="76.3" cy="82.5" r="10.2"/>
			</g>
			<g>
				<circle class="st5" cx="76.3" cy="82.5" r="4.8"/>
			</g>
			<g>
				<path class="st5" d="M76.3,90.2c-4.2,0-7.7-3.4-7.7-7.7c0-4.2,3.4-7.7,7.7-7.7s7.7,3.4,7.7,7.7C83.9,86.7,80.5,90.2,76.3,90.2z
					 M76.3,75.3c-4,0-7.2,3.2-7.2,7.2c0,4,3.2,7.2,7.2,7.2s7.2-3.2,7.2-7.2C83.5,78.5,80.2,75.3,76.3,75.3z"/>
			</g>
			<g>
				<path class="st5" d="M76.3,88.8c-3.5,0-6.3-2.8-6.3-6.3c0-3.5,2.8-6.3,6.3-6.3c3.5,0,6.3,2.8,6.3,6.3
					C82.6,86,79.7,88.8,76.3,88.8z M76.3,76.7c-3.2,0-5.8,2.6-5.8,5.8c0,3.2,2.6,5.8,5.8,5.8s5.8-2.6,5.8-5.8
					C82.1,79.3,79.5,76.7,76.3,76.7z"/>
			</g>
			<g>
				<path class="st5" d="M76.3,91.5c-4.9,0-9-4-9-9c0-4.9,4-9,9-9c4.9,0,9,4,9,9C85.2,87.4,81.2,91.5,76.3,91.5z M76.3,74
					c-4.7,0-8.5,3.8-8.5,8.5c0,4.7,3.8,8.5,8.5,8.5c4.7,0,8.5-3.8,8.5-8.5C84.8,77.8,81,74,76.3,74z"/>
			</g>
		</g>
		<g>
			<g>
				<path class="st2" d="M126.7,96.3c-2.4-0.1-6.7-0.3-7.3,0.1c0,0.1,0.2,0.2,0.6,0.5c0.7,0.4,7.1,1.9,9.6,1.9
					c1.6,0,5.5-0.3,7.9-0.5c-0.3-0.3-0.5-0.6-0.8-0.9c-0.6-0.6-1.3-1.1-1.9-1.5C132.7,96.1,129.6,96.4,126.7,96.3z"/>
				<path class="st2" d="M131.9,110.2c-0.9,0.1-1.1,0.3-1.1,0.4c0,0.2,0.9,1.1,3.9,1.7c1.3,0.3,2.5,0.4,3.7,0.6
					c0.6-0.9,1-1.8,1.3-2.8C137.1,110,133.5,110.1,131.9,110.2z"/>
				<path class="st2" d="M119.9,107.7c4.8-0.4,15.8-0.4,20.4-0.4c0.1-1.3,0-2.6-0.3-3.9c-1.7,0.1-3.6,0.2-4.5,0.2
					c-2,0-13.6-0.3-20.2-1.5c-6.4-1.2-13.9-1.5-14-1.5l0-0.7c0.1,0,7.7,0.3,14.1,1.5c6.5,1.2,18.1,1.5,20.1,1.5
					c0.9,0,2.7-0.1,4.4-0.2c-0.4-1.3-1-2.6-1.9-3.8c-2.3,0.2-6.6,0.5-8.4,0.5c-2.5,0-9.1-1.4-10-2c-0.2-0.1-0.5-0.3-0.6-0.5
					c-0.2-0.2-0.4-0.5-0.3-0.8c0.3-0.8,2.3-0.9,8-0.6c2.5,0.1,5.1-0.1,7-0.3c-2-1-4.2-1.5-6.4-1.3l0,0l-8.7,0
					c-0.4,0.3-0.8,0.7-1.2,1c-1,0.8-2,1.6-2.7,1.9c-1.8,0.8-4.1,1.1-7.2,1c-2.9-0.1-11.2-1.1-11.3-1.1l0.1-0.7c0.1,0,8.4,1,11.2,1.1
					c3,0.1,5.2-0.2,6.9-0.9c0.7-0.3,1.6-1,2.5-1.8c0.2-0.1,0.4-0.3,0.6-0.4l-27.2,0l1.1,24.5l36.4,0l0,0c1.4,0,2.9-0.2,4.3-0.7
					c-1.5,0-3-0.2-4.1-0.5c-2.5-0.7-7-0.5-9.9-0.4c-0.6,0-1.2,0.1-1.7,0.1c-2.7,0.1-23,0.1-23.2,0.1l0-0.7c0.2,0,20.4-0.1,23.2-0.1
					c0.5,0,1,0,1.6-0.1c3-0.1,7.6-0.3,10.2,0.4c1.5,0.4,3.7,0.5,5.6,0.5c1-0.5,2-1.2,2.8-2c-2.3-0.2-4.5-0.8-7-1.4
					c-1.2-0.3-2.5-0.7-3.9-1c-3.3-0.8-8.3-0.1-11.3,0.3c-0.8,0.1-1.4,0.2-1.8,0.2c-1.9,0.1-12.1,0.3-12.5,0.3l0-0.7
					c0.1,0,10.6-0.2,12.5-0.3c0.4,0,1-0.1,1.8-0.2c3-0.4,8.1-1.1,11.5-0.3c1.4,0.3,2.6,0.7,3.9,1c2.7,0.7,5.1,1.3,7.5,1.4
					c0.3-0.3,0.5-0.6,0.8-1c-1.1-0.1-2.2-0.3-3.4-0.5c-2-0.4-3.4-1-4-1.6c-0.3-0.3-0.4-0.5-0.4-0.8c0-0.3,0.3-0.9,1.7-1
					c1.3-0.1,5.2-0.2,8.1-0.2c0.1-0.5,0.2-0.9,0.3-1.4c-4.7,0-15.6,0-20.3,0.4c-6.2,0.5-17.2-2.6-17.7-2.7l0.2-0.7
					C102.6,105.1,113.8,108.2,119.9,107.7z"/>
				<path class="st3" d="M119.9,107.7c-6,0.5-17.3-2.6-17.4-2.7l-0.2,0.7c0.5,0.1,11.5,3.2,17.7,2.7c4.7-0.4,15.6-0.4,20.3-0.4
					c0-0.2,0.1-0.5,0.1-0.7C135.6,107.3,124.6,107.3,119.9,107.7z"/>
				<path class="st3" d="M125.8,112c-3.4-0.8-8.5-0.1-11.5,0.3c-0.8,0.1-1.4,0.2-1.8,0.2c-1.9,0.1-12.4,0.3-12.5,0.3l0,0.7
					c0.4,0,10.7-0.2,12.5-0.3c0.4,0,1-0.1,1.8-0.2c3-0.4,8-1.1,11.3-0.3c1.4,0.3,2.6,0.7,3.9,1c2.5,0.7,4.8,1.3,7,1.4
					c0.1-0.1,0.2-0.2,0.3-0.3c0.1-0.1,0.2-0.2,0.3-0.3c-2.4-0.1-4.8-0.7-7.5-1.4C128.5,112.6,127.2,112.3,125.8,112z"/>
				<path class="st3" d="M131.9,109.5c-1.4,0.1-1.7,0.7-1.7,1c0,0.3,0.1,0.5,0.4,0.8c0.6,0.6,2,1.2,4,1.6c1.2,0.2,2.3,0.4,3.4,0.5
					c0.2-0.2,0.3-0.4,0.5-0.6c-1.2-0.1-2.4-0.3-3.7-0.6c-3-0.6-3.9-1.4-3.9-1.7c0-0.1,0.2-0.3,1.1-0.4c1.6-0.1,5.2-0.2,7.8-0.2
					c0.1-0.2,0.2-0.5,0.2-0.7C137.1,109.3,133.2,109.4,131.9,109.5z"/>
				<path class="st3" d="M115.4,101.4c-6.4-1.2-14-1.5-14.1-1.5l0,0.7c0.1,0,7.7,0.3,14,1.5c6.6,1.2,18.2,1.5,20.2,1.5
					c1,0,2.8-0.1,4.5-0.2c-0.1-0.2-0.1-0.5-0.2-0.7c-1.7,0.1-3.4,0.2-4.4,0.2C133.5,102.9,122,102.6,115.4,101.4z"/>
				<path class="st3" d="M126.7,95.6c-5.7-0.3-7.8-0.2-8,0.6c-0.1,0.3,0.1,0.6,0.3,0.8c0.2,0.2,0.4,0.3,0.6,0.5c0.8,0.5,7.5,2,10,2
					c1.8,0,6.1-0.3,8.4-0.5c-0.2-0.2-0.3-0.4-0.5-0.6c-2.3,0.2-6.2,0.5-7.9,0.5c-2.5,0-8.9-1.4-9.6-1.9c-0.4-0.3-0.6-0.4-0.6-0.5
					c0.6-0.4,4.9-0.2,7.3-0.1c2.9,0.1,6-0.2,8-0.4c-0.3-0.2-0.7-0.4-1-0.6C131.8,95.5,129.2,95.7,126.7,95.6z"/>
				<path class="st3" d="M114.4,96.2c-1.7,0.7-3.9,1-6.9,0.9C104.7,97,96.4,96,96.3,96l-0.1,0.7c0.1,0,8.4,1,11.3,1.1
					c3.1,0.1,5.4-0.2,7.2-1c0.7-0.3,1.7-1.1,2.7-1.9c0.4-0.3,0.8-0.7,1.2-1l-1.1,0c-0.2,0.1-0.4,0.3-0.6,0.4
					C116,95.2,115.1,95.9,114.4,96.2z"/>
				<path class="st3" d="M128.2,116.6c-2.6-0.8-7.2-0.6-10.2-0.4c-0.6,0-1.2,0.1-1.6,0.1c-2.7,0.1-23,0.1-23.2,0.1l0,0.7
					c0.2,0,20.5-0.1,23.2-0.1c0.5,0,1,0,1.7-0.1c3-0.1,7.4-0.3,9.9,0.4c1.1,0.3,2.7,0.5,4.1,0.5c0.6-0.2,1.1-0.4,1.7-0.7
					C131.9,117.1,129.6,117,128.2,116.6z"/>
			</g>
			<g>
				<circle class="st3" cx="91.4" cy="106.1" r="12.2"/>
			</g>
			<g>
				<circle class="st4" cx="91.4" cy="106.1" r="10.2"/>
			</g>
			<g>
				<circle class="st5" cx="91.4" cy="106.1" r="4.8"/>
			</g>
			<g>
				<path class="st5" d="M91.4,113.8c-4.2,0-7.7-3.4-7.7-7.7c0-4.2,3.4-7.7,7.7-7.7s7.7,3.4,7.7,7.7
					C99.1,110.3,95.7,113.8,91.4,113.8z M91.4,98.9c-4,0-7.2,3.2-7.2,7.2s3.2,7.2,7.2,7.2s7.2-3.2,7.2-7.2S95.4,98.9,91.4,98.9z"/>
			</g>
			<g>
				<path class="st5" d="M91.4,112.4c-3.5,0-6.3-2.8-6.3-6.3c0-3.5,2.8-6.3,6.3-6.3c3.5,0,6.3,2.8,6.3,6.3
					C97.7,109.6,94.9,112.4,91.4,112.4z M91.4,100.3c-3.2,0-5.8,2.6-5.8,5.8c0,3.2,2.6,5.8,5.8,5.8s5.8-2.6,5.8-5.8
					C97.3,102.9,94.7,100.3,91.4,100.3z"/>
			</g>
			<g>
				<path class="st5" d="M91.4,115.1c-4.9,0-9-4-9-9c0-4.9,4-9,9-9c4.9,0,9,4,9,9C100.4,111.1,96.4,115.1,91.4,115.1z M91.4,97.6
					c-4.7,0-8.5,3.8-8.5,8.5c0,4.7,3.8,8.5,8.5,8.5s8.5-3.8,8.5-8.5C99.9,101.4,96.1,97.6,91.4,97.6z"/>
			</g>
		</g>
	</g>
	<g>
		<path class="st1" d="M109.3,102.5C108.1,95.2,96,75.8,88,70.3h-1.4c7.1,4.8,20.4,25.1,21.7,32.4c1.6,9.1-1.5,14.1-8.7,15.7l2.1,0
			C109.7,116.3,110.5,109.3,109.3,102.5z"/>
	</g>
	<g>
		<path class="st1" d="M130.6,102.5c-1.3-7.3-13.4-26.7-21.3-32.2h-1.4c7.1,4.8,20.4,25.1,21.7,32.4c1.6,9.1-1.5,14.1-8.7,15.7
			l2.1,0C131,116.3,131.7,109.3,130.6,102.5z"/>
	</g>
</g>
<g>
	<path class="st8" d="M33.6,77.8c0,0-1.7-0.5-2.8-1.7c-0.8-0.9-1.4-2.8-1.4-2.8c0,0-0.6,1.9-1.4,2.8c-1.1,1.2-2.8,1.7-2.8,1.7
		s1.7,0.6,2.6,1.6c1,1.1,1.5,2.7,1.5,2.7c0,0,0.6-1.6,1.5-2.7C31.9,78.4,33.6,77.8,33.6,77.8z"/>
	<path class="st8" d="M138.6,86.2c0,0-1.7-0.5-2.8-1.7c-0.8-0.9-1.4-2.8-1.4-2.8c0,0-0.6,1.9-1.4,2.8c-1.1,1.2-2.8,1.7-2.8,1.7
		s1.7,0.6,2.6,1.6c1,1.1,1.5,2.7,1.5,2.7c0,0,0.6-1.6,1.5-2.7C136.9,86.8,138.6,86.2,138.6,86.2z"/>
	<path class="st8" d="M79.8,158.6c0,0-1.7-0.5-2.8-1.7c-0.8-0.9-1.4-2.8-1.4-2.8c0,0-0.6,1.9-1.4,2.8c-1.1,1.2-2.8,1.7-2.8,1.7
		s1.7,0.6,2.6,1.6c1,1.1,1.5,2.7,1.5,2.7c0,0,0.6-1.6,1.5-2.7C78.1,159.2,79.8,158.6,79.8,158.6z"/>
	<path class="st8" d="M73.8,6.4c0,0-1.7-0.5-2.8-1.7c-0.8-0.9-1.4-2.8-1.4-2.8c0,0-0.6,1.9-1.4,2.8c-1.1,1.2-2.8,1.7-2.8,1.7
		s1.7,0.6,2.6,1.6c1,1.1,1.5,2.7,1.5,2.7c0,0,0.6-1.6,1.5-2.7C72.2,7,73.8,6.4,73.8,6.4z"/>
	<path class="st8" d="M186.6,96.1c0,0-1.7-0.5-2.8-1.7c-0.8-0.9-1.4-2.8-1.4-2.8c0,0-0.6,1.9-1.4,2.8c-1.1,1.2-2.8,1.7-2.8,1.7
		s1.7,0.6,2.6,1.6c1,1.1,1.5,2.7,1.5,2.7c0,0,0.6-1.6,1.5-2.7C184.9,96.7,186.6,96.1,186.6,96.1z"/>
	<path class="st8" d="M75.4,62.2c0,0-1.4-0.4-2.3-1.4c-0.7-0.8-1.1-2.3-1.2-2.3c0,0-0.5,1.6-1.2,2.3c-0.9,1-2.3,1.4-2.3,1.4
		s1.4,0.5,2.2,1.4c0.8,0.9,1.3,2.2,1.3,2.2c0,0,0.5-1.4,1.3-2.2C74,62.7,75.4,62.2,75.4,62.2z"/>
	<path class="st8" d="M130.7,152.5c0,0-1.4-0.4-2.3-1.4c-0.7-0.8-1.1-2.3-1.2-2.3c0,0-0.5,1.6-1.2,2.3c-0.9,1-2.3,1.4-2.3,1.4
		s1.4,0.5,2.2,1.4c0.8,0.9,1.3,2.2,1.3,2.2c0,0,0.5-1.4,1.3-2.2C129.3,153,130.7,152.5,130.7,152.5z"/>
	<path class="st8" d="M174.8,104.6c0,0-1.4-0.4-2.3-1.4c-0.7-0.8-1.1-2.3-1.2-2.3c0,0-0.5,1.6-1.2,2.3c-0.9,1-2.3,1.4-2.3,1.4
		s1.4,0.5,2.2,1.4c0.8,0.9,1.3,2.2,1.3,2.2c0,0,0.5-1.4,1.3-2.2C173.4,105.1,174.8,104.6,174.8,104.6z"/>
	<path class="st8" d="M9.7,112.4c0,0-1.4-0.4-2.3-1.4c-0.7-0.8-1.1-2.3-1.2-2.3c0,0-0.5,1.6-1.2,2.3c-0.9,1-2.3,1.4-2.3,1.4
		s1.4,0.5,2.2,1.4c0.8,0.9,1.3,2.2,1.3,2.2c0,0,0.5-1.4,1.3-2.2C8.3,112.9,9.7,112.4,9.7,112.4z"/>
	<path class="st8" d="M115.7,25.8c0,0-1.4-0.4-2.3-1.4c-0.7-0.8-1.1-2.3-1.2-2.3c0,0-0.5,1.6-1.2,2.3c-0.9,1-2.3,1.4-2.3,1.4
		s1.4,0.5,2.2,1.4c0.8,0.9,1.3,2.2,1.3,2.2c0,0,0.5-1.4,1.3-2.2C114.3,26.3,115.7,25.8,115.7,25.8z"/>
</g>
</svg>
