<?xml version="1.0" encoding="utf-8"?>
<!-- Generator: Adobe Illustrator 19.2.1, SVG Export Plug-In . SVG Version: 6.00 Build 0)  -->
<svg version="1.1" id="Layer_1" xmlns="http://www.w3.org/2000/svg" xmlns:xlink="http://www.w3.org/1999/xlink" x="0px" y="0px"
	 viewBox="0 0 548.1 328.4" style="enable-background:new 0 0 548.1 328.4;" xml:space="preserve">
<style type="text/css">
	.st0{fill:#A0A0A0;}
	.st1{fill:#894320;}
	.st2{fill:#A3582E;}
	.st3{fill:none;stroke:#894320;stroke-linecap:round;stroke-linejoin:round;stroke-miterlimit:10;}
	.st4{fill:#C4C4C4;}
	.st5{fill:#FFFFFF;}
	.st6{fill:#999999;}
</style>
<g>
	<path class="st0" d="M82,78.7c-3.7,10.1-7,10.6-7.4,10.7c-8.5,1.7-4.1-12.5-3.9-12.9C58,82.9,58.4,91.1,58.4,92.4
		c1.2,8-2.3,8.8-2.6,8.9c-7.8,3.3-6.6-12.4-6.3-12.9c-11.4,8.3-9.3,19.6-9.1,20.4c1.7,8-0.2,9-0.4,9.2c-7.2,6.2-10.3-9.1-10.5-9.4
		c-8.1,9.6-2.1,21.6-1.8,22.3c2.6,5.9,1.6,7.3,1.1,7.9c-5.5,6-11.9-6.8-11.9-7.6c-5.1,16.6,3.7,22.1,4.4,22.4c5,3.3,3.8,7.3,3.6,7.5
		c-3.5,7.2-12.6-5.1-12.9-5.1c-2.2,13.5,8.1,19.9,8.5,20.2c5.9,4.4,4.9,6.9,4.7,7.7c-1.6,6.2-13.6-1.8-13.4-1.9
		c0.6,10.8,11,16.1,12.6,16.7c8.3,2.9,7.4,7.2,7.7,6.9c1.4,7.4-11.9,2.5-12.9,2c5.5,11.3,16,12.3,16.9,12.4c8,0.9,8.2,4.1,8.3,4.3
		c1.9,6.9-13,4.4-12.6,4.4c2.8,8.8,17.2,9,17.8,8.7c11.1-0.6,11.3,1.4,11.6,1.5c5.2,7.3-10.5,8.5-10.3,8.5
		c10.9,7.3,22.1,2.3,22.7,2.3c5.9-1.7,6.3-0.7,6.7-0.5c5.4,3.9-7,11-8,11.2c9.5,3.2,19.9-1,21.2-1.9c10.2-6.8,11.2-1.9,10.9-1.7
		c-0.7,6.1-7.1,10.7-7.1,11.2c5.5,0.8,10.7-0.8,13.7-2v-86.4c-5.8-0.1-10.5-4.8-10.5-10.6c0-5.8,4.7-10.5,10.5-10.6V71.6
		c-4.3,1.9-6.5,5.2-6.8,5.7c-4,6-6,5.4-6.6,5.5c-8.1-0.5-2.1-13-1.7-13.1C87,69,82.2,77.8,82,78.7z"/>
	<g>
	</g>
	<g>
		<polygon class="st1" points="95.5,279.8 59.5,283.4 61.7,295.3 		"/>
		<polygon class="st2" points="57.4,271.9 59.5,283.4 95.5,279.8 		"/>
	</g>
	<polygon class="st2" points="83.5,303.8 88.3,308.7 107.9,294 	"/>
	<polygon class="st1" points="108.1,293.9 107.9,294 88.3,308.7 94.8,315.4 	"/>
	<path class="st3" d="M111.2,211.2C111.2,211.2,111.2,211.2,111.2,211.2C111.1,211.1,111.1,211.2,111.2,211.2z"/>
	<path class="st3" d="M16.8,134.8C16.8,134.8,16.9,134.8,16.8,134.8C16.8,134.8,16.8,134.8,16.8,134.8z"/>
	<g>
		<polygon class="st1" points="95.5,52 59.5,48.4 61.7,36.6 		"/>
		<polygon class="st2" points="57.4,59.9 59.5,48.4 95.5,52 		"/>
	</g>
	<polygon class="st2" points="83.5,28 88.3,23.1 107.9,37.9 	"/>
	<polygon class="st1" points="108.1,38 107.9,37.9 88.3,23.1 94.8,16.4 	"/>
	<path class="st4" d="M100.8,168.8c0-5.8,4.7-10.5,10.5-10.6V85c-46.4,0-84,37.6-84,84c0,46.4,37.6,84,84,84v-73.5
		C105.4,179.3,100.8,174.6,100.8,168.8z"/>
</g>
<g>
	<path class="st5" d="M222.4,109.9h-12.7v38.7h-10.4v-38.7h-12.6v-9.3h35.7V109.9z"/>
	<path class="st5" d="M263.8,129.8h-23.3V140H265v8.6h-35v-48h35v9.2h-24.6V120h23.3V129.8z"/>
	<path class="st5" d="M311,125.6l-10.4,23h-6.6l-10.6-23v23h-10.3v-48h7.3l16.9,33.8l16.8-33.8h7.3v48H311V125.6z"/>
	<path class="st5" d="M353.5,100.6c8.1,0,14.5,6,14.5,15.8c0,9.3-6.6,15.3-14.5,15.3h-12.2v16.8h-10.4v-48H353.5z M350.6,123
		c3.9,0,6.9-2.2,6.9-6c0-4.7-3-7.1-6.9-7.1h-9.3V123H350.6z"/>
	<path class="st5" d="M408.1,148.6H374v-48h10.4v38.8h23.7V148.6z"/>
	<path class="st5" d="M441.7,138.2h-15l-3.7,10.4h-11.2l17.4-48h10.2l17.4,48h-11.2L441.7,138.2z M434.1,114.6l-5,15.5h10.2
		L434.1,114.6z"/>
	<path class="st5" d="M490.9,109.9h-12.7v38.7h-10.4v-38.7h-12.6v-9.3h35.7V109.9z"/>
	<path class="st5" d="M532.3,129.8H509V140h24.6v8.6h-35v-48h35v9.2H509V120h23.3V129.8z"/>
</g>
<g>
	<path class="st5" d="M222.2,217.6h-23.3v18.9h-10.4v-48h35v9.2h-24.6v10.2h23.3V217.6z"/>
	<path class="st5" d="M255,226.1h-15l-3.7,10.4H225l17.4-48h10.2l17.4,48h-11.2L255,226.1z M247.4,202.5l-5,15.5h10.2L247.4,202.5z"
		/>
	<path class="st5" d="M309.8,233.9c-3.9,2.1-8.1,3.2-12.3,3.2c-14.3,0-25.8-11-25.8-24.6c0-13.7,11.4-24.7,25.8-24.7
		c4.2,0,8.4,1.2,12.3,3.2v10.3c-4-2.5-8.2-3.7-12.3-3.7c-8.5,0-15.4,6.7-15.4,14.9c0,8.1,6.9,14.8,15.4,14.8c4,0,8.3-1.4,12.3-3.8
		V233.9z"/>
	<path class="st5" d="M353.6,197.7h-12.7v38.7h-10.4v-38.7h-12.6v-9.3h35.7V197.7z"/>
	<path class="st5" d="M408.8,212.5c0,13.6-11.3,24.6-25.3,24.6c-14.3,0-25.8-11-25.8-24.6c0-13.7,11.4-24.7,25.8-24.7
		C397.5,187.8,408.8,198.8,408.8,212.5z M368.1,212.5c0,8.1,6.9,14.8,15.4,14.8c8.1,0,14.8-6.7,14.8-14.8s-6.7-14.8-14.8-14.8
		C375,197.6,368.1,204.3,368.1,212.5z"/>
	<path class="st5" d="M439.3,188.4c8.1,0,14.5,6.2,14.5,16.4c0,6.8-4.2,11.7-10.2,13.6l11.4,18h-11.7L433,219.6h-5.9v16.8h-10.4v-48
		H439.3z M436.4,210.8c3.9,0,6.9-2.2,6.9-6c0-4.7-3-7.1-6.9-7.1h-9.3v13.1H436.4z"/>
	<path class="st5" d="M469.3,188.4l9.9,23.4c3.4-7.7,7.1-15.7,10.5-23.4h11.2l-16.7,34v14h-10.6v-14L458,188.4H469.3z"/>
</g>
<rect x="147.3" y="37.9" class="st6" width="3" height="257.4"/>
</svg>
