<?xml version="1.0" encoding="utf-8"?>
<!-- Generator: Adobe Illustrator 16.0.0, SVG Export Plug-In . SVG Version: 6.00 Build 0)  -->
<!DOCTYPE svg PUBLIC "-//W3C//DTD SVG 1.1//EN" "http://www.w3.org/Graphics/SVG/1.1/DTD/svg11.dtd">
<svg version="1.1" id="Layer_2" xmlns="http://www.w3.org/2000/svg" xmlns:xlink="http://www.w3.org/1999/xlink" x="0px" y="0px"
	 width="258.96px" height="287.481px" viewBox="0 0 258.96 287.481" enable-background="new 0 0 258.96 287.481"
	 xml:space="preserve">
<circle fill="none" stroke="#ABE4FF" stroke-linecap="round" stroke-linejoin="round" stroke-miterlimit="10" stroke-dasharray="4,5" cx="140.889" cy="154.02" r="113.733"/>
<g>
	<g>
		<path fill="#193857" d="M188.717,224.897V63.351c0-6.211-5.086-11.297-11.297-11.297h-72.461c-6.212,0-11.297,5.085-11.297,11.297
			v161.546c0,6.21,5.085,11.297,11.297,11.297h72.461C183.631,236.194,188.717,231.107,188.717,224.897z"/>
		<path fill="#005780" d="M188.717,218.36V56.814c0-6.211-5.086-11.297-11.297-11.297h-72.461c-6.212,0-11.297,5.085-11.297,11.297
			V218.36c0,6.21,5.085,11.297,11.297,11.297h72.461C183.631,229.657,188.717,224.57,188.717,218.36z"/>
	</g>
	<circle fill="#0587BF" cx="141.19" cy="215.057" r="5.962"/>
	<circle fill="#0587BF" cx="141.19" cy="53.208" r="2.176"/>
	
		<line fill="none" stroke="#0668A4" stroke-width="2.179" stroke-linecap="round" stroke-linejoin="round" stroke-miterlimit="10" x1="131.985" y1="60.708" x2="150.394" y2="60.708"/>
	<rect x="101.398" y="69.881" fill="#E0F5FF" width="79.23" height="133.585"/>
</g>
<g>
	<circle fill="#4BA3CC" cx="35.302" cy="126.565" r="22.945"/>
	<circle fill="#FFC4C4" cx="35.233" cy="126.496" r="21.197"/>
	<circle fill="#043573" cx="35.232" cy="126.496" r="15.482"/>
	<path fill="#00B0FA" d="M35.152,136.853v2.102c6.925,0,12.539-5.614,12.539-12.539h-2.103
		C45.589,132.18,40.917,136.853,35.152,136.853z"/>
	<path fill="#ABE4FF" d="M35.152,119.553v-5.676c-6.925,0-12.54,5.614-12.54,12.539h5.677
		C28.29,122.625,31.362,119.553,35.152,119.553z"/>
	<path fill="#FFFFFF" d="M33.431,113.972l0.728,5.624c-0.014,0.002-0.027,0.005-0.04,0.007c0.855-0.116,1.747-0.076,2.634,0.153
		l1.418-5.497C36.575,113.848,34.972,113.771,33.431,113.972z"/>
</g>
<g>
	<path fill="#49C8CE" d="M230.468,153.094c0,3.312-2.709,6.021-6.021,6.021h-80.271c-3.311,0-6.021-2.709-6.021-6.021v-50.852
		c0-3.311,2.709-6.021,6.021-6.021h9.368c3.312,0,6.63-0.967,7.374-2.15s2.161-3.196,3.148-4.475c0.987-1.279,2.604-1.279,3.591,0
		c0.987,1.278,2.404,3.292,3.148,4.475s4.062,2.15,7.374,2.15h46.268c3.312,0,6.021,2.709,6.021,6.021V153.094z"/>
	<polyline fill="none" stroke="#FFFFFF" stroke-width="3.7391" stroke-miterlimit="10" points="203.241,114.43 208.212,119.402 
		219.794,107.82 	"/>
	<path fill="#FFFFFF" d="M224.735,141.757c0,4.888-3.999,8.888-8.888,8.888H204.38c-4.888,0-8.888-4-8.888-8.888l0,0
		c0-4.888,4-8.887,8.888-8.887h11.467C220.736,132.87,224.735,136.87,224.735,141.757L224.735,141.757z"/>
	<path fill="#73B705" d="M223.875,141.757c0,4.415-3.612,8.027-8.027,8.027l0,0c-4.414,0-8.026-3.612-8.026-8.027l0,0
		c0-4.415,3.612-8.027,8.026-8.027l0,0C220.262,133.73,223.875,137.343,223.875,141.757L223.875,141.757z"/>
	<path fill="#73B705" d="M223.875,141.757c0,4.415-3.612,8.027-8.027,8.027l0,0c-4.414,0-8.026-3.612-8.026-8.027l0,0
		c0-4.415,3.612-8.027,8.026-8.027l0,0C220.262,133.73,223.875,137.343,223.875,141.757L223.875,141.757z"/>
</g>
<g>
	<path fill="#ABE4FF" d="M212.27,281.46c0,3.312-2.709,6.021-6.021,6.021h-28.271c-3.312,0-6.021-2.709-6.021-6.021v-5.852
		c0-3.312,2.709-6.021,6.021-6.021h1.368c3.312,0,6.629-0.968,7.374-2.15c0.744-1.183,2.161-3.196,3.148-4.475s2.603-1.278,3.59,0
		s2.404,3.292,3.149,4.475c0.744,1.183,4.062,2.15,7.374,2.15h2.268c3.312,0,6.021,2.709,6.021,6.021V281.46z"/>
</g>
<g>
	<circle fill="#F25A58" cx="172.453" cy="156.879" r="17.859"/>
	<g>
		<path fill="#FFFFFF" d="M169.525,168.682L169.525,168.682c-1.144-3.802-1.076-4.438-1.839-5.902
			c-0.938-1.803-1.642-4.57-3.503-5.998c-0.545-0.418-0.871-0.811-0.703-1.019l0.162-0.201c1.3-1.215,2.165-0.911,3.302-0.267
			c1.05,0.595,1.321,1.667,1.569,2.147c0,0-0.268-0.688-0.268-2.461c0-1.32,0-1.604,0-1.604c0-0.288,0.261-6.848,0.635-7.771
			c0.359-0.887,1.677-1.165,2.315,0.096c0.179,0.354,0.736,7.418,0.736,8.032c0,0.542,0.388,0.071,0.589,0.083
			c2.667,0.169,6.379,1.227,7.959,2.372c0.815,0.592,1.36,0.722,1.36,2.639v2.052c0,3.359-1.196,3.596-1.36,7.802
			C180.401,170.739,170.08,169.822,169.525,168.682z"/>
	</g>
</g>
<circle fill="#F25A58" cx="55.855" cy="227.52" r="17.859"/>
<line fill="none" stroke="#DBF4FF" stroke-width="4" stroke-linecap="round" stroke-linejoin="round" stroke-miterlimit="10" x1="147.152" y1="115.299" x2="188.137" y2="115.299"/>
<line fill="none" stroke="#4BA3CC" stroke-width="2.5779" stroke-linecap="round" stroke-linejoin="round" stroke-miterlimit="10" x1="179.121" y1="278.31" x2="196.143" y2="278.31"/>
<line fill="none" stroke="#4BA3CC" stroke-width="2.5779" stroke-linecap="round" stroke-linejoin="round" stroke-miterlimit="10" x1="201.602" y1="278.31" x2="205.484" y2="278.31"/>
<rect x="52.304" y="174.739" fill="#F89C62" width="108.375" height="19.339"/>
<rect x="141.19" y="174.739" fill="#F25A58" width="19.489" height="19.339"/>
<line fill="none" stroke="#FFFFFF" stroke-width="4" stroke-linecap="round" stroke-linejoin="round" stroke-miterlimit="10" x1="60.17" y1="184.409" x2="101.156" y2="184.409"/>
<path fill="#FFFFFF" d="M157.76,190.393l-3.806-3.806c-0.116-0.116-0.307-0.116-0.423,0l-0.16,0.16l-0.572-0.571
	c0.907-0.919,1.469-2.18,1.469-3.572c0-2.808-2.276-5.084-5.084-5.084s-5.083,2.276-5.083,5.084s2.275,5.083,5.083,5.083
	c1.146,0,2.2-0.384,3.051-1.023l0.61,0.61l-0.16,0.16c-0.116,0.115-0.116,0.306,0,0.422l3.807,3.807
	c0.116,0.116,0.307,0.116,0.423,0l0.846-0.847C157.876,190.701,157.876,190.51,157.76,190.393z M144.699,182.604
	c0-2.478,2.008-4.485,4.485-4.485s4.485,2.008,4.485,4.485s-2.008,4.485-4.485,4.485S144.699,185.082,144.699,182.604z"/>
<path fill="#ABE4FF" d="M137.84,23.671C134.46,10.101,122.277,0,107.67,0C94.618,0,83.473,8.045,78.82,19.421
	c-2.733-2.357-6.247-3.83-10.13-3.83c-8.604,0-15.591,6.987-15.591,15.592c0,0.472,0.102,0.921,0.142,1.388
	c-9.136,3.187-15.733,12.439-15.733,22.652c0,12.912,10.475,24.042,23.387,24.042h74.062c15.064,0,27.286-12.874,27.286-27.94
	C162.242,37.245,151.532,25.132,137.84,23.671z"/>
<line fill="none" stroke="#4BA3CC" stroke-width="3" stroke-linecap="round" stroke-linejoin="round" stroke-miterlimit="10" x1="93.663" y1="249.02" x2="230.468" y2="249.02"/>
<line fill="none" stroke="#005780" stroke-width="3" stroke-linecap="round" stroke-linejoin="round" stroke-miterlimit="10" x1="93.663" y1="247.52" x2="181.84" y2="247.52"/>
<path fill="#F0970D" d="M199.614,249.02c0,4.415-3.612,8.027-8.027,8.027l0,0c-4.415,0-8.027-3.612-8.027-8.027l0,0
	c0-4.415,3.612-8.027,8.027-8.027l0,0C196.001,240.993,199.614,244.605,199.614,249.02L199.614,249.02z"/>
<path fill="#FFFFFF" d="M60.412,219.493c-2.485,0-4.556,2.485-4.556,2.485s-2.071-2.485-4.556-2.485s-5.799,1.657-5.799,5.8
	c0,4.971,7.041,11.598,10.355,13.255c3.314-1.657,10.355-8.284,10.355-13.255C66.21,221.15,62.897,219.493,60.412,219.493z"/>
<g>
	
		<polyline fill="none" stroke="#4BA3CC" stroke-width="0.5" stroke-linecap="round" stroke-linejoin="round" stroke-miterlimit="10" points="
		11.75,177.409 0.25,177.409 0.25,192.409 15.25,192.409 15.25,180.909 	"/>
	<g>
		
			<line fill="none" stroke="#4BA3CC" stroke-width="0.5" stroke-linecap="round" stroke-linejoin="round" stroke-miterlimit="10" x1="19.25" y1="173.409" x2="19.25" y2="179.909"/>
		
			<line fill="none" stroke="#4BA3CC" stroke-width="0.5" stroke-linecap="round" stroke-linejoin="round" stroke-miterlimit="10" x1="12.75" y1="173.409" x2="19.25" y2="173.409"/>
	</g>
	
		<line fill="none" stroke="#4BA3CC" stroke-width="0.5" stroke-linecap="round" stroke-linejoin="round" stroke-miterlimit="10" x1="6.25" y1="186.409" x2="19.25" y2="173.409"/>
</g>
<g>
	<path fill="#F25A58" d="M249.96,59.308h-21c-0.55,0-0.906,0.44-0.79,0.978l2.58,12.045c0.116,0.538,0.66,0.978,1.21,0.978h15
		c0.55,0,1.094-0.44,1.21-0.978l2.58-12.045C250.867,59.748,250.51,59.308,249.96,59.308z M233.96,69.808c0,0.275-0.226,0.5-0.5,0.5
		s-0.5-0.225-0.5-0.5v-3c0-0.275,0.226-0.5,0.5-0.5s0.5,0.225,0.5,0.5V69.808z M233.96,64.808c0,0.275-0.226,0.5-0.5,0.5
		s-0.5-0.225-0.5-0.5v-3c0-0.275,0.226-0.5,0.5-0.5s0.5,0.225,0.5,0.5V64.808z M236.96,69.808c0,0.275-0.226,0.5-0.5,0.5
		s-0.5-0.225-0.5-0.5v-3c0-0.275,0.226-0.5,0.5-0.5s0.5,0.225,0.5,0.5V69.808z M236.96,64.808c0,0.275-0.226,0.5-0.5,0.5
		s-0.5-0.225-0.5-0.5v-3c0-0.275,0.226-0.5,0.5-0.5s0.5,0.225,0.5,0.5V64.808z M239.96,69.808c0,0.275-0.226,0.5-0.5,0.5
		s-0.5-0.225-0.5-0.5v-3c0-0.275,0.226-0.5,0.5-0.5s0.5,0.225,0.5,0.5V69.808z M239.96,64.808c0,0.275-0.226,0.5-0.5,0.5
		s-0.5-0.225-0.5-0.5v-3c0-0.275,0.226-0.5,0.5-0.5s0.5,0.225,0.5,0.5V64.808z M242.96,69.808c0,0.275-0.226,0.5-0.5,0.5
		s-0.5-0.225-0.5-0.5v-3c0-0.275,0.226-0.5,0.5-0.5s0.5,0.225,0.5,0.5V69.808z M242.96,64.808c0,0.275-0.226,0.5-0.5,0.5
		s-0.5-0.225-0.5-0.5v-3c0-0.275,0.226-0.5,0.5-0.5s0.5,0.225,0.5,0.5V64.808z M245.96,69.808c0,0.275-0.226,0.5-0.5,0.5
		s-0.5-0.225-0.5-0.5v-3c0-0.275,0.226-0.5,0.5-0.5s0.5,0.225,0.5,0.5V69.808z M245.96,64.808c0,0.275-0.226,0.5-0.5,0.5
		s-0.5-0.225-0.5-0.5v-3c0-0.275,0.226-0.5,0.5-0.5s0.5,0.225,0.5,0.5V64.808z"/>
	<path fill="#4BA3CC" d="M228.46,56.308h-1c-0.274,0-0.5,0.225-0.5,0.5v1c0,0.275,0.226,0.5,0.5,0.5h1c0.274,0,0.5-0.225,0.5-0.5v-1
		C228.96,56.533,228.735,56.308,228.46,56.308z M245.46,56.308h-12c-0.274,0-0.5,0.225-0.5,0.5v1c0,0.275,0.226,0.5,0.5,0.5h12
		c0.274,0,0.5-0.225,0.5-0.5v-1C245.96,56.533,245.735,56.308,245.46,56.308z M251.46,56.308h-1c-0.274,0-0.5,0.225-0.5,0.5v1
		c0,0.275,0.226,0.5,0.5,0.5h1c0.274,0,0.5-0.225,0.5-0.5v-1C251.96,56.533,251.735,56.308,251.46,56.308z M248.542,56.324
		L245,47.77c-0.105-0.254-0.399-0.376-0.653-0.271l-0.924,0.382c-0.254,0.105-0.376,0.399-0.271,0.653l3.715,8.97
		c0.022,0.054,0.057,0.098,0.094,0.139v0.164c0,0.275,0.226,0.5,0.5,0.5h1c0.274,0,0.5-0.225,0.5-0.5v-1
		C248.96,56.562,248.777,56.365,248.542,56.324z M235.499,47.881l-0.924-0.382c-0.254-0.105-0.548,0.017-0.653,0.271l-3.543,8.555
		c-0.234,0.041-0.418,0.237-0.418,0.483v1c0,0.275,0.226,0.5,0.5,0.5h1c0.274,0,0.5-0.225,0.5-0.5v-0.164
		c0.037-0.041,0.071-0.085,0.094-0.139l3.715-8.97C235.875,48.281,235.752,47.987,235.499,47.881z"/>
</g>
<path fill="#FF8F53" d="M255.76,186.409h-16.6c-1.761,0-4.2,1.44-4.2,3.2v17.6c0,1.76,2.439,3.2,4.2,3.2h16.6
	c1.761,0,3.2-1.44,3.2-3.2v-17.6C258.96,187.849,257.521,186.409,255.76,186.409z"/>
<path fill="#FFFFFF" d="M254.455,199.9c0,0,0.129-2.609-1.721-4.293c-1.148-1.043-4.324-3.073-4.324-3.073s0,11.848,0,11.876
	c0,1.657-1.892,2.999-4.225,2.999s-4.224-1.342-4.224-2.999c0-1.656,1.891-3.001,4.224-3.001c1.068,0,2.032,0.291,2.777,0.756
	l-0.002-0.001v-13.189c0,0,5.821,4.571,6.419,5.169C256.279,197.043,254.455,199.9,254.455,199.9z"/>
<circle fill="none" stroke="#ABE4FF" stroke-width="1.07" stroke-linecap="round" stroke-linejoin="round" stroke-miterlimit="10" cx="224.291" cy="198.408" r="2.586"/>
<path fill="none" stroke="#ABE4FF" stroke-width="1.07" stroke-linecap="round" stroke-linejoin="round" stroke-miterlimit="10" d="
	M213.121,178.079c-6.778,4.238-11.301,11.747-11.301,20.33s4.522,16.092,11.301,20.33"/>
<path fill="none" stroke="#ABE4FF" stroke-width="1.07" stroke-linecap="round" stroke-linejoin="round" stroke-miterlimit="10" d="
	M213.121,178.079c-6.778,4.238-11.301,11.747-11.301,20.33s4.522,16.092,11.301,20.33"/>
<path fill="none" stroke="#ABE4FF" stroke-width="1.07" stroke-linecap="round" stroke-linejoin="round" stroke-miterlimit="10" d="
	M220.573,187.811c-3.54,2.213-5.913,6.115-5.913,10.598c0,4.481,2.373,8.384,5.912,10.597"/>
<path fill="none" stroke="#ABE4FF" stroke-width="1.07" stroke-linecap="round" stroke-linejoin="round" stroke-miterlimit="10" d="
	M217.109,182.512c-5.31,3.32-8.869,9.174-8.869,15.896s3.56,12.576,8.868,15.896"/>
<g>
	
		<line fill="none" stroke="#ABE4FF" stroke-width="0.5" stroke-linecap="round" stroke-linejoin="round" stroke-miterlimit="10" x1="77.914" y1="91.902" x2="66.914" y2="91.902"/>
	
		<line fill="none" stroke="#ABE4FF" stroke-width="0.5" stroke-linecap="round" stroke-linejoin="round" stroke-miterlimit="10" x1="77.914" y1="102.902" x2="77.914" y2="91.902"/>
</g>
<line fill="none" stroke="#ABE4FF" stroke-width="0.5" stroke-linecap="round" stroke-linejoin="round" stroke-miterlimit="10" x1="62.914" y1="106.902" x2="77.914" y2="91.902"/>
<g>
	
		<line fill="none" stroke="#ABE4FF" stroke-width="0.5" stroke-linecap="round" stroke-linejoin="round" stroke-miterlimit="10" x1="127.878" y1="106.902" x2="127.878" y2="95.902"/>
	
		<line fill="none" stroke="#ABE4FF" stroke-width="0.5" stroke-linecap="round" stroke-linejoin="round" stroke-miterlimit="10" x1="116.878" y1="106.902" x2="127.878" y2="106.902"/>
</g>
<line fill="none" stroke="#ABE4FF" stroke-width="0.5" stroke-linecap="round" stroke-linejoin="round" stroke-miterlimit="10" x1="112.878" y1="91.902" x2="127.878" y2="106.902"/>
</svg>
