<?xml version="1.0" encoding="utf-8"?>
<!-- Generator: Adobe Illustrator 16.0.0, SVG Export Plug-In . SVG Version: 6.00 Build 0)  -->
<!DOCTYPE svg PUBLIC "-//W3C//DTD SVG 1.1//EN" "http://www.w3.org/Graphics/SVG/1.1/DTD/svg11.dtd">
<svg version="1.1" id="Layer_2" xmlns="http://www.w3.org/2000/svg" xmlns:xlink="http://www.w3.org/1999/xlink" x="0px" y="0px"
	 width="269.096px" height="266.661px" viewBox="0 0 269.096 266.661" enable-background="new 0 0 269.096 266.661"
	 xml:space="preserve">
<circle fill="none" stroke="#ABE4FF" stroke-width="1.0899" stroke-miterlimit="10" stroke-dasharray="4.3597,5.4496" cx="141.697" cy="137.867" r="118.027"/>
<g>
	<g>
		
			<circle fill="none" stroke="#FFFFFF" stroke-width="7.6294" stroke-linecap="round" stroke-linejoin="round" stroke-miterlimit="10" cx="234.744" cy="88.826" r="2.164"/>
		
			<circle fill="none" stroke="#FFFFFF" stroke-width="7.6294" stroke-linecap="round" stroke-linejoin="round" stroke-miterlimit="10" cx="253.491" cy="88.826" r="2.164"/>
		
			<line fill="none" stroke="#FFFFFF" stroke-width="7.6294" stroke-linecap="round" stroke-linejoin="round" stroke-miterlimit="10" x1="237.899" y1="88.105" x2="250.625" y2="88.105"/>
		
			<line fill="none" stroke="#FFFFFF" stroke-width="7.6294" stroke-linecap="round" stroke-linejoin="round" stroke-miterlimit="10" x1="235.458" y1="86.11" x2="235.458" y2="68.653"/>
		
			<polyline fill="none" stroke="#FFFFFF" stroke-width="7.6294" stroke-linecap="round" stroke-linejoin="round" stroke-miterlimit="10" points="
			235.458,69.358 255.647,69.358 255.647,77.19 235.458,81.597 		"/>
		
			<polyline fill="none" stroke="#FFFFFF" stroke-width="7.6294" stroke-linecap="round" stroke-linejoin="round" stroke-miterlimit="10" points="
			235.458,69.358 232.988,63.591 228.254,63.591 		"/>
	</g>
	<g>
		
			<circle fill="none" stroke="#F25A58" stroke-width="1.9372" stroke-linecap="round" stroke-linejoin="round" stroke-miterlimit="10" cx="234.744" cy="88.826" r="2.164"/>
		
			<circle fill="none" stroke="#F25A58" stroke-width="1.9372" stroke-linecap="round" stroke-linejoin="round" stroke-miterlimit="10" cx="253.491" cy="88.826" r="2.164"/>
		
			<line fill="none" stroke="#F25A58" stroke-width="1.9372" stroke-linecap="round" stroke-linejoin="round" stroke-miterlimit="10" x1="237.899" y1="88.105" x2="250.625" y2="88.105"/>
		
			<line fill="none" stroke="#F25A58" stroke-width="1.9372" stroke-linecap="round" stroke-linejoin="round" stroke-miterlimit="10" x1="235.458" y1="86.11" x2="235.458" y2="68.653"/>
		
			<polyline fill="none" stroke="#F25A58" stroke-width="1.9372" stroke-linecap="round" stroke-linejoin="round" stroke-miterlimit="10" points="
			235.458,69.358 255.647,69.358 255.647,77.19 235.458,81.597 		"/>
		
			<polyline fill="none" stroke="#F25A58" stroke-width="1.9372" stroke-linecap="round" stroke-linejoin="round" stroke-miterlimit="10" points="
			235.458,69.358 232.988,63.591 228.254,63.591 		"/>
	</g>
</g>
<g>
	<g>
		<path fill="#193857" d="M185.723,223.661V62.114c0-6.211-5.086-11.297-11.297-11.297h-72.461c-6.212,0-11.297,5.085-11.297,11.297
			v161.546c0,6.209,5.085,11.297,11.297,11.297h72.461C180.637,234.958,185.723,229.87,185.723,223.661z"/>
		<path fill="#005780" d="M185.723,217.124V55.577c0-6.211-5.086-11.297-11.297-11.297h-72.461c-6.212,0-11.297,5.085-11.297,11.297
			v161.546c0,6.209,5.085,11.297,11.297,11.297h72.461C180.637,228.42,185.723,223.333,185.723,217.124z"/>
	</g>
	<circle fill="#0587BF" cx="138.196" cy="213.82" r="5.962"/>
	<circle fill="#0587BF" cx="122.129" cy="54.472" r="2.176"/>
	
		<line fill="none" stroke="#0668A4" stroke-width="2.179" stroke-linecap="round" stroke-linejoin="round" stroke-miterlimit="10" x1="128.991" y1="54.472" x2="147.4" y2="54.472"/>
	<rect x="98.404" y="68.644" fill="#FF8180" width="79.23" height="133.585"/>
</g>
<g>
	<path fill="#F15A24" d="M252.081,146.661c0,0-1.206,0.396-3.7,1.577c-1.223,0.58-2.159,1.748-2.937,3.125
		c-3.094,5.498-1.31,14.259,3.979,19.562c3.562,3.572,7.805,4.672,11.144,3.324c1.619-0.651,3.52-1.435,3.52-1.435
		C267.185,167.31,257.374,151.961,252.081,146.661z"/>
	<path fill="#FBB03B" d="M252.56,147.163c0,0-1.141,0.375-3.499,1.492c-1.156,0.549-2.042,1.653-2.771,2.954
		c-2.929,5.198-1.238,13.481,3.76,18.494c3.367,3.378,7.379,4.416,10.535,3.144c1.531-0.617,3.325-1.354,3.325-1.354
		C266.84,166.686,257.564,152.176,252.56,147.163z"/>
	<path fill="#F15A24" d="M263.597,149.823c-5.292-5.311-12.086-5.15-15.181,0.354c-3.098,5.498-1.312,14.262,3.976,19.562
		c5.289,5.307,12.083,5.153,15.184-0.354C270.674,163.877,268.89,155.124,263.597,149.823z"/>
	<path fill="#FBB03B" d="M262.747,151.42c-4.391-4.4-10.021-4.271-12.585,0.295c-2.565,4.558-1.087,11.82,3.296,16.215
		c4.384,4.398,10.016,4.271,12.584-0.295C268.613,163.072,267.133,155.816,262.747,151.42z"/>
	<g>
		<path fill="#FBD08D" d="M259.67,168.683c-0.156,0-0.312-0.024-0.463-0.079c-0.354-0.125-0.646-0.389-0.801-0.73l-0.681-1.476
			c-0.302-0.657-0.048-1.438,0.584-1.793c0.426-0.237,1.036-0.808,1.476-1.685c0.473-0.963,0.417-1.938,0.094-2.289
			c-0.114,0.055-0.379,0.207-0.838,0.63c-0.921,0.87-2.176,1.883-3.604,1.883c-0.896,0-1.714-0.382-2.422-1.136
			c-1.328-1.411-1.783-3.693-1.239-5.986l-0.837-0.884c-0.397-0.425-0.494-1.052-0.232-1.574l0.638-1.286
			c0.202-0.406,0.59-0.689,1.039-0.757c0.068-0.011,0.138-0.015,0.206-0.015c0.379,0,0.745,0.154,1.01,0.435l0.149,0.158
			c0.359-0.423,0.756-0.779,1.187-1.077c0.235-0.163,0.512-0.247,0.791-0.247c0.126,0,0.253,0.017,0.377,0.052
			c0.398,0.112,0.729,0.397,0.896,0.775l0.652,1.48c0.271,0.611,0.065,1.334-0.486,1.713c-0.305,0.203-0.808,0.547-1.294,1.531
			c-0.422,0.848-0.333,1.432-0.204,1.715c0.162-0.111,0.47-0.34,0.984-0.805c0.773-0.71,1.984-1.671,3.397-1.671
			c0.954,0,1.834,0.425,2.617,1.259c1.402,1.491,1.88,3.895,1.291,6.291l0.884,0.936c0.396,0.422,0.492,1.046,0.238,1.566
			l-0.636,1.293c-0.198,0.407-0.591,0.692-1.043,0.764c-0.065,0.01-0.138,0.016-0.206,0.016c-0.381,0-0.75-0.156-1.015-0.439
			l-0.172-0.185c-0.541,0.666-1.137,1.183-1.72,1.472C260.095,168.633,259.883,168.683,259.67,168.683z"/>
		<path fill="#F15A24" d="M262.395,163.488l1.437,1.519l-0.636,1.293l-1.383-1.477c-0.601,1.172-1.441,2.122-2.143,2.471
			l-0.678-1.477c0.666-0.373,1.473-1.141,2.035-2.279c0.719-1.457,0.636-3.039-0.146-3.865c-0.76-0.805-1.622-0.508-2.786,0.566
			c-1.583,1.494-2.869,2.096-4.071,0.816c-1.136-1.207-1.413-3.336-0.694-5.413l-1.385-1.461l0.641-1.286l1.34,1.416
			c0.622-1.169,1.263-1.777,1.797-2.146l0.655,1.48c-0.374,0.254-1.106,0.753-1.757,2.064c-0.779,1.566-0.438,2.84,0.126,3.438
			c0.706,0.744,1.438,0.369,2.828-0.872c1.619-1.487,2.854-1.8,4.073-0.5C262.751,158.945,263.217,161.15,262.395,163.488z"/>
	</g>
	
		<rect x="244.935" y="152.014" transform="matrix(-0.906 0.4233 -0.4233 -0.906 535.4724 185.817)" fill="#F15A24" width="4.337" height="0.705"/>
	
		<rect x="246.133" y="149.408" transform="matrix(-0.9058 0.4237 -0.4237 -0.9058 536.6681 180.1958)" fill="#F15A24" width="4.337" height="0.704"/>
	
		<rect x="243.95" y="155.584" transform="matrix(-0.9059 0.4235 -0.4235 -0.9059 535.1145 192.9778)" fill="#F15A24" width="4.338" height="0.704"/>
	
		<rect x="244.745" y="160.8" transform="matrix(-0.906 0.4233 -0.4233 -0.906 538.83 202.6426)" fill="#F15A24" width="4.337" height="0.704"/>
	
		<rect x="246.657" y="165.693" transform="matrix(-0.9061 0.423 -0.423 -0.9061 544.5315 211.2451)" fill="#F15A24" width="4.338" height="0.703"/>
	
		<rect x="250.329" y="170.29" transform="matrix(-0.9059 0.4235 -0.4235 -0.9059 553.4996 218.3051)" fill="#F15A24" width="4.338" height="0.704"/>
	
		<rect x="253.145" y="172.111" transform="matrix(-0.9058 0.4236 -0.4236 -0.9058 559.6476 220.5217)" fill="#F15A24" width="4.338" height="0.705"/>
	
		<rect x="255.274" y="172.945" transform="matrix(-0.906 0.4233 -0.4233 -0.906 564.0396 221.3341)" fill="#F15A24" width="4.337" height="0.705"/>
</g>
<g>
	<g>
		<path fill="none" stroke="#FFFFFF" stroke-width="4.3597" stroke-miterlimit="10" d="M239.691,203.441
			c1.246-1.241,2.557-0.728,3.311-0.36c0.755,0.367-0.351,2.053-0.768,2.471l-4.115,4.117c-0.418,0.418-0.646,1.229-0.5,1.804
			l2.396,9.612c0.144,0.572-0.082,1.383-0.5,1.801l-0.409,0.41c-0.418,0.418-0.978,0.328-1.243-0.196l-3.908-7.748
			c-0.269-0.526-0.825-0.617-1.243-0.2l-2.382,2.385c-0.418,0.418-0.854,1.09-0.778,1.676l0.104,0.865
			c0.071,0.586-0.117,1.314-0.426,1.62c-0.306,0.308-0.646,0.646-0.763,0.765c-0.113,0.111-0.431-0.224-0.706-0.744l-0.608-1.157
			c-0.272-0.522-0.612-1.103-0.665-1.196c-0.049-0.095-0.159-0.209-0.251-0.256c-0.089-0.047-0.812-0.535-1.337-0.811l-1.178-0.619
			c-0.521-0.274-0.89-0.561-0.816-0.633c0.074-0.074,0.417-0.418,0.766-0.766c0.346-0.346,1.105-0.57,1.692-0.503l0.851,0.103
			c0.586,0.066,1.407-0.217,1.825-0.635l2.382-2.384c0.418-0.418,0.328-0.979-0.199-1.241l-7.748-3.91
			c-0.527-0.27-0.617-0.826-0.199-1.244l0.409-0.41c0.418-0.416,1.229-0.646,1.803-0.506l9.509,2.306
			c0.572,0.14,1.386-0.089,1.804-0.507L239.691,203.441z"/>
		<path fill="#ABE4FF" d="M239.691,203.441c1.246-1.241,2.557-0.728,3.311-0.36c0.755,0.367-0.351,2.053-0.768,2.471l-4.115,4.117
			c-0.418,0.418-0.646,1.229-0.5,1.804l2.396,9.612c0.144,0.572-0.082,1.383-0.5,1.801l-0.409,0.41
			c-0.418,0.418-0.978,0.328-1.243-0.196l-3.908-7.748c-0.269-0.526-0.825-0.617-1.243-0.2l-2.382,2.385
			c-0.418,0.418-0.854,1.09-0.778,1.676l0.104,0.865c0.071,0.586-0.117,1.314-0.426,1.62c-0.306,0.308-0.646,0.646-0.763,0.765
			c-0.113,0.111-0.431-0.224-0.706-0.744l-0.608-1.157c-0.272-0.522-0.612-1.103-0.665-1.196c-0.049-0.095-0.159-0.209-0.251-0.256
			c-0.089-0.047-0.812-0.535-1.337-0.811l-1.178-0.619c-0.521-0.274-0.89-0.561-0.816-0.633c0.074-0.074,0.417-0.418,0.766-0.766
			c0.346-0.346,1.105-0.57,1.692-0.503l0.851,0.103c0.586,0.066,1.407-0.217,1.825-0.635l2.382-2.384
			c0.418-0.418,0.328-0.979-0.199-1.241l-7.748-3.91c-0.527-0.27-0.617-0.826-0.199-1.244l0.409-0.41
			c0.418-0.416,1.229-0.646,1.803-0.506l9.509,2.306c0.572,0.14,1.386-0.089,1.804-0.507L239.691,203.441z"/>
	</g>
</g>
<g>
	<g>
		<path fill="#ABD9F1" d="M42.722,221.54c-1.531,0-2.974-0.674-3.96-1.846c-2.655-3.164-11.312-14.014-11.312-20.84
			c0-8.314,6.852-15.08,15.271-15.08s15.274,6.766,15.274,15.08c0,6.832-8.66,17.678-11.314,20.839
			C45.698,220.866,44.254,221.54,42.722,221.54z"/>
		<path fill="#F1F1F1" d="M42.722,219.36c-0.884,0-1.723-0.393-2.292-1.068c-1.803-2.146-10.803-13.188-10.803-19.438
			c0-7.113,5.875-12.9,13.095-12.9c7.221,0,13.096,5.787,13.096,12.9c0,6.246-9,17.288-10.804,19.438
			C44.446,218.969,43.606,219.36,42.722,219.36L42.722,219.36z"/>
	</g>
	<path fill="#F25A58" d="M52.826,198.854c0,5.475-10.104,17.516-10.104,17.516s-10.104-12.041-10.104-17.516
		c0-5.473,4.521-9.91,10.104-9.91S52.826,193.381,52.826,198.854z"/>
	<circle fill="#F1F1F1" cx="42.722" cy="198.603" r="5.181"/>
</g>
<g>
	<path fill="#FF8180" d="M8.821,160.924l21.733-5.559c1.844-0.472,4.146-2.193,5.116-3.83l5.522-9.318
		c0.974-1.639,0.427-3.771-1.213-4.74l-9.314-5.523c-1.639-0.97-4.482-1.378-6.328-0.907L2.604,136.6
		c-1.845,0.473-2.967,2.365-2.496,4.21l4.503,17.618C5.082,160.273,6.976,161.396,8.821,160.924z M32.208,140.415
		c0.693-1.174,2.212-1.562,3.385-0.869c1.175,0.697,1.562,2.215,0.867,3.391c-0.695,1.173-2.212,1.561-3.387,0.859
		C31.9,143.101,31.513,141.586,32.208,140.415z"/>
</g>
<g>
	<g>
		<g>
			<path fill="none" stroke="#FFFFFF" stroke-width="4.3597" stroke-miterlimit="10" d="M51.99,95.764
				c-0.034,0-0.067-0.004-0.104-0.011L38.819,93.13c-0.618,0.021-1.281,0.103-1.979,0.189c-0.78,0.096-1.59,0.197-2.409,0.218
				c-0.181,0.004-0.355,0.006-0.536,0.006c-8.925,0-15.657-5.979-15.657-13.909c0-7.695,7.715-13.955,17.191-13.955
				c9.479,0,17.191,6.26,17.191,13.955c0,2.898-1.079,5.664-3.123,8.02l2.976,7.396c0.071,0.176,0.042,0.379-0.082,0.524
				C52.292,95.697,52.143,95.764,51.99,95.764L51.99,95.764z"/>
			<path fill="#FF8A47" d="M51.99,95.764c-0.034,0-0.067-0.004-0.104-0.011L38.819,93.13c-0.618,0.021-1.281,0.103-1.979,0.189
				c-0.78,0.096-1.59,0.197-2.409,0.218c-0.181,0.004-0.355,0.006-0.536,0.006c-8.925,0-15.657-5.979-15.657-13.909
				c0-7.695,7.715-13.955,17.191-13.955c9.479,0,17.191,6.26,17.191,13.955c0,2.898-1.079,5.664-3.123,8.02l2.976,7.396
				c0.071,0.176,0.042,0.379-0.082,0.524C52.292,95.697,52.143,95.764,51.99,95.764L51.99,95.764z"/>
		</g>
		<path fill="#FFE7D9" d="M33.307,79.574c0.153,1.162,0.95,2.122,2.122,2.122s2.122-0.95,2.122-2.122
			c0-1.171-0.991-1.814-2.122-2.122C33.822,77.017,33.128,78.224,33.307,79.574z"/>
		<circle fill="#FFE7D9" cx="29.181" cy="79.574" r="2.122"/>
		<circle fill="#FFE7D9" cx="41.676" cy="79.574" r="2.122"/>
	</g>
</g>
<g>
	<g>
		<path fill="#FFEBDB" d="M123.035,167.004v11.146c0,0.881,0.719,1.601,1.598,1.601h11.146v-12.746H123.035L123.035,167.004z"/>
		<path fill="#FFEBDB" d="M135.781,149.429h-11.147c-0.879,0-1.598,0.719-1.598,1.598v11.147h12.746L135.781,149.429
			L135.781,149.429z"/>
		<path fill="#FFEBDB" d="M151.759,149.429h-11.148v12.745h12.746v-11.147C153.357,150.148,152.637,149.429,151.759,149.429z"/>
		<path fill="#FFEBDB" d="M140.611,179.75h11.148c0.878,0,1.598-0.719,1.598-1.601v-11.146h-12.746V179.75z"/>
	</g>
	<path fill="#FFEBDB" d="M146.148,137.163c-8.235-8.239-9.624,9.623-9.624,9.623h3.346
		C139.868,146.786,154.385,145.4,146.148,137.163z M140.32,144.799h-1.738c0,0,0.721-9.303,5.012-5.012
		C147.881,144.079,140.32,144.799,140.32,144.799z"/>
	<path fill="#FFEBDB" d="M135.643,144.747c-1.521-0.229-6.522-1.287-2.854-4.957c1.904-1.908,3.105-1.127,3.854,0.326
		c0.257-0.839,0.563-1.672,0.935-2.443c-1.438-2.715-3.732-4.121-7.347-0.51c-6.83,6.832,1.982,8.95,5.194,9.476
		C135.452,146.331,135.515,145.647,135.643,144.747z"/>
</g>
<circle fill="#F25A58" cx="138.01" cy="17.859" r="17.859"/>
<g>
	<path fill="#FFFFFF" d="M140.938,6.058L140.938,6.058c1.146,3.801,1.076,4.437,1.839,5.901c0.938,1.804,1.645,4.571,3.503,5.998
		c0.549,0.418,0.871,0.812,0.703,1.02l-0.162,0.201c-1.299,1.214-2.162,0.91-3.302,0.266c-1.049-0.594-1.318-1.667-1.566-2.147
		c0,0,0.268,0.688,0.268,2.461c0,1.32,0,1.604,0,1.604c0,0.288-0.261,6.848-0.635,7.771c-0.359,0.887-1.677,1.165-2.314-0.096
		c-0.18-0.354-0.734-7.418-0.734-8.033c0-0.542-0.391-0.07-0.593-0.083c-2.667-0.169-6.378-1.227-7.959-2.372
		c-0.812-0.591-1.357-0.721-1.357-2.638v-2.052c0-3.359,1.196-3.596,1.357-7.801C130.062,4,140.383,4.917,140.938,6.058z"/>
</g>
<polygon fill="#EE4014" points="138.196,70.24 138.196,107.547 202.962,107.547 179.93,70.24 "/>
<polygon fill="#F18703" points="138.196,70.24 138.196,107.547 188.537,107.547 170.375,70.24 "/>
<polygon fill="#EE4014" points="138.196,70.24 138.196,107.547 173.919,107.547 160.7,70.24 "/>
<polygon fill="#F18703" points="138.196,70.24 138.196,107.547 159.766,107.547 151.413,70.24 "/>
<polygon fill="#EE4014" points="138.196,70.24 138.196,107.547 73.429,107.547 96.462,70.24 "/>
<polygon fill="#F18703" points="138.196,70.24 138.196,107.547 87.855,107.547 106.017,70.24 "/>
<polygon fill="#EE4014" points="138.196,70.24 138.196,107.547 102.472,107.547 115.692,70.24 "/>
<polygon fill="#F18703" points="138.196,70.24 138.196,107.547 116.626,107.547 124.979,70.24 "/>
<path fill="#F16A03" d="M145.386,107.547v7.19c0,3.971,3.219,7.189,7.189,7.189c3.97,0,7.188-3.219,7.188-7.189v-7.19H145.386z"/>
<path fill="#BE2903" d="M159.766,107.547v7.19c0,3.971,3.219,7.189,7.189,7.189c3.97,0,7.188-3.219,7.188-7.189v-7.19H159.766z"/>
<path fill="#F16A03" d="M174.146,107.547v7.19c0,3.971,3.222,7.189,7.189,7.189s7.188-3.219,7.188-7.189v-7.19H174.146z"/>
<path fill="#BE2903" d="M188.526,107.547v7.19c0,3.971,3.222,7.189,7.189,7.189s7.188-3.219,7.188-7.189v-7.19H188.526z"/>
<path fill="#BE2903" d="M131.006,107.547v7.19c0,3.971,3.219,7.189,7.188,7.189c3.974,0,7.19-3.219,7.19-7.189v-7.19H131.006z"/>
<path fill="#F16A03" d="M87.809,107.547v7.19c0,3.971,3.219,7.189,7.19,7.189c3.971,0,7.188-3.219,7.188-7.189v-7.19H87.809z"/>
<path fill="#BE2903" d="M102.189,107.547v7.19c0,3.971,3.222,7.189,7.19,7.189s7.188-3.219,7.188-7.189v-7.19H102.189z"/>
<path fill="#F16A03" d="M116.569,107.547v7.19c0,3.971,3.222,7.189,7.19,7.189s7.19-3.219,7.19-7.189v-7.19H116.569z"/>
<path fill="#BE2903" d="M73.429,107.547v7.19c0,3.971,3.219,7.189,7.19,7.189c3.971,0,7.188-3.219,7.188-7.189v-7.19H73.429z"/>
<rect x="96.462" y="64.398" fill="#BE2903" width="83.468" height="5.842"/>
<path fill="#FF4745" d="M163.665,255.894c0,5.922-4.905,10.769-10.899,10.769h-29.138c-5.995,0-10.899-4.847-10.899-10.769
	s4.905-10.769,10.899-10.769h29.138C158.759,245.125,163.665,249.972,163.665,255.894z"/>
<g>
	<path fill="#FFFFFF" d="M126.383,260.599v-9.3h3.046c1.094,0,1.948,0.215,2.562,0.643c0.61,0.43,0.919,1.062,0.919,1.906
		c0,0.426-0.111,0.809-0.332,1.145c-0.224,0.336-0.545,0.59-0.974,0.76c0.579,0.105,1.019,0.356,1.312,0.754
		c0.294,0.396,0.438,0.856,0.438,1.388c0,0.892-0.294,1.562-0.881,2.021c-0.588,0.457-1.42,0.688-2.497,0.688L126.383,260.599
		L126.383,260.599z M128.249,255.195h1.245c0.498,0,0.881-0.103,1.146-0.307c0.271-0.204,0.402-0.502,0.402-0.894
		c0-0.433-0.135-0.748-0.405-0.953c-0.271-0.203-0.674-0.308-1.21-0.308h-1.181L128.249,255.195L128.249,255.195z M128.249,256.485
		v2.684h1.729c0.494,0,0.871-0.105,1.13-0.32c0.263-0.219,0.393-0.533,0.393-0.955c0-0.451-0.128-0.801-0.383-1.041
		c-0.258-0.242-0.644-0.364-1.156-0.364L128.249,256.485L128.249,256.485z"/>
	<path fill="#FFFFFF" d="M142.087,251.299v6.086c0,1.049-0.347,1.867-1.041,2.46c-0.694,0.592-1.595,0.888-2.702,0.888
		c-1.103,0-1.998-0.296-2.685-0.888c-0.688-0.593-1.032-1.411-1.032-2.46v-6.086h1.872v6.086c0,0.623,0.166,1.098,0.498,1.426
		c0.332,0.327,0.778,0.49,1.347,0.49c0.575,0,1.031-0.163,1.367-0.49c0.337-0.328,0.505-0.803,0.505-1.426v-6.086H142.087
		L142.087,251.299z"/>
	<path fill="#FFFFFF" d="M146.986,255.584h0.038l2.031-4.285h2.043l-3.187,6.029v3.271h-1.865v-3.366l-3.136-5.934h2.044
		L146.986,255.584z"/>
</g>
<polygon fill="#EE4014" points="141.925,70.24 138.196,70.24 134.467,70.24 131.006,107.547 138.196,107.547 145.386,107.547 "/>
</svg>
