<?xml version="1.0" encoding="utf-8"?>
<!-- Generator: Adobe Illustrator 16.0.0, SVG Export Plug-In . SVG Version: 6.00 Build 0)  -->
<!DOCTYPE svg PUBLIC "-//W3C//DTD SVG 1.1//EN" "http://www.w3.org/Graphics/SVG/1.1/DTD/svg11.dtd">
<svg version="1.1" id="Layer_2" xmlns="http://www.w3.org/2000/svg" xmlns:xlink="http://www.w3.org/1999/xlink" x="0px" y="0px"
	 width="272.672px" height="228.466px" viewBox="0 0 272.672 228.466" enable-background="new 0 0 272.672 228.466"
	 xml:space="preserve">
<circle fill="none" stroke="#ABE4FF" stroke-linecap="round" stroke-linejoin="round" stroke-miterlimit="10" stroke-dasharray="4,5" cx="132.129" cy="114.233" r="113.733"/>
<rect x="28.27" y="39.554" fill="#0F71B0" width="33.703" height="21.69"/>
<polygon fill="#1D94CC" points="61.972,61.244 61.972,39.633 48.476,50.438 "/>
<polygon fill="#56BCEB" points="41.766,50.438 28.27,39.633 28.27,61.244 "/>
<polygon fill="#2CAAE6" points="61.972,61.244 45.121,47.752 28.27,61.244 "/>
<g>
	<g>
		<path fill="#193857" d="M179.957,198.286V36.74c0-6.211-5.086-11.297-11.297-11.297H96.199c-6.212,0-11.297,5.085-11.297,11.297
			v161.546c0,6.21,5.085,11.297,11.297,11.297h72.461C174.871,209.583,179.957,204.496,179.957,198.286z"/>
		<path fill="#005780" d="M179.957,191.749V30.203c0-6.211-5.086-11.297-11.297-11.297H96.199c-6.212,0-11.297,5.085-11.297,11.297
			v161.546c0,6.21,5.085,11.297,11.297,11.297h72.461C174.871,203.045,179.957,197.958,179.957,191.749z"/>
	</g>
	<circle fill="#0587BF" cx="132.43" cy="188.446" r="5.962"/>
	<circle fill="#0587BF" cx="132.43" cy="26.597" r="2.176"/>
	
		<line fill="none" stroke="#0668A4" stroke-width="2.179" stroke-linecap="round" stroke-linejoin="round" stroke-miterlimit="10" x1="123.225" y1="34.097" x2="141.634" y2="34.097"/>
	<rect x="92.638" y="43.27" fill="#E0F5FF" width="79.23" height="133.585"/>
</g>
<circle fill="#FFFFFF" stroke="#ABE4FF" stroke-miterlimit="10" cx="43.244" cy="183.737" r="25.115"/>
<circle fill="#FFFFFF" stroke="#ABE4FF" stroke-width="1.1489" stroke-miterlimit="10" cx="243.243" cy="112.008" r="28.855"/>
<g>
	<path fill="#F25A58" d="M57.198,182.305H29.289c-0.73,0-1.204,0.585-1.05,1.3l3.43,16.008c0.153,0.714,0.876,1.299,1.607,1.299
		h19.935c0.73,0,1.454-0.585,1.607-1.299l3.43-16.008C58.402,182.89,57.929,182.305,57.198,182.305z M35.934,196.26
		c0,0.365-0.299,0.664-0.664,0.664c-0.366,0-0.665-0.299-0.665-0.664v-3.987c0-0.365,0.299-0.664,0.665-0.664
		c0.365,0,0.664,0.299,0.664,0.664V196.26z M35.934,189.615c0,0.365-0.299,0.665-0.664,0.665c-0.366,0-0.665-0.3-0.665-0.665v-3.986
		c0-0.366,0.299-0.665,0.665-0.665c0.365,0,0.664,0.299,0.664,0.665V189.615z M39.921,196.26c0,0.365-0.299,0.664-0.665,0.664
		s-0.665-0.299-0.665-0.664v-3.987c0-0.365,0.299-0.664,0.665-0.664s0.665,0.299,0.665,0.664V196.26z M39.921,189.615
		c0,0.365-0.299,0.665-0.665,0.665s-0.665-0.3-0.665-0.665v-3.986c0-0.366,0.299-0.665,0.665-0.665s0.665,0.299,0.665,0.665V189.615
		z M43.908,196.26c0,0.365-0.299,0.664-0.665,0.664s-0.665-0.299-0.665-0.664v-3.987c0-0.365,0.299-0.664,0.665-0.664
		s0.665,0.299,0.665,0.664V196.26z M43.908,189.615c0,0.365-0.299,0.665-0.665,0.665s-0.665-0.3-0.665-0.665v-3.986
		c0-0.366,0.299-0.665,0.665-0.665s0.665,0.299,0.665,0.665V189.615z M47.896,196.26c0,0.365-0.299,0.664-0.665,0.664
		c-0.366,0-0.665-0.299-0.665-0.664v-3.987c0-0.365,0.299-0.664,0.665-0.664c0.365,0,0.665,0.299,0.665,0.664V196.26z
		 M47.896,189.615c0,0.365-0.299,0.665-0.665,0.665c-0.366,0-0.665-0.3-0.665-0.665v-3.986c0-0.366,0.299-0.665,0.665-0.665
		c0.365,0,0.665,0.299,0.665,0.665V189.615z M51.882,196.26c0,0.365-0.299,0.664-0.665,0.664s-0.665-0.299-0.665-0.664v-3.987
		c0-0.365,0.299-0.664,0.665-0.664s0.665,0.299,0.665,0.664V196.26z M51.882,189.615c0,0.365-0.299,0.665-0.665,0.665
		s-0.665-0.3-0.665-0.665v-3.986c0-0.366,0.299-0.665,0.665-0.665s0.665,0.299,0.665,0.665V189.615z"/>
	<path fill="#4BA3CC" d="M28.625,178.319h-1.329c-0.365,0-0.665,0.299-0.665,0.664v1.329c0,0.365,0.299,0.664,0.665,0.664h1.329
		c0.365,0,0.664-0.299,0.664-0.664v-1.329C29.289,178.618,28.99,178.319,28.625,178.319z M51.218,178.319H35.27
		c-0.366,0-0.665,0.299-0.665,0.664v1.329c0,0.365,0.299,0.664,0.665,0.664h15.948c0.365,0,0.665-0.299,0.665-0.664v-1.329
		C51.882,178.618,51.583,178.319,51.218,178.319z M59.192,178.319h-1.329c-0.365,0-0.665,0.299-0.665,0.664v1.329
		c0,0.365,0.299,0.664,0.665,0.664h1.329c0.365,0,0.665-0.299,0.665-0.664v-1.329C59.856,178.618,59.557,178.319,59.192,178.319z
		 M55.313,178.34l-4.708-11.369c-0.14-0.337-0.531-0.499-0.868-0.359l-1.228,0.508c-0.337,0.141-0.5,0.531-0.359,0.869l4.937,11.921
		c0.03,0.071,0.075,0.13,0.125,0.185v0.218c0,0.365,0.299,0.664,0.665,0.664h1.329c0.366,0,0.665-0.299,0.665-0.664v-1.329
		C55.869,178.656,55.625,178.395,55.313,178.34z M37.979,167.12l-1.228-0.508c-0.337-0.14-0.728,0.022-0.868,0.359l-4.708,11.369
		c-0.312,0.055-0.556,0.315-0.556,0.643v1.329c0,0.365,0.299,0.664,0.665,0.664h1.329c0.365,0,0.665-0.299,0.665-0.664v-0.218
		c0.049-0.055,0.095-0.113,0.125-0.185l4.937-11.921C38.478,167.651,38.316,167.26,37.979,167.12z"/>
</g>
<g>
	<circle fill="#F25A58" stroke="#F25A58" stroke-miterlimit="10" cx="236.061" cy="111.531" r="2.586"/>
	<path fill="none" stroke="#F25A58" stroke-width="2" stroke-linecap="round" stroke-linejoin="round" stroke-miterlimit="10" d="
		M247.23,131.862c6.778-4.238,11.302-11.748,11.302-20.331s-4.523-16.092-11.301-20.33"/>
	<path fill="none" stroke="#F25A58" stroke-width="2" stroke-linecap="round" stroke-linejoin="round" stroke-miterlimit="10" d="
		M247.23,131.862c6.778-4.238,11.302-11.748,11.302-20.331s-4.523-16.092-11.301-20.33"/>
	<path fill="none" stroke="#F25A58" stroke-width="2" stroke-linecap="round" stroke-linejoin="round" stroke-miterlimit="10" d="
		M239.779,122.128c3.539-2.213,5.912-6.115,5.912-10.597s-2.373-8.384-5.912-10.597"/>
	<path fill="none" stroke="#F25A58" stroke-width="2" stroke-linecap="round" stroke-linejoin="round" stroke-miterlimit="10" d="
		M243.243,127.427c5.309-3.319,8.868-9.173,8.868-15.896c0-6.723-3.56-12.577-8.868-15.896"/>
</g>
<g>
	<path fill="#043573" d="M224.632,76.489c0-3.463-2.807-6.27-6.27-6.27H111.769c-3.463,0-6.27,2.807-6.27,6.27v68.972
		c0,3.463,2.807,6.271,6.27,6.271h106.594c3.463,0,6.27-2.808,6.27-6.271V76.489z"/>
	
		<line fill="none" stroke="#04B1D9" stroke-width="5.2892" stroke-linecap="round" stroke-linejoin="round" stroke-miterlimit="10" x1="121.174" y1="128.314" x2="133.715" y2="128.314"/>
	
		<line fill="none" stroke="#04B1D9" stroke-width="2.6446" stroke-linecap="round" stroke-linejoin="round" stroke-miterlimit="10" x1="119.913" y1="140.855" x2="139.985" y2="140.855"/>
	
		<line fill="none" stroke="#04B1D9" stroke-width="2.6446" stroke-linecap="round" stroke-linejoin="round" stroke-miterlimit="10" x1="148.899" y1="140.855" x2="165.065" y2="140.855"/>
	
		<line fill="none" stroke="#04B1D9" stroke-width="5.2892" stroke-linecap="round" stroke-linejoin="round" stroke-miterlimit="10" x1="119.344" y1="83.754" x2="131.884" y2="83.754"/>
	
		<line fill="none" stroke="#E3B69A" stroke-width="4.5116" stroke-linecap="round" stroke-linejoin="round" stroke-miterlimit="10" x1="206.103" y1="140.855" x2="215.227" y2="140.855"/>
	
		<line fill="none" stroke="#04B1D9" stroke-width="5.2892" stroke-linecap="round" stroke-linejoin="round" stroke-miterlimit="10" x1="146.255" y1="128.314" x2="158.795" y2="128.314"/>
	
		<line fill="none" stroke="#04B1D9" stroke-width="5.2892" stroke-linecap="round" stroke-linejoin="round" stroke-miterlimit="10" x1="196.416" y1="128.314" x2="208.957" y2="128.314"/>
	
		<line fill="none" stroke="#04B1D9" stroke-width="5.2892" stroke-linecap="round" stroke-linejoin="round" stroke-miterlimit="10" x1="171.336" y1="128.314" x2="183.876" y2="128.314"/>
	<g>
		<rect x="131.24" y="110.04" fill="#73ADE6" width="4.999" height="1.871"/>
		<rect x="118.531" y="110.04" fill="#73ADE6" width="4.999" height="1.694"/>
		<path fill="#73ADE6" d="M131.106,113.233c-0.183,0.583-0.578,1.055-1.113,1.33l1.283,5.267h0.536c2.435,0,4.427-1.992,4.427-4.427
			v-2.169H131.106z"/>
		<polygon fill="#73ADE6" points="129.917,119.829 128.699,114.831 126.176,114.831 124.783,119.829 		"/>
		<path fill="#73ADE6" d="M125.788,113.508h3.194c0.516,0,0.936-0.42,0.936-0.937v-3.193c0-0.516-0.42-0.936-0.936-0.936h-3.194
			c-0.516,0-0.936,0.42-0.936,0.936v3.193C124.852,113.088,125.272,113.508,125.788,113.508z"/>
		<path fill="#73ADE6" d="M124.862,114.62c-0.634-0.289-1.077-0.87-1.234-1.564h-5.097v2.346c0,2.435,1.993,4.427,4.427,4.427h0.453
			L124.862,114.62z"/>
		<path fill="#73ADE6" d="M123.664,108.717c0.172-0.551,0.539-0.995,1.033-1.275l-1.297-5.321h-0.441
			c-2.435,0-4.427,1.992-4.427,4.427v2.169H123.664z"/>
		<path fill="#73ADE6" d="M129.805,107.287c0.631,0.25,1.097,0.778,1.301,1.43h5.133v-2.169c0-2.435-1.992-4.427-4.427-4.427h-0.568
			L129.805,107.287z"/>
		<polygon fill="#73ADE6" points="129.873,102.122 124.76,102.122 125.978,107.12 128.48,107.12 		"/>
	</g>
</g>
<g>
	
		<polyline fill="none" stroke="#4BA3CC" stroke-width="0.5" stroke-linecap="round" stroke-linejoin="round" stroke-miterlimit="10" points="
		204.741,90.315 196.609,82.184 186.003,92.791 196.609,103.397 204.741,95.265 	"/>
	<g>
		
			<line fill="none" stroke="#4BA3CC" stroke-width="0.5" stroke-linecap="round" stroke-linejoin="round" stroke-miterlimit="10" x1="212.872" y1="92.791" x2="208.276" y2="97.387"/>
		
			<line fill="none" stroke="#4BA3CC" stroke-width="0.5" stroke-linecap="round" stroke-linejoin="round" stroke-miterlimit="10" x1="208.276" y1="88.194" x2="212.872" y2="92.791"/>
	</g>
	
		<line fill="none" stroke="#4BA3CC" stroke-width="0.5" stroke-linecap="round" stroke-linejoin="round" stroke-miterlimit="10" x1="194.488" y1="92.791" x2="212.872" y2="92.791"/>
</g>
<g>
	<path fill="#F15A24" d="M36.61,83.541c0,0-2.228-1.08-7.328-2.801c-2.501-0.844-5.399-0.474-8.349,0.408
		C9.143,84.667-0.226,99.372,0.004,113.971c0.154,9.837,4.619,17.127,11.125,19.764c3.156,1.278,6.875,2.755,6.875,2.755
		C29.814,132.972,36.849,98.15,36.61,83.541z"/>
	<path fill="#FBB03B" d="M36.601,84.895c0,0-2.106-1.021-6.929-2.648c-2.365-0.798-5.104-0.448-7.894,0.386
		c-11.147,3.327-20.005,17.23-19.788,31.034c0.146,9.301,4.367,16.194,10.518,18.686c2.984,1.209,6.5,2.605,6.5,2.605
		C30.175,131.63,36.826,98.708,36.601,84.895z"/>
	<path fill="#F15A24" d="M48.479,103.582c-0.228-14.619-9.975-23.602-21.775-20.074c-11.791,3.519-21.16,18.224-20.929,32.824
		c0.229,14.609,9.965,23.602,21.776,20.073C39.36,132.886,48.718,118.191,48.479,103.582z"/>
	<path fill="#FBB03B" d="M45.117,104.672c-0.189-12.119-8.269-19.565-18.051-16.64c-9.774,2.917-17.541,15.107-17.35,27.209
		c0.19,12.11,8.261,19.565,18.052,16.639C37.558,128.964,45.315,116.782,45.117,104.672z"/>
	<g>
		<path fill="#FBD08D" d="M25.588,127.954c-0.37,0-0.737-0.114-1.047-0.335c-0.483-0.344-0.766-0.904-0.757-1.497l0.024-1.57
			c-0.912,0.172-1.806,0.262-2.633,0.262c-0.92,0-1.736-0.11-2.423-0.328c-0.465-0.147-0.852-0.477-1.07-0.914
			c-0.218-0.437-0.25-0.944-0.088-1.404l1.049-2.988c0.259-0.737,0.953-1.207,1.701-1.207c0.153,0,0.307,0.019,0.461,0.06
			c0.472,0.125,1.04,0.19,1.641,0.19c1.051,0,2.172-0.201,3.241-0.581c2.468-0.89,3.82-2.696,3.834-3.941
			c0.005-0.459,0.013-1.088-2.912-1.156c-2.371-0.027-5.343-0.289-7.104-2.094c-1.002-1.027-1.499-2.408-1.477-4.104
			c0.047-3.608,2.513-7.275,6.369-9.582l0.03-2.871c0.008-0.756,0.486-1.427,1.198-1.681l2.637-0.94
			c0.197-0.07,0.402-0.105,0.606-0.105c0.371,0,0.737,0.114,1.047,0.335c0.48,0.342,0.763,0.898,0.756,1.487l-0.015,1.469
			c0.731-0.125,1.438-0.186,2.127-0.186c0.603,0,1.181,0.047,1.766,0.143c0.531,0.087,0.995,0.407,1.266,0.871
			c0.271,0.464,0.321,1.025,0.136,1.53l-1.086,2.964c-0.264,0.72-0.947,1.184-1.693,1.184c-0.102,0-0.204-0.009-0.307-0.026
			c-0.352-0.061-0.789-0.136-1.37-0.136c-0.912,0-1.915,0.192-2.98,0.572c-2.569,0.914-3.273,2.518-3.285,3.322
			c-0.001,0.203,0.03,0.278,0.03,0.279c0.107,0.096,0.692,0.396,3.386,0.501c2.013,0.051,8.215,0.21,8.128,6.649
			c-0.052,3.829-2.651,7.687-6.71,10.073l-0.035,3.014c-0.008,0.751-0.482,1.419-1.189,1.675l-2.639,0.956
			C26.003,127.918,25.795,127.954,25.588,127.954z"/>
		<path fill="#F15A24" d="M28.274,121.122l-0.047,4.071l-2.639,0.956l0.06-3.944c-2.431,0.831-4.902,1.02-6.352,0.562l1.049-2.988
			c1.438,0.379,3.61,0.395,5.946-0.435c2.98-1.075,5.008-3.407,5.034-5.62c0.026-2.158-1.586-2.909-4.675-2.98
			c-4.246-0.048-6.863-0.949-6.818-4.371c0.042-3.233,2.538-6.593,6.358-8.537l0.041-3.921l2.637-0.94l-0.04,3.802
			c2.458-0.798,4.179-0.783,5.429-0.577l-1.086,2.964c-0.871-0.149-2.574-0.442-5.261,0.514c-3.221,1.146-4.461,3.392-4.484,4.996
			c-0.018,2,1.518,2.466,5.149,2.609c4.292,0.11,6.442,1.344,6.395,4.822C34.929,115.233,32.594,118.957,28.274,121.122z"/>
	</g>
	
		<rect x="17.582" y="84.078" transform="matrix(0.9457 0.3249 -0.3249 0.9457 28.7273 -2.4877)" fill="#F15A24" width="8.46" height="1.374"/>
	
		<rect x="22.905" y="82.054" transform="matrix(0.9457 0.325 -0.325 0.9457 28.3648 -4.327)" fill="#F15A24" width="8.46" height="1.373"/>
	
		<rect x="11.43" y="87.796" transform="matrix(0.9457 0.325 -0.325 0.9457 29.6064 -0.2861)" fill="#F15A24" width="8.46" height="1.373"/>
	
		<rect x="5.497" y="96.202" transform="matrix(0.9457 0.325 -0.325 0.9457 32.0178 2.0987)" fill="#F15A24" width="8.46" height="1.373"/>
	
		<rect x="1.54" y="105.666" transform="matrix(0.9457 0.325 -0.325 0.9457 34.879 3.8985)" fill="#F15A24" width="8.46" height="1.373"/>
	
		<rect x="0.442" y="117.038" transform="matrix(0.9457 0.325 -0.325 0.9457 38.5153 4.8729)" fill="#F15A24" width="8.46" height="1.373"/>
	
		<rect x="1.98" y="123.439" transform="matrix(0.9457 0.325 -0.325 0.9457 40.6791 4.7203)" fill="#F15A24" width="8.46" height="1.373"/>
	
		<rect x="3.793" y="127.487" transform="matrix(0.9457 0.325 -0.325 0.9457 42.091 4.3503)" fill="#F15A24" width="8.46" height="1.373"/>
</g>
<polygon fill="#EE4014" points="44.892,21.903 44.892,36.908 70.941,36.908 61.677,21.903 "/>
<polygon fill="#F18703" points="44.892,21.903 44.892,36.908 65.139,36.908 57.834,21.903 "/>
<polygon fill="#EE4014" points="44.892,21.903 44.892,36.908 59.26,36.908 53.943,21.903 "/>
<polygon fill="#F18703" points="44.892,21.903 44.892,36.908 53.567,36.908 50.208,21.903 "/>
<polygon fill="#EE4014" points="44.892,21.903 44.892,36.908 18.843,36.908 28.106,21.903 "/>
<polygon fill="#F18703" points="44.892,21.903 44.892,36.908 24.645,36.908 31.949,21.903 "/>
<polygon fill="#EE4014" points="44.892,21.903 44.892,36.908 30.524,36.908 35.841,21.903 "/>
<polygon fill="#F18703" points="44.892,21.903 44.892,36.908 36.217,36.908 39.576,21.903 "/>
<polygon fill="#EE4014" points="46.392,21.903 44.892,21.903 43.392,21.903 42,36.908 44.892,36.908 47.784,36.908 "/>
<path fill="#F16A03" d="M47.784,36.908V39.8c0,1.597,1.295,2.892,2.892,2.892c1.597,0,2.892-1.295,2.892-2.892v-2.892H47.784z"/>
<path fill="#BE2903" d="M53.567,36.908V39.8c0,1.597,1.295,2.892,2.892,2.892c1.597,0,2.892-1.295,2.892-2.892v-2.892H53.567z"/>
<path fill="#F16A03" d="M59.351,36.908V39.8c0,1.597,1.294,2.892,2.892,2.892s2.892-1.295,2.892-2.892v-2.892H59.351z"/>
<path fill="#BE2903" d="M65.135,36.908V39.8c0,1.597,1.294,2.892,2.892,2.892s2.892-1.295,2.892-2.892v-2.892H65.135z"/>
<path fill="#BE2903" d="M42,36.908V39.8c0,1.597,1.295,2.892,2.892,2.892s2.892-1.295,2.892-2.892v-2.892H42z"/>
<path fill="#F16A03" d="M24.626,36.908V39.8c0,1.597,1.294,2.892,2.892,2.892s2.892-1.295,2.892-2.892v-2.892H24.626z"/>
<path fill="#BE2903" d="M30.41,36.908V39.8c0,1.597,1.294,2.892,2.892,2.892s2.892-1.295,2.892-2.892v-2.892H30.41z"/>
<path fill="#F16A03" d="M36.193,36.908V39.8c0,1.597,1.295,2.892,2.892,2.892s2.892-1.295,2.892-2.892v-2.892H36.193z"/>
<path fill="#BE2903" d="M18.843,36.908V39.8c0,1.597,1.294,2.892,2.892,2.892s2.892-1.295,2.892-2.892v-2.892H18.843z"/>
<rect x="28.106" y="19.554" fill="#BE2903" width="33.571" height="2.35"/>
</svg>
