<?xml version="1.0" encoding="utf-8"?>
<!-- Generator: Adobe Illustrator 16.0.0, SVG Export Plug-In . SVG Version: 6.00 Build 0)  -->
<!DOCTYPE svg PUBLIC "-//W3C//DTD SVG 1.1//EN" "http://www.w3.org/Graphics/SVG/1.1/DTD/svg11.dtd">
<svg version="1.1" id="Layer_2" xmlns="http://www.w3.org/2000/svg" xmlns:xlink="http://www.w3.org/1999/xlink" x="0px" y="0px"
	 width="346.473px" height="309.083px" viewBox="0 5.763 346.473 309.083" enable-background="new 0 5.763 346.473 309.083"
	 xml:space="preserve">
<path fill="#E8F8FF" d="M308.209,66.667c-5.301-21.279-24.403-37.118-47.31-37.118c-20.468,0-37.944,12.615-45.239,30.454
	c-4.287-3.697-9.795-6.005-15.886-6.005c-13.491,0-24.448,10.956-24.448,24.45c0,0.74,0.159,1.444,0.221,2.177
	c-14.325,4.998-24.669,19.506-24.669,35.521c0,20.248,16.426,37.699,36.674,37.699h116.135c23.622,0,42.786-20.187,42.786-43.812
	C346.473,87.952,329.678,68.958,308.209,66.667z"/>
<path fill="#E8F8FF" d="M187.44,49.984c-6.314-25.351-29.074-44.221-56.362-44.221c-24.385,0-45.206,15.029-53.897,36.282
	c-5.106-4.405-11.669-7.154-18.925-7.154c-16.073,0-29.127,13.052-29.127,29.128c0,0.882,0.19,1.721,0.264,2.594
	C12.324,72.568,0,89.853,0,108.932c0,24.122,19.57,44.913,43.692,44.913h138.357c28.146,0,50.977-24.05,50.977-52.196
	C233.026,75.343,213.017,52.714,187.44,49.984z"/>
<g>
	<rect x="115.776" y="200.832" fill="#F25A58" width="114.014" height="114.014"/>
	<rect x="115.776" y="310.699" fill="#B3483A" width="114.014" height="4.146"/>
	<polygon fill="#FF8B8A" points="237.043,153.845 273.321,153.845 229.79,200.832 193.512,200.832 	"/>
	<polygon fill="#FF8B8A" points="108.537,153.845 72.26,153.845 115.792,200.832 152.069,200.832 	"/>
	<polygon fill="#B3483A" points="243.608,153.845 101.973,153.845 115.792,200.832 229.79,200.832 	"/>
</g>
<path fill="#FFF482" d="M188.976,255.219l-7.521,9.959c-1.017,1.321-1.83,3.455-1.83,5.182v2.136h-13.209v-3.05
	c0-4.369,1.22-7.112,3.862-10.567l7.52-9.653c1.625-2.135,2.947-4.572,2.947-6.809c0-4.775-3.149-8.333-8.231-8.333
	c-5.386,0-8.129,3.76-8.129,8.435h-13.211c0-12.602,9.553-20.324,21.34-20.324c11.483,0,21.442,7.418,21.442,20.324
	C193.956,247.598,191.822,251.459,188.976,255.219z"/>
<rect x="166.01" y="281.641" fill="#FFF482" width="14.024" height="13.516"/>
<rect x="136.247" y="109.803" transform="matrix(0.5311 -0.8473 0.8473 0.5311 -31.0846 173.2026)" fill="#F25A58" width="9.415" height="9.769"/>
<rect x="60.916" y="129.01" transform="matrix(0.5311 -0.8473 0.8473 0.5311 -82.6804 118.3915)" fill="#73B705" width="9.415" height="9.769"/>
<rect x="111.805" y="31.247" transform="matrix(0.5311 -0.8473 0.8473 0.5311 24.0193 115.6642)" fill="#4BA3CC" width="9.415" height="9.768"/>
<rect x="227.007" y="119.292" transform="matrix(0.5312 -0.8473 0.8473 0.5312 3.4249 254.5419)" fill="#4BA3CC" width="9.415" height="9.769"/>
<rect x="295.406" y="74.927" transform="matrix(0.5311 -0.8473 0.8473 0.5311 73.1054 291.7207)" fill="#04BFAD" width="9.415" height="9.769"/>
<g>
	
		<path fill="none" stroke="#FFA58F" stroke-width="0.8337" stroke-linecap="round" stroke-linejoin="round" stroke-miterlimit="10" d="
		M267.006,73.671l-1.559,0.779c-0.285,0.143-0.701,0.074-0.926-0.15l-5.325-5.324l-0.653,0.655
		c-0.676,0.676-1.725,0.624-2.328-0.115l-3.696-4.517c-0.604-0.739-0.55-1.896,0.126-2.572l2.46-2.459
		c0.677-0.677,1.834-0.733,2.574-0.128l4.515,3.697c0.741,0.605,0.791,1.654,0.116,2.33l-0.653,0.654l6.141,6.142
		c0.227,0.225,0.178,0.526-0.107,0.668l-0.137,0.068L267.006,73.671z"/>
	
		<path fill="none" stroke="#FFA58F" stroke-width="0.8337" stroke-linecap="round" stroke-linejoin="round" stroke-miterlimit="10" d="
		M255.254,64.214l1.638-1.637c0.228-0.227,0.228-0.594,0-0.819c-0.224-0.225-0.593-0.225-0.817,0l-1.638,1.638
		c-0.228,0.226-0.226,0.594,0,0.819C254.663,64.439,255.03,64.44,255.254,64.214z"/>
	
		<polyline fill="none" stroke="#FFA58F" stroke-width="0.8337" stroke-linecap="round" stroke-linejoin="round" stroke-miterlimit="10" points="
		259.769,67.893 260.684,68.808 261.848,68.691 262.209,69.055 261.915,69.787 262.217,70.09 262.762,70.235 263.549,71.022 
		264.25,71.095 264.784,71.628 265.51,71.694 265.875,72.058 265.336,72.721 265.627,73.012 265.631,73.397 266.161,73.926 	"/>
</g>
<g>
	<path fill="none" stroke="#DF5A49" stroke-width="0.5" stroke-linecap="round" stroke-linejoin="round" stroke-miterlimit="10" d="
		M181.475,93.687l-3.953-0.604l-0.081-1.548c-0.03-0.273-0.278-0.531-0.552-0.572l-5.131-0.785
		c-0.272-0.042-0.567,0.137-0.657,0.397l-0.499,1.449l-0.495-0.076c-0.695-0.106-2.22,1.285-5.185,0.832l-0.008,0.052
		c0,0-0.042,0.273-0.083,0.545l-1.436,9.389c-0.042,0.272,0.179,0.323,0.45,0.365l15.815,2.419c0.271,0.042,0.496,0.059,0.539-0.213
		l1.662-10.874C181.905,94.19,181.749,93.729,181.475,93.687z"/>
	
		<line fill="none" stroke="#DF5A49" stroke-width="0.5" stroke-linecap="round" stroke-linejoin="round" stroke-miterlimit="10" x1="164.671" y1="91.117" x2="166.648" y2="91.419"/>
	
		<circle fill="none" stroke="#DF5A49" stroke-width="0.5" stroke-linecap="round" stroke-linejoin="round" stroke-miterlimit="10" cx="173.155" cy="98.484" r="4"/>
</g>
<g>
	<path fill="none" stroke="#DF5A49" stroke-width="0.5" stroke-linecap="round" stroke-linejoin="round" stroke-miterlimit="10" d="
		M315.262,101.867c0.043-0.62-0.424-1.157-1.045-1.2l-15.713-1.082c-0.619-0.042-1.155,0.425-1.198,1.045l-0.808,11.722
		c-0.043,0.62,0.426,1.157,1.045,1.2l15.713,1.082c0.621,0.043,1.158-0.425,1.199-1.045L315.262,101.867z"/>
	
		<line fill="none" stroke="#DF5A49" stroke-width="0.5" stroke-linecap="round" stroke-linejoin="round" stroke-miterlimit="10" x1="302.769" y1="115.917" x2="307.756" y2="116.261"/>
	
		<line fill="none" stroke="#DF5A49" stroke-width="0.5" stroke-linecap="round" stroke-linejoin="round" stroke-miterlimit="10" x1="297.125" y1="110.517" x2="314.086" y2="111.685"/>
</g>
<g>
	<path fill="none" stroke="#F2C7C6" stroke-linecap="round" stroke-linejoin="round" stroke-miterlimit="10" d="M83.336,62.733
		c-0.113-0.611-0.701-1.014-1.312-0.9l-15.483,2.888c-0.611,0.114-1.014,0.701-0.899,1.312l2.154,11.551
		c0.114,0.611,0.702,1.014,1.312,0.9l15.481-2.888c0.611-0.114,1.015-0.701,0.9-1.312L83.336,62.733z"/>
	
		<line fill="none" stroke="#F2C7C6" stroke-linecap="round" stroke-linejoin="round" stroke-miterlimit="10" x1="67.943" y1="75.649" x2="84.655" y2="72.533"/>
</g>
<g>
	<path fill="none" stroke="#FF5B34" stroke-width="0.5" stroke-linecap="round" stroke-linejoin="round" stroke-miterlimit="10" d="
		M98.206,109.775c0,0,1.041-0.15,1.041-1.429c0-1.276-2.942-1.315-2.942-2.442s2.082-2.067,2.082-2.067"/>
	<path fill="none" stroke="#FF5B34" stroke-width="0.5" stroke-linecap="round" stroke-linejoin="round" stroke-miterlimit="10" d="
		M99.247,110.963h4.268c0.653,0,1.188,0.535,1.188,1.188c0,0.032-1.188,8.372-1.188,8.372c-0.223,1.24-1.167,2.316-2.375,2.316
		h-6.022c-1.207,0-2.152-1.076-2.375-2.316c0,0-1.188-8.34-1.188-8.372c0-0.653,0.535-1.188,1.188-1.188H99.247"/>
	<path fill="none" stroke="#FF5B34" stroke-width="0.5" stroke-linecap="round" stroke-linejoin="round" stroke-miterlimit="10" d="
		M103.515,120.522c-0.013,0.073-0.037,0.143-0.055,0.215c0.235,0.04,0.474,0.073,0.721,0.073c2.391,0,4.329-1.938,4.329-4.33
		c0-2.215-1.669-4.02-3.814-4.277"/>
</g>
<g>
	
		<circle fill="none" stroke="#E18465" stroke-width="0.5468" stroke-linecap="round" stroke-linejoin="round" stroke-miterlimit="10" cx="147.709" cy="51.173" r="1.641"/>
	
		<circle fill="none" stroke="#E18465" stroke-width="0.5468" stroke-linecap="round" stroke-linejoin="round" stroke-miterlimit="10" cx="161.078" cy="56.013" r="1.641"/>
	
		<line fill="none" stroke="#E18465" stroke-width="0.5468" stroke-linecap="round" stroke-linejoin="round" stroke-miterlimit="10" x1="150.145" y1="51.474" x2="159.22" y2="54.759"/>
	
		<line fill="none" stroke="#E18465" stroke-width="0.5468" stroke-linecap="round" stroke-linejoin="round" stroke-miterlimit="10" x1="148.919" y1="49.421" x2="153.425" y2="36.973"/>
	
		<polyline fill="none" stroke="#E18465" stroke-width="0.5468" stroke-linecap="round" stroke-linejoin="round" stroke-miterlimit="10" points="
		153.244,37.476 167.64,42.687 165.618,48.271 150.084,46.203 	"/>
	
		<polyline fill="none" stroke="#E18465" stroke-width="0.5468" stroke-linecap="round" stroke-linejoin="round" stroke-miterlimit="10" points="
		153.244,37.476 152.971,32.725 149.596,31.503 	"/>
</g>
<path fill="#7CB4DA" d="M47.017,101.962c1.146-1.142,1.51,0.788,1.51,0.788c0.101,0.534-0.131,1.285-0.515,1.669l-3.404,3.404
	c-0.384,0.384-0.591,1.13-0.46,1.657l2.204,8.845c0.131,0.527-0.075,1.272-0.459,1.657l-0.377,0.377
	c-0.384,0.384-0.899,0.302-1.144-0.183l-3.598-7.128c-0.245-0.485-0.759-0.567-1.144-0.183l-2.192,2.191
	c-0.384,0.384-0.644,1.14-0.578,1.679l0.098,0.797c0.066,0.539-0.11,1.21-0.392,1.492c-0.281,0.281-0.597,0.597-0.702,0.702
	c-0.104,0.104-0.396-0.204-0.649-0.685l-0.56-1.065c-0.253-0.481-0.497-0.945-0.542-1.031c-0.045-0.086-0.149-0.192-0.231-0.235
	s-0.542-0.285-1.023-0.538l-1.083-0.569c-0.481-0.253-0.819-0.515-0.751-0.583c0.068-0.067,0.384-0.383,0.702-0.701
	c0.318-0.318,1.02-0.527,1.56-0.463l0.779,0.092c0.54,0.063,1.295-0.199,1.68-0.583l2.191-2.191
	c0.384-0.384,0.302-0.899-0.183-1.144l-7.128-3.598c-0.485-0.245-0.568-0.759-0.184-1.144l0.377-0.377
	c0.384-0.384,1.13-0.594,1.659-0.466l8.746,2.12c0.528,0.128,1.274-0.082,1.658-0.465L47.017,101.962z"/>
<g>
	<path fill="none" stroke="#4BA3CC" stroke-width="0.5" stroke-linecap="round" stroke-linejoin="round" stroke-miterlimit="10" d="
		M126.934,73.476c-0.091-0.545-0.606-0.913-1.151-0.822l-16.769,2.792c-0.544,0.091-0.913,0.606-0.822,1.151l1.807,10.851
		c0.091,0.545,0.606,0.913,1.15,0.822l16.769-2.792c0.545-0.091,0.913-0.606,0.822-1.151L126.934,73.476z"/>
	
		<line fill="none" stroke="#4BA3CC" stroke-width="0.5" stroke-linecap="round" stroke-linejoin="round" stroke-miterlimit="10" x1="111.808" y1="83.092" x2="113.781" y2="82.763"/>
	
		<line fill="none" stroke="#4BA3CC" stroke-width="0.5" stroke-linecap="round" stroke-linejoin="round" stroke-miterlimit="10" x1="112.137" y1="85.064" x2="115.096" y2="84.572"/>
	
		<line fill="none" stroke="#4BA3CC" stroke-width="0.5" stroke-linecap="round" stroke-linejoin="round" stroke-miterlimit="10" x1="116.082" y1="84.408" x2="119.042" y2="83.915"/>
	
		<line fill="none" stroke="#4BA3CC" stroke-width="0.5" stroke-linecap="round" stroke-linejoin="round" stroke-miterlimit="10" x1="124.138" y1="84.08" x2="126.11" y2="83.751"/>
	
		<line fill="none" stroke="#4BA3CC" stroke-width="0.5" stroke-linecap="round" stroke-linejoin="round" stroke-miterlimit="10" x1="111.151" y1="79.146" x2="113.124" y2="78.818"/>
	
		<line fill="none" stroke="#4BA3CC" stroke-width="0.5" stroke-linecap="round" stroke-linejoin="round" stroke-miterlimit="10" x1="111.48" y1="81.119" x2="113.452" y2="80.79"/>
	
		<line fill="none" stroke="#4BA3CC" stroke-width="0.5" stroke-linecap="round" stroke-linejoin="round" stroke-miterlimit="10" x1="111.48" y1="81.119" x2="111.151" y2="79.146"/>
	
		<line fill="none" stroke="#4BA3CC" stroke-width="0.5" stroke-linecap="round" stroke-linejoin="round" stroke-miterlimit="10" x1="113.452" y1="80.79" x2="113.124" y2="78.818"/>
	
		<line fill="none" stroke="#4BA3CC" stroke-width="0.5" stroke-linecap="round" stroke-linejoin="round" stroke-miterlimit="10" x1="115.753" y1="82.434" x2="117.727" y2="82.106"/>
	
		<line fill="none" stroke="#4BA3CC" stroke-width="0.5" stroke-linecap="round" stroke-linejoin="round" stroke-miterlimit="10" x1="123.645" y1="81.12" x2="125.618" y2="80.792"/>
	
		<line fill="none" stroke="#4BA3CC" stroke-width="0.5" stroke-linecap="round" stroke-linejoin="round" stroke-miterlimit="10" x1="119.699" y1="81.778" x2="121.672" y2="81.449"/>
</g>
<g>
	
		<line fill="none" stroke="#F25A58" stroke-width="0.8456" stroke-linecap="round" stroke-linejoin="round" stroke-miterlimit="10" x1="257.278" y1="104.308" x2="259.644" y2="103.391"/>
	
		<polyline fill="none" stroke="#F25A58" stroke-width="0.8456" stroke-linecap="round" stroke-linejoin="round" stroke-miterlimit="10" points="
		259.29,102.477 257.833,102.229 256.922,103.393 	"/>
	
		<line fill="none" stroke="#F25A58" stroke-width="0.8456" stroke-linecap="round" stroke-linejoin="round" stroke-miterlimit="10" x1="256.952" y1="99.955" x2="257.833" y2="102.229"/>
	
		<path fill="none" stroke="#F25A58" stroke-width="0.8456" stroke-linecap="round" stroke-linejoin="round" stroke-miterlimit="10" d="
		M264.057,120.56c0,0,0.211,1.03,0.354,1.938c0.141,0.907,0.178,1.704,0.178,1.704"/>
	
		<path fill="none" stroke="#F25A58" stroke-width="0.8456" stroke-linecap="round" stroke-linejoin="round" stroke-miterlimit="10" d="
		M258.918,103.672c0,0,2.797,6.131,4.207,9.072c1.408,2.941,4.957,8.773,7.584,10.822c2.627,2.048,4.688,3.703,4.688,3.703
		l-2.326,0.901c0,0-2.17-3.469-6.059-1.962l0.195-0.076c-3.889,1.506-3.154,5.532-3.154,5.532l-2.326,0.902
		c0,0,0.407-2.611,0.969-5.895c0.561-3.284-0.748-9.984-1.688-13.107c-0.94-3.123-3.006-9.538-3.006-9.538"/>
	
		<polyline fill="none" stroke="#F25A58" stroke-width="0.8456" stroke-linecap="round" stroke-linejoin="round" stroke-miterlimit="10" points="
		270.782,123.28 270.706,122.577 270.456,121.929 261.782,125.29 262.032,125.938 262.45,126.508 	"/>
	
		<path fill="none" stroke="#F25A58" stroke-width="0.8456" stroke-linecap="round" stroke-linejoin="round" stroke-miterlimit="10" d="
		M265.584,119.968c0,0,0.539,0.903,1.047,1.669c0.507,0.765,1.016,1.38,1.016,1.38"/>
	
		<line fill="none" stroke="#F25A58" stroke-width="0.8456" stroke-linecap="round" stroke-linejoin="round" stroke-miterlimit="10" x1="269.329" y1="124.18" x2="264.129" y2="126.194"/>
	
		<polyline fill="none" stroke="#F25A58" stroke-width="0.8456" stroke-linecap="round" stroke-linejoin="round" stroke-miterlimit="10" points="
		266.894,118.476 266.808,117.901 261.76,119.856 262.084,120.339 	"/>
	
		<line fill="none" stroke="#F25A58" stroke-width="0.8456" stroke-linecap="round" stroke-linejoin="round" stroke-miterlimit="10" x1="266.812" y1="119.008" x2="262.504" y2="120.677"/>
</g>
<g>
	
		<polygon fill="none" stroke="#49C8CE" stroke-width="0.5" stroke-linecap="round" stroke-linejoin="round" stroke-miterlimit="10" points="
		195.522,79.659 186.022,70.159 205.022,70.159 	"/>
	
		<line fill="none" stroke="#49C8CE" stroke-width="0.5" stroke-linecap="round" stroke-linejoin="round" stroke-miterlimit="10" x1="195.522" y1="79.659" x2="195.522" y2="86.159"/>
	
		<line fill="none" stroke="#49C8CE" stroke-width="0.5" stroke-linecap="round" stroke-linejoin="round" stroke-miterlimit="10" x1="190.522" y1="86.159" x2="200.522" y2="86.159"/>
	
		<line fill="none" stroke="#49C8CE" stroke-width="0.5" stroke-linecap="round" stroke-linejoin="round" stroke-miterlimit="10" x1="190.522" y1="74.159" x2="200.522" y2="74.159"/>
</g>
<g>
	<path fill="none" stroke="#C2414A" stroke-width="0.5" stroke-linecap="round" stroke-linejoin="round" stroke-miterlimit="10" d="
		M181.522,131.03c0-2.244,0.586-3.113,1-4.129h4c0.333,0.885,1,1.885,1,4.129c0,1.883-1.343,2.871-3,2.871
		C182.866,133.901,181.522,132.913,181.522,131.03z"/>
	
		<line fill="none" stroke="#C2414A" stroke-width="0.5" stroke-linecap="round" stroke-linejoin="round" stroke-miterlimit="10" x1="184.522" y1="133.901" x2="184.522" y2="136.901"/>
	
		<line fill="none" stroke="#C2414A" stroke-width="0.5" stroke-linecap="round" stroke-linejoin="round" stroke-miterlimit="10" x1="182.189" y1="136.901" x2="186.855" y2="136.901"/>
	
		<line fill="none" stroke="#C2414A" stroke-width="0.5" stroke-linecap="round" stroke-linejoin="round" stroke-miterlimit="10" x1="181.588" y1="131.901" x2="187.456" y2="131.901"/>
	<path fill="none" stroke="#C2414A" stroke-width="0.5" stroke-linecap="round" stroke-linejoin="round" stroke-miterlimit="10" d="
		M193.522,120.901h-2c0,1.5-2,4.857-2,8c0,2.857,0,8,0,8h6c0,0,0-4.953,0-8.047C195.522,125.758,193.522,122.401,193.522,120.901z"
		/>
	
		<rect x="191.522" y="117.901" fill="none" stroke="#C2414A" stroke-width="0.5" stroke-linecap="round" stroke-linejoin="round" stroke-miterlimit="10" width="2" height="3"/>
	
		<rect x="189.522" y="129.628" fill="none" stroke="#C2414A" stroke-width="0.5" stroke-linecap="round" stroke-linejoin="round" stroke-miterlimit="10" width="6" height="5.5"/>
	
		<line fill="none" stroke="#C2414A" stroke-width="0.5" stroke-linecap="round" stroke-linejoin="round" stroke-miterlimit="10" x1="191.522" y1="118.901" x2="193.522" y2="118.901"/>
</g>
<g>
	
		<path fill="none" stroke="#2C6980" stroke-width="0.7887" stroke-linecap="round" stroke-linejoin="round" stroke-miterlimit="10" d="
		M236.493,97.358l-1.828,0.492c-0.461,0.125-0.951-0.202-1.094-0.727l-3.382-12.566c-0.142-0.525,0.119-1.053,0.581-1.177
		l1.828-0.492c0.462-0.125,0.951,0.202,1.094,0.727l0.359,1.337c0.025-0.01,0.05-0.018,0.076-0.025l0.914-0.246
		c0.461-0.124,0.951,0.202,1.092,0.727l2.152,7.996c0.143,0.525-0.119,1.053-0.58,1.177l-0.914,0.246
		c-0.025,0.007-0.053,0.013-0.078,0.016l0.359,1.337C237.215,96.706,236.956,97.234,236.493,97.358z"/>
	<g>
		
			<path fill="none" stroke="#2C6980" stroke-width="0.7887" stroke-linecap="round" stroke-linejoin="round" stroke-miterlimit="10" d="
			M238.807,87.751c0.63-0.169,1.279,0.206,1.449,0.835s-0.205,1.28-0.834,1.45"/>
	</g>
	
		<line fill="none" stroke="#2C6980" stroke-width="0.7887" stroke-linecap="round" stroke-linejoin="round" stroke-miterlimit="10" x1="234.051" y1="84.953" x2="236.713" y2="94.844"/>
	
		<path fill="none" stroke="#2C6980" stroke-width="0.7887" stroke-linecap="round" stroke-linejoin="round" stroke-miterlimit="10" d="
		M214.321,87.808l1.828-0.492c0.461-0.124,0.952,0.202,1.094,0.727l3.383,12.566c0.141,0.525-0.121,1.053-0.582,1.177l-1.828,0.492
		c-0.461,0.124-0.952-0.202-1.094-0.727l-0.359-1.337c-0.024,0.01-0.049,0.018-0.075,0.025l-0.914,0.246
		c-0.462,0.124-0.952-0.202-1.094-0.727l-2.152-7.997c-0.141-0.525,0.12-1.053,0.581-1.177l0.914-0.246
		c0.025-0.007,0.053-0.012,0.078-0.016l-0.359-1.337C213.598,88.46,213.859,87.932,214.321,87.808z"/>
	<g>
		
			<path fill="none" stroke="#2C6980" stroke-width="0.7887" stroke-linecap="round" stroke-linejoin="round" stroke-miterlimit="10" d="
			M212.004,97.415c-0.629,0.169-1.279-0.206-1.448-0.835c-0.17-0.629,0.205-1.28,0.835-1.45"/>
	</g>
	
		<line fill="none" stroke="#2C6980" stroke-width="0.7887" stroke-linecap="round" stroke-linejoin="round" stroke-miterlimit="10" x1="216.761" y1="100.214" x2="214.099" y2="90.323"/>
	
		<line fill="none" stroke="#2C6980" stroke-width="0.7887" stroke-linecap="round" stroke-linejoin="round" stroke-miterlimit="10" x1="219.92" y1="93.243" x2="230.549" y2="90.382"/>
	
		<line fill="none" stroke="#2C6980" stroke-width="0.7887" stroke-linecap="round" stroke-linejoin="round" stroke-miterlimit="10" x1="220.333" y1="94.766" x2="230.959" y2="91.905"/>
</g>
</svg>
