<?xml version="1.0" encoding="utf-8"?>
<!-- Generator: Adobe Illustrator 16.0.0, SVG Export Plug-In . SVG Version: 6.00 Build 0)  -->
<!DOCTYPE svg PUBLIC "-//W3C//DTD SVG 1.1//EN" "http://www.w3.org/Graphics/SVG/1.1/DTD/svg11.dtd">
<svg version="1.1" id="Layer_2" xmlns="http://www.w3.org/2000/svg" xmlns:xlink="http://www.w3.org/1999/xlink" x="0px" y="0px"
	 width="260.082px" height="279.959px" viewBox="0 0 260.082 279.959" enable-background="new 0 0 260.082 279.959"
	 xml:space="preserve">
<g>
	
		<path fill="none" stroke="#6BCAF7" stroke-linecap="round" stroke-linejoin="round" stroke-miterlimit="10" stroke-dasharray="4,6" d="
		M150.876,135.649c1.422-15.221,3.774-30.449,8.705-44.919c4.932-14.471,12.549-28.218,23.473-38.913"/>
	
		<path fill="none" stroke="#6BCAF7" stroke-linecap="round" stroke-linejoin="round" stroke-miterlimit="10" stroke-dasharray="4,6" d="
		M140.036,166.948c-5.715-19.799-6.874-40.897-3.362-61.203c0.658-3.804,1.639-7.865,4.565-10.383"/>
	
		<path fill="none" stroke="#6BCAF7" stroke-linecap="round" stroke-linejoin="round" stroke-miterlimit="10" stroke-dasharray="4,6" d="
		M150.855,152.746c-6.828-21.322-7.582-44.382-3.49-66.394c4.093-22.011,12.933-42.999,24.669-62.064"/>
	
		<path fill="none" stroke="#6BCAF7" stroke-linecap="round" stroke-linejoin="round" stroke-miterlimit="10" stroke-dasharray="4,6" d="
		M118.401,170.675c2.295-25.418,3.044-51.239-1.913-76.274s-16.008-49.416-34.532-66.972"/>
	
		<path fill="none" stroke="#6BCAF7" stroke-linecap="round" stroke-linejoin="round" stroke-miterlimit="10" stroke-dasharray="4,6" d="
		M130.157,170.675c11.545-22.76,4.746-61.087,4.746-83.527c0-25.521,4.335-47.55-2.271-74.999"/>
	
		<path fill="none" stroke="#6BCAF7" stroke-linecap="round" stroke-linejoin="round" stroke-miterlimit="10" stroke-dasharray="4,6" d="
		M122.989,175.355c7.188-29.405,11.967-29.538,5.768-71.65c-1.43-9.714-3.135-23.175-11.092-41.194"/>
	
		<path fill="none" stroke="#6BCAF7" stroke-linecap="round" stroke-linejoin="round" stroke-miterlimit="10" stroke-dasharray="4,6" d="
		M100.62,169.31c5.691-11.063,10.832-22.757,11.678-35.17c0.889-13.039-3.151-26.217-10.477-37.041
		c-7.326-10.823-17.815-19.337-29.541-25.111"/>
	<g>
		<circle fill="#4BA3CC" cx="177.862" cy="15.062" r="14.38"/>
		<g>
			
				<path fill="none" stroke="#FFFFFF" stroke-width="0.8422" stroke-linecap="round" stroke-linejoin="round" stroke-miterlimit="10" d="
				M182.807,9.092c0,0-1.784,2.154-2.282,2.755c-1.428,1.723-3.531-0.02-3.531-0.02s-2.104-1.743-0.678-3.466
				c0.499-0.602,2.283-2.755,2.283-2.755"/>
			
				<path fill="none" stroke="#FFFFFF" stroke-width="0.8422" stroke-linecap="round" stroke-linejoin="round" stroke-miterlimit="10" d="
				M181.405,7.93c0,0-9.239,11.153-9.405,11.354c-0.476,0.574-1.188,0.005-1.188,0.005s-0.691-0.593-0.216-1.167
				c0.166-0.201,9.405-11.354,9.405-11.354"/>
			
				<path fill="none" stroke="#FFFFFF" stroke-width="0.8422" stroke-linecap="round" stroke-linejoin="round" stroke-miterlimit="10" d="
				M179.772,18.468c0,0-3.397,4.102-3.564,4.302c-0.476,0.574,0.216,1.167,0.216,1.167s0.712,0.569,1.188-0.005
				c0.166-0.201,9.405-11.354,9.405-11.354c-0.415-0.344-3.454-0.114-5.814,2.735C179.85,16.945,179.772,18.468,179.772,18.468z"/>
		</g>
	</g>
	<g>
		<g>
			<path fill="#043573" d="M260.082,269.591V121.317c0-5.702-4.669-10.369-10.369-10.369h-66.508
				c-5.702,0-10.369,4.667-10.369,10.369v148.274c0,5.699,4.667,10.368,10.369,10.368h66.508
				C255.413,279.959,260.082,275.291,260.082,269.591z"/>
			<path fill="#005780" d="M260.082,263.591V115.317c0-5.702-4.669-10.369-10.369-10.369h-66.508
				c-5.702,0-10.369,4.667-10.369,10.369v148.274c0,5.699,4.667,10.368,10.369,10.368h66.508
				C255.413,273.959,260.082,269.291,260.082,263.591z"/>
		</g>
		<circle fill="#0587BF" cx="216.458" cy="260.56" r="5.472"/>
		
			<line fill="none" stroke="#0668A4" stroke-width="2" stroke-linecap="round" stroke-linejoin="round" stroke-miterlimit="10" x1="208.01" y1="114.303" x2="224.907" y2="114.303"/>
		<rect x="179.935" y="127.311" fill="#ABE4FF" width="72.721" height="122.611"/>
		<g>
			<g>
				<path fill="#4BA3CC" d="M239.775,239.284c-0.113,0-0.226-0.014-0.346-0.035l-44.017-8.836c-2.092,0.071-4.325,0.347-6.672,0.636
					c-2.63,0.325-5.358,0.665-8.115,0.735c-0.607,0.015-1.202,0.021-1.803,0.021c-30.062,0-52.738-20.139-52.738-46.851
					c0-25.92,25.977-47.006,57.905-47.006s57.906,21.086,57.906,47.006c0,9.762-3.634,19.078-10.519,27.016l10.023,24.91
					c0.24,0.594,0.142,1.279-0.275,1.767C240.793,239.057,240.291,239.284,239.775,239.284L239.775,239.284z"/>
				<path fill="#F2FBFF" d="M196.174,221.144l-1.076,0.037c-2.498,0.085-5.029,0.396-7.477,0.698c-2.587,0.32-4.95,0.612-7.231,0.67
					c-0.51,0.012-1.036,0.019-1.567,0.019c-24.8,0-43.501-16.17-43.501-37.613c0-20.826,21.832-37.77,48.668-37.77
					s48.669,16.943,48.669,37.77c0,7.484-2.855,14.733-8.259,20.963l-3.698,4.265l6.953,17.281L196.174,221.144z"/>
			</g>
			<circle fill="#4BA3CC" cx="183.99" cy="184.75" r="7.147"/>
			<circle fill="#4BA3CC" cx="162.946" cy="184.75" r="7.147"/>
			<circle fill="#4BA3CC" cx="205.033" cy="184.75" r="7.147"/>
		</g>
	</g>
	<g>
		<g>
			<path fill="#043573" d="M87.246,269.591V121.317c0-5.702-4.668-10.369-10.369-10.369H10.369C4.667,110.948,0,115.616,0,121.317
				v148.274c0,5.699,4.667,10.368,10.369,10.368h66.508C82.577,279.959,87.246,275.291,87.246,269.591z"/>
			<path fill="#005780" d="M87.246,263.591V115.317c0-5.702-4.668-10.369-10.369-10.369H10.369C4.667,104.948,0,109.616,0,115.317
				v148.274c0,5.699,4.667,10.368,10.369,10.368h66.508C82.577,273.959,87.246,269.291,87.246,263.591z"/>
		</g>
		<circle fill="#0587BF" cx="43.623" cy="260.56" r="5.472"/>
		
			<line fill="none" stroke="#0668A4" stroke-width="2" stroke-linecap="round" stroke-linejoin="round" stroke-miterlimit="10" x1="35.174" y1="114.303" x2="52.071" y2="114.303"/>
		<rect x="7.1" y="127.311" fill="#FFD6AD" width="72.721" height="122.611"/>
		<g>
			<g>
				<path fill="#F25A58" d="M17.596,242.604c0.12,0,0.241-0.015,0.369-0.037l46.901-9.415c2.229,0.076,4.609,0.369,7.11,0.678
					c2.802,0.347,5.709,0.708,8.646,0.783c0.648,0.016,1.281,0.022,1.921,0.022c32.033,0,56.194-21.458,56.194-49.92
					c0-27.62-27.679-50.088-61.701-50.088c-34.021,0-61.701,22.468-61.701,50.088c0,10.401,3.872,20.328,11.208,28.786
					l-10.68,26.542c-0.256,0.633-0.151,1.363,0.293,1.883C16.511,242.364,17.046,242.604,17.596,242.604L17.596,242.604z"/>
				<path fill="#FFF1BF" d="M37.919,211.596l-3.939-4.543c-5.758-6.64-8.801-14.364-8.801-22.339
					c0-22.191,23.264-40.245,51.859-40.245c28.595,0,51.858,18.054,51.858,40.245c0,22.849-19.927,40.078-46.352,40.078
					c-0.561,0-1.116-0.006-1.684-0.02c-2.427-0.062-4.955-0.375-7.631-0.706c-2.665-0.328-5.366-0.662-8.031-0.752l-1.146-0.038
					L30.51,230.01L37.919,211.596z"/>
			</g>
			<circle fill="#F25A58" cx="77.037" cy="184.497" r="7.615"/>
			<circle fill="#F25A58" cx="99.46" cy="184.497" r="7.615"/>
			<circle fill="#F25A58" cx="54.615" cy="184.497" r="7.615"/>
		</g>
	</g>
	<g>
		<path fill="#616DC5" d="M131.228,54.739c1.46,3.978-0.6,8.428-4.578,9.889l-14.466,5.311c-3.978,1.46-8.428-0.6-9.889-4.578
			l-5.311-14.466c-1.46-3.979,0.599-8.428,4.578-9.889l14.466-5.311c3.979-1.46,8.428,0.599,9.889,4.578L131.228,54.739z"/>
		<path opacity="0.29" fill="#97A0E3" d="M116.347,36.564l-14.466,5.311c-3.978,1.46-6.038,5.91-4.577,9.888l0.959,2.613
			l28.932-10.622l-0.959-2.614C124.775,37.163,120.325,35.104,116.347,36.564z"/>
		<path fill="#97A0E3" d="M116.028,35.696l-14.466,5.311c-3.979,1.46-6.038,5.91-4.578,9.889l0.959,2.613l28.932-10.622
			l-0.959-2.613C124.456,36.295,120.006,34.235,116.028,35.696z"/>
		<path fill="#87C0FF" d="M101.562,41.007c-3.979,1.46-6.038,5.91-4.578,9.889l0.959,2.613l11.069-4.064l-3.615-9.847
			L101.562,41.007z"/>
		<circle fill="#686E9C" cx="115.293" cy="53.366" r="10.326"/>
		<circle fill="#BAEBFF" cx="114.106" cy="52.817" r="10.326"/>
		<circle fill="#65B0D0" cx="114.106" cy="52.817" r="8.263"/>
		<circle fill="#003B54" cx="114.106" cy="52.817" r="7.543"/>
		<circle fill="#002636" cx="114.106" cy="52.817" r="2.012"/>
		<path fill="#00B0FA" d="M115.858,57.59l0.353,0.961c3.167-1.163,4.792-4.673,3.629-7.84l-0.961,0.353
			C119.847,53.701,118.494,56.623,115.858,57.59z"/>
		<path fill="#00638C" d="M112.565,48.621c2.317-0.851,4.886,0.338,5.737,2.656l1.538-0.565c-1.163-3.167-4.673-4.792-7.84-3.629
			s-4.792,4.673-3.629,7.84l1.538-0.565C109.059,52.041,110.248,49.472,112.565,48.621z"/>
		<path fill="#00B0FA" d="M112.954,49.679L112,47.083c-3.167,1.163-4.792,4.673-3.629,7.84l2.596-0.953
			C110.331,52.236,111.22,50.315,112.954,49.679z"/>
		<circle fill="#838BC5" cx="120.003" cy="40.077" r="2.985"/>
		<circle fill="#FFFFFF" cx="120.003" cy="40.077" r="2.228"/>
	</g>
	<g>
		<g>
			<path fill="#FFFFFF" d="M182.618,73.597c-0.812,0-1.582-0.359-2.104-0.98c-1.655-1.974-9.917-12.11-9.917-17.843
				c0-6.531,5.393-11.844,12.021-11.844s12.021,5.313,12.021,11.844c0,5.733-8.262,15.869-9.918,17.843
				C184.2,73.238,183.429,73.597,182.618,73.597L182.618,73.597z"/>
		</g>
		<path fill="#F17548" d="M191.892,54.773c0,5.024-9.274,16.078-9.274,16.078s-9.275-11.054-9.275-16.078
			c0-5.024,4.152-9.097,9.275-9.097C187.74,45.676,191.892,49.749,191.892,54.773z"/>
		<circle fill="#FFFFFF" cx="182.617" cy="54.542" r="4.755"/>
	</g>
	<g>
		<path fill="#91DCFF" d="M78.027,82.066l10.757-10.757c1.126-1.126,1.126-2.968,0-4.094L75.513,53.947
			c-1.126-1.126-3.349-2.047-4.94-2.047h-9.061c-1.593,0-2.895,1.3-2.895,2.893v9.063c0,1.591,0.92,3.813,2.047,4.938l13.269,13.272
			C75.059,83.192,76.9,83.192,78.027,82.066z M63.788,59.394c-1.143,0-2.069-0.925-2.069-2.065s0.927-2.069,2.069-2.069
			c1.141,0,2.065,0.929,2.065,2.069S64.928,59.394,63.788,59.394z"/>
	</g>
	<g>
		<path fill="#F25A58" d="M141.529,88.517c-2.748,0-5.038,2.749-5.038,2.749s-2.29-2.749-5.038-2.749
			c-2.749,0-6.413,1.833-6.413,6.413c0,5.497,7.786,12.826,11.451,14.658c3.664-1.833,11.451-9.162,11.451-14.658
			C147.942,90.349,144.277,88.517,141.529,88.517z"/>
	</g>
	<g>
		<circle fill="#F25A58" cx="130.633" cy="11.353" r="11.352"/>
		<g>
			<path fill="#FFFFFF" d="M130.571,14.882l-0.402-0.001c0.047-0.823,0.152-1.505,0.313-2.043c0.161-0.539,0.495-1.289,1-2.249
				c0.394-0.738,0.65-1.305,0.769-1.7c0.119-0.396,0.179-0.796,0.18-1.201c0.002-0.83-0.218-1.491-0.658-1.982
				c-0.439-0.491-0.98-0.738-1.621-0.739c-0.569-0.001-1.017,0.132-1.344,0.399c-0.328,0.267-0.492,0.558-0.492,0.872
				c0,0.242,0.097,0.54,0.292,0.893s0.293,0.622,0.292,0.805c0,0.235-0.076,0.433-0.227,0.593c-0.151,0.16-0.334,0.239-0.55,0.239
				c-0.274,0-0.524-0.137-0.75-0.409c-0.225-0.271-0.337-0.649-0.336-1.133c0.002-0.739,0.32-1.392,0.956-1.959
				c0.635-0.567,1.496-0.85,2.581-0.848c1.347,0.003,2.336,0.397,2.969,1.184c0.47,0.576,0.703,1.214,0.702,1.914
				c-0.001,0.478-0.108,0.967-0.322,1.47s-0.618,1.094-1.215,1.772c-0.95,1.07-1.532,1.829-1.746,2.276
				S130.619,14.098,130.571,14.882z M130.432,16.098c0.307,0.001,0.567,0.107,0.779,0.32s0.317,0.473,0.316,0.78
				c0,0.301-0.108,0.557-0.325,0.769c-0.216,0.212-0.475,0.318-0.775,0.317c-0.301,0-0.557-0.107-0.77-0.32
				c-0.212-0.213-0.317-0.47-0.317-0.771c0.001-0.307,0.107-0.567,0.321-0.779C129.874,16.203,130.13,16.098,130.432,16.098z"/>
		</g>
	</g>
	<g>
		<g>
			<path fill="#59CAFF" d="M82.505,15.477c0.154-0.228,0.074-0.323-0.177-0.212l-13.712,6.081c-0.251,0.111-0.234,0.234,0.038,0.273
				l8.35,1.188c0.272,0.039,0.621-0.116,0.775-0.344L82.505,15.477z"/>
		</g>
		<g>
			<path fill="#59CAFF" d="M84.587,23.32c0.239,0.137,0.218,0.186-0.046,0.109l-4.865-1.409c-0.264-0.077-0.606,0.047-0.76,0.275
				l-0.731,1.08c-0.154,0.228-0.503,0.382-0.775,0.344l-1.292-0.184c-0.272-0.039-0.594,0.132-0.714,0.379l-2.223,4.551
				c-0.121,0.247-0.171,0.229-0.112-0.039l1.025-4.675c0.059-0.269-0.116-0.52-0.388-0.559l-4.647-0.661
				c-0.272-0.039-0.404,0.135-0.292,0.387l3.243,7.313c0.111,0.251,0.408,0.366,0.66,0.254l13.712-6.081
				c0.251-0.111,0.366-0.408,0.254-0.66l-3.243-7.313c-0.111-0.251-0.329-0.271-0.483-0.043l-2.63,3.887
				c-0.154,0.228-0.085,0.526,0.153,0.663L84.587,23.32z"/>
		</g>
	</g>
</g>
</svg>
