<?xml version="1.0" encoding="utf-8"?>
<!-- Generator: Adobe Illustrator 16.0.0, SVG Export Plug-In . SVG Version: 6.00 Build 0)  -->
<!DOCTYPE svg PUBLIC "-//W3C//DTD SVG 1.1//EN" "http://www.w3.org/Graphics/SVG/1.1/DTD/svg11.dtd">
<svg version="1.1" id="Layer_2" xmlns="http://www.w3.org/2000/svg" xmlns:xlink="http://www.w3.org/1999/xlink" x="0px" y="0px"
	 width="275.588px" height="269.521px" viewBox="0 0 275.588 269.521" enable-background="new 0 0 275.588 269.521"
	 xml:space="preserve">
<g>
	<g>
		<path fill="#ABE4FF" d="M205.07,247.443V15.122c0-8.773-43.263-11.788-67.124-11.788c-23.861,0-67.125,3.014-67.125,11.788
			v232.322c0,8.771,41.886,15.954,66.875,15.954C162.687,263.397,205.07,256.214,205.07,247.443z"/>
		<ellipse fill="#D9F3FF" cx="137.947" cy="244.266" rx="9.906" ry="4.98"/>
		
			<line fill="none" stroke="#04B1D9" stroke-width="1.6671" stroke-linecap="round" stroke-linejoin="round" stroke-miterlimit="10" x1="128.041" y1="23.487" x2="147.853" y2="23.487"/>
		<rect x="81.748" y="44.469" fill="#FFFFFF" width="111.898" height="183.55"/>
		<circle fill="#04B1D9" cx="169.028" cy="15.759" r="2.48"/>
	</g>
	
		<circle fill="none" stroke="#ABE4FF" stroke-width="1.6671" stroke-linecap="round" stroke-linejoin="round" stroke-miterlimit="10" stroke-dasharray="6.6683,8.3354" cx="137.946" cy="136.244" r="121.556"/>
	<g>
		<path fill="#043573" d="M102.836,215.939c-24.299,0-44.068-19.769-44.068-44.068V101.65c0-24.299,19.769-44.068,44.068-44.068
			h70.221c24.3,0,44.069,19.769,44.069,44.068v70.221c0,24.3-19.77,44.068-44.069,44.068H102.836z"/>
		<path fill="#ABE4FF" d="M208.168,171.871c0,19.311-15.8,35.11-35.111,35.11h-70.221c-19.311,0-35.11-15.8-35.11-35.11V101.65
			c0-19.311,15.8-35.11,35.11-35.11h70.221c19.312,0,35.111,15.799,35.111,35.11V171.871z"/>
	</g>
	<path fill="#4B7CCC" d="M173.057,70.574h-70.221c-19.311,0-35.11,15.8-35.11,35.11v12.687h140.442v-12.687
		C208.168,86.374,192.368,70.574,173.057,70.574z"/>
	<path fill="#FFAEDE" d="M173.057,66.361h-70.221c-19.311,0-35.11,15.8-35.11,35.111v12.686h140.442v-12.686
		C208.168,82.161,192.368,66.361,173.057,66.361z"/>
	<circle fill="#043573" cx="138.101" cy="136.915" r="50.935"/>
	<circle fill="#FFC4C4" cx="137.947" cy="136.76" r="47.054"/>
	<circle fill="#043573" cx="137.947" cy="136.76" r="34.37"/>
	<path fill="#00B0FA" d="M137.768,159.751v4.667c15.374,0,27.836-12.462,27.836-27.836h-4.668
		C160.937,149.378,150.564,159.751,137.768,159.751z"/>
	<path fill="#ABE4FF" d="M137.768,121.348v-12.602c-15.373,0-27.835,12.463-27.835,27.836h12.601
		C122.533,128.168,129.354,121.348,137.768,121.348z"/>
	<path fill="#FF505C" d="M24.803,120.735c-4.134,0-7.578,4.134-7.578,4.134s-3.444-4.134-7.578-4.134
		c-4.134,0-9.646,2.756-9.646,9.646c0,8.268,11.713,19.292,17.225,22.048c5.512-2.756,17.224-13.78,17.224-22.048
		C34.449,123.491,28.937,120.735,24.803,120.735z"/>
	<circle fill="#F25A58" cx="208.325" cy="67.392" r="64.31"/>
	<g>
		<defs>
			<circle id="SVGID_1_" cx="208.324" cy="67.392" r="56.966"/>
		</defs>
		<clipPath id="SVGID_2_">
			<use xlink:href="#SVGID_1_"  overflow="visible"/>
		</clipPath>
		<polygon clip-path="url(#SVGID_2_)" fill="#421B1B" points="233.191,97.403 210.596,97.403 210.596,28.938 227.008,44.656 		"/>
		<polygon clip-path="url(#SVGID_2_)" fill="#D6AF7E" points="222.813,86.408 225.327,95.588 241.354,101.146 248.67,110.152 
			253.523,126.341 257.291,149.571 210.596,171.207 210.596,91.409 		"/>
		<polygon clip-path="url(#SVGID_2_)" fill="#4A1919" points="210.596,39.462 219.064,40.944 225.979,50.647 229.013,61.761 
			229.895,99.998 226.449,102.709 226.449,65.17 222.242,49.097 218.642,42.14 210.596,40.377 		"/>
		<polygon clip-path="url(#SVGID_2_)" fill="#421B1B" points="188,97.403 210.596,97.403 210.596,28.938 194.185,44.656 		"/>
		<polygon clip-path="url(#SVGID_2_)" fill="#D6AF7E" points="198.379,86.408 195.864,95.588 179.838,101.146 172.521,110.152 
			167.668,126.341 163.901,149.571 210.596,171.207 210.596,91.409 		"/>
		<polygon clip-path="url(#SVGID_2_)" fill="#E0B076" points="210.596,78.753 197.133,78.492 198.805,89.117 201.718,96.852 
			210.596,103.572 219.475,96.852 222.387,89.117 224.059,78.492 		"/>
		<polygon clip-path="url(#SVGID_2_)" fill="#F2CDA1" points="222.791,34.166 210.596,29.852 198.4,34.166 192.138,45.435 
			192.138,66.969 196.549,78.373 205.405,87.346 210.596,88.146 215.786,87.346 224.643,78.373 229.054,66.969 229.054,45.435 		"/>
		<polygon clip-path="url(#SVGID_2_)" fill="#F2C084" points="207.385,57.24 207.2,56.013 199.381,55.833 199.298,41.703 
			192.138,57.24 192.138,66.969 196.338,78.194 205.405,87.346 198.4,74.878 194.974,65.993 195.459,62.406 199.634,60.854 
			206.478,61.186 		"/>
		<polygon clip-path="url(#SVGID_2_)" fill="#F2C084" points="213.807,57.24 213.992,56.013 221.812,55.833 221.894,41.703 
			229.054,57.24 229.054,66.969 224.854,78.194 215.786,87.346 222.791,74.878 226.218,65.993 225.732,62.406 221.559,60.854 
			214.714,61.186 		"/>
		<polygon clip-path="url(#SVGID_2_)" fill="#E6BA87" points="224.939,96.852 218.521,89.225 210.596,91.409 202.671,89.225 
			196.252,96.852 180.159,104.327 196.468,115.599 210.596,113.28 224.724,115.599 241.032,104.327 		"/>
		<polygon clip-path="url(#SVGID_2_)" fill="#571D1D" points="231.142,38.712 222.556,27.382 210.596,26.026 198.636,27.382 
			190.05,38.712 185.972,58.428 188,97.403 194.742,102.709 194.742,65.17 198.949,49.097 202.551,42.14 210.596,40.377 
			218.641,42.14 222.242,49.097 226.449,65.17 226.449,102.709 233.191,97.403 235.22,58.428 		"/>
		<polygon clip-path="url(#SVGID_2_)" fill="#4A1919" points="210.596,39.462 202.127,40.944 195.213,50.647 192.179,61.761 
			191.298,99.998 194.742,102.709 194.742,65.17 198.949,49.097 202.551,42.14 210.596,40.377 		"/>
		<polygon clip-path="url(#SVGID_2_)" fill="#2CAFD4" points="214.924,60.107 219.511,58.766 222.791,60.107 222.791,61.235 
			218.082,61.761 214.689,61.31 		"/>
		<polygon clip-path="url(#SVGID_2_)" fill="#008BB2" points="217.458,59.366 219.825,59.366 219.825,61.584 218.082,61.761 
			217.458,61.571 		"/>
		<rect x="218.218" y="60.14" clip-path="url(#SVGID_2_)" fill="#24658C" width="0.847" height="0.847"/>
		<polygon clip-path="url(#SVGID_2_)" fill="#F8D6BC" points="210.596,58.454 210.596,71.59 212.886,70.622 211.94,59.123 		"/>
		<polygon clip-path="url(#SVGID_2_)" fill="#F2C084" points="210.596,70.639 212.886,70.622 214.081,71.59 210.596,72.526 		"/>
		<polygon clip-path="url(#SVGID_2_)" fill="#D94139" points="212.344,74.467 216.882,75.573 213.072,76.708 210.596,76.319 
			210.596,75.053 		"/>
		<polygon clip-path="url(#SVGID_2_)" fill="#A50000" points="210.596,76.319 210.596,76.708 213.072,76.708 		"/>
		<polygon clip-path="url(#SVGID_2_)" fill="#FF564D" points="210.596,76.708 210.596,78.753 213.782,78.352 216.882,75.573 
			212.886,76.708 		"/>
		<path clip-path="url(#SVGID_2_)" fill="#571D1D" d="M229.233,63.02"/>
		<polygon clip-path="url(#SVGID_2_)" fill="#9E423D" points="213.992,56.013 219.389,54.974 224.854,56.58 217.771,56.58 
			213.807,57.24 		"/>
		<polygon clip-path="url(#SVGID_2_)" fill="#2CAFD4" points="206.269,60.107 201.681,58.766 198.4,60.107 198.4,61.235 
			203.109,61.761 206.502,61.31 		"/>
		<polygon clip-path="url(#SVGID_2_)" fill="#008BB2" points="203.734,59.366 201.367,59.366 201.367,61.584 203.109,61.761 
			203.734,61.571 		"/>
		<rect x="202.127" y="60.14" clip-path="url(#SVGID_2_)" fill="#24658C" width="0.847" height="0.847"/>
		<polygon clip-path="url(#SVGID_2_)" fill="#F8D6BC" points="210.596,58.454 210.596,71.59 208.306,70.622 209.251,59.123 		"/>
		<polygon clip-path="url(#SVGID_2_)" fill="#F2C084" points="210.596,70.639 208.306,70.622 207.111,71.59 210.596,72.526 		"/>
		<polygon clip-path="url(#SVGID_2_)" fill="#D94139" points="208.848,74.467 204.31,75.573 208.119,76.708 210.596,76.319 
			210.596,75.053 		"/>
		<polygon clip-path="url(#SVGID_2_)" fill="#A50000" points="210.596,76.319 210.596,76.708 208.119,76.708 		"/>
		<polygon clip-path="url(#SVGID_2_)" fill="#FF564D" points="210.596,76.708 210.596,78.753 207.409,78.352 204.31,75.573 
			208.306,76.708 		"/>
		<path clip-path="url(#SVGID_2_)" fill="#571D1D" d="M191.959,63.02"/>
		<polygon clip-path="url(#SVGID_2_)" fill="#81D0FF" points="253.697,119.152 249.843,109.337 241.738,100.835 225.327,95.588 
			217.492,102.709 210.596,103.947 203.699,102.709 195.864,95.588 179.453,100.835 171.349,109.337 167.495,119.152 
			161.348,171.207 210.596,171.207 259.844,171.207 		"/>
		<polyline opacity="0.1" clip-path="url(#SVGID_2_)" fill="#24658C" points="210.596,171.207 210.596,142.497 227.325,144.087 
			237.463,139.714 240.046,128.808 244.617,154.023 244.617,171.207 210.596,171.207 		"/>
		<polyline opacity="0.1" clip-path="url(#SVGID_2_)" fill="#24658C" points="210.596,171.207 210.596,142.497 193.867,144.087 
			183.729,139.714 181.146,128.808 176.575,154.023 176.575,171.207 210.596,171.207 		"/>
		<polygon clip-path="url(#SVGID_2_)" fill="#9E423D" points="207.2,56.013 201.803,54.974 196.338,56.58 203.422,56.58 
			207.385,57.24 		"/>
	</g>
	<path fill="#F25A58" stroke="#FFFFFF" stroke-width="1.6671" stroke-miterlimit="10" d="M265.13,186.644
		c-2.843,3.461-7.502,5.643-12.985,5.643c-0.185,0-0.361-0.002-0.547-0.005c-0.832-0.02-1.657-0.122-2.452-0.218
		c-0.71-0.085-1.386-0.168-2.017-0.189l-13.306,4.285c-0.036,0.005-0.072,0.01-0.104,0.01c-0.156,0-0.31-0.065-0.41-0.189
		c-0.124-0.143-0.155-0.345-0.083-0.522l3.031-9.043c-2.081-2.351-3.18-5.108-3.18-7.999c0-3.82,1.947-7.285,5.093-9.804
		c-0.056,0.48-0.092,0.966-0.092,1.457c0,8.852,7.565,15.526,17.598,15.526l0.589-0.003c1.632,0,3.722-0.337,4.346-0.405
		L265.13,186.644z M274.112,187.833c0.157,0,0.31-0.064,0.41-0.188c0.124-0.144,0.155-0.345,0.083-0.522l-3.031-9.044
		c2.081-2.349,3.18-5.108,3.18-7.998c0-7.676-7.854-13.921-17.504-13.921c-9.651,0-17.505,6.245-17.505,13.921
		c0,7.909,6.855,13.87,15.941,13.87c0.185,0,0.362-0.005,0.548-0.005c1.226,0,3.446-0.188,4.469-0.406l13.306,4.284
		C274.044,187.828,274.08,187.833,274.112,187.833L274.112,187.833z"/>
</g>
</svg>
